<svg xmlns="http://www.w3.org/2000/svg" width="1440" height="635" fill="none" viewBox="0 0 1440 635">
  <path fill="#FEF1CE" d="M1121.28-1045C926.641-7.305 856.954-921.516 563.885-352.559 315.174-431.204 224.37-796.85 197.789-636.87c-20.489 123.323-139.54-34.292-253.046-.001-80.902 19.254-185.431-92.655-166.654 56.944 18.777 149.6-11.714-110.459-68.37-56.944-56.656 53.525-41.145-98.988-59.735 0-31.489 167.561 32.523 343.07 150.5 420.882C-66.943-130.406 4.257-36.719-5.055 157.588-7.382 206.152 8.241 464.526 197.79 386.425c47.874-19.719 245.915-152.74 366.096 94.141 29.924 61.473 104.024 121.963 171.735 143.398 181.582 57.4 367.23-116.248 385.66-355.347 20-176.914 44.81-259.873 192.24-198.08 145.87 61.142 233.16-202.245 151.54-337.364-113.28-152.286 21.9-426.162 64.82-654.689 58.68-312.364-120.33 1022.726-408.6-123.484Z"/>
</svg>
