<svg width="1118" height="1043" viewBox="0 0 1118 1043" fill="none" xmlns="http://www.w3.org/2000/svg">
<path d="M117 112.087V825.912C117 906.043 90.8086 971 58.5 971C26.1914 971 0 906.043 0 825.912V112.087C0 31.9576 26.1914 -33 58.5 -33C90.8086 -33 117 31.9576 117 112.087Z" fill="white" fill-opacity="0.1"/>
<path d="M116.5 112.087V825.912C116.5 865.93 109.959 902.135 99.402 928.318C94.123 941.411 87.8495 951.973 80.9089 959.253C73.9695 966.533 66.3969 970.5 58.5 970.5C50.6031 970.5 43.0305 966.533 36.0911 959.253C29.1505 951.973 22.877 941.411 17.598 928.318C7.04096 902.135 0.5 865.93 0.5 825.912V112.087C0.5 72.0699 7.04096 35.8646 17.598 9.68192C22.877 -3.41073 29.1505 -13.9727 36.0911 -21.2534C43.0305 -28.5328 50.6031 -32.5 58.5 -32.5C66.3969 -32.5 73.9695 -28.5328 80.9089 -21.2534C87.8495 -13.9727 94.123 -3.41073 99.402 9.68192C109.959 35.8646 116.5 72.0699 116.5 112.087Z" stroke="black" stroke-opacity="0.08"/>
<path d="M1118 146.087V859.912C1118 940.043 1091.81 1005 1059.5 1005C1027.19 1005 1001 940.043 1001 859.912V146.087C1001 65.9576 1027.19 1 1059.5 1C1091.81 1 1118 65.9576 1118 146.087Z" fill="white" fill-opacity="0.1"/>
<path d="M1117.5 146.087V859.912C1117.5 899.93 1110.96 936.135 1100.4 962.318C1095.12 975.411 1088.85 985.973 1081.91 993.253C1074.97 1000.53 1067.4 1004.5 1059.5 1004.5C1051.6 1004.5 1044.03 1000.53 1037.09 993.253C1030.15 985.973 1023.88 975.411 1018.6 962.318C1008.04 936.135 1001.5 899.93 1001.5 859.912V146.087C1001.5 106.07 1008.04 69.8646 1018.6 43.6819C1023.88 30.5893 1030.15 20.0273 1037.09 12.7466C1044.03 5.46716 1051.6 1.5 1059.5 1.5C1067.4 1.5 1074.97 5.46716 1081.91 12.7466C1088.85 20.0273 1095.12 30.5893 1100.4 43.6819C1110.96 69.8646 1117.5 106.07 1117.5 146.087Z" stroke="black" stroke-opacity="0.08"/>
<path d="M425 116.277V850.721C425 933.167 397.018 1000 362.5 1000C327.982 1000 300 933.167 300 850.721V116.277C300 33.8339 327.982 -33 362.5 -33C397.018 -33 425 33.8339 425 116.277Z" fill="white" fill-opacity="0.1"/>
<path d="M424.5 116.277V850.721C424.5 891.894 417.512 929.145 406.233 956.085C400.593 969.555 393.89 980.424 386.472 987.917C379.057 995.409 370.956 999.5 362.5 999.5C354.044 999.5 345.943 995.409 338.528 987.917C331.11 980.424 324.407 969.555 318.767 956.085C307.488 929.145 300.5 891.894 300.5 850.721V116.277C300.5 75.1054 307.488 37.8547 318.767 10.9155C324.407 -2.55515 331.11 -13.4238 338.528 -20.9173C345.943 -28.4089 354.044 -32.5 362.5 -32.5C370.956 -32.5 379.057 -28.4089 386.472 -20.9173C393.89 -13.4238 400.593 -2.55515 406.233 10.9155C417.512 37.8547 424.5 75.1054 424.5 116.277Z" stroke="black" stroke-opacity="0.08"/>
<path d="M768 132.757V889.242C768 974.161 738.898 1043 703 1043C667.102 1043 638 974.161 638 889.242V132.757C638 47.8396 667.102 -21 703 -21C738.898 -21 768 47.8396 768 132.757Z" fill="white" fill-opacity="0.1"/>
<path d="M767.5 132.757V889.242C767.5 931.651 760.232 970.022 748.501 997.771C742.636 1011.65 735.664 1022.84 727.947 1030.56C720.233 1038.28 711.803 1042.5 703 1042.5C694.197 1042.5 685.767 1038.28 678.053 1030.56C670.336 1022.84 663.364 1011.65 657.499 997.771C645.768 970.022 638.5 931.651 638.5 889.242V132.757C638.5 90.3487 645.768 51.9785 657.499 24.2292C663.364 10.3535 670.336 -0.843195 678.053 -8.56352C685.767 -16.2819 694.197 -20.5 703 -20.5C711.803 -20.5 720.233 -16.2819 727.947 -8.56352C735.664 -0.843195 742.636 10.3535 748.501 24.2292C760.232 51.9785 767.5 90.3487 767.5 132.757Z" stroke="black" stroke-opacity="0.08"/>
</svg>
