<svg xmlns="http://www.w3.org/2000/svg" width="1817" height="1960" fill="none" viewBox="0 0 1817 1960">
  <mask id="a" width="303" height="412" x="756" y="774" maskUnits="userSpaceOnUse" style="mask-type:luminance">
    <path fill="#fff" d="M756.932 774.016h301.618v411.604H756.932V774.016Z"/>
  </mask>
  <g mask="url(#a)">
    <path fill="#FEFBE5" d="M1056.68 1025.88c-1.06-1.17-2.33-2.05-3.62-2.84-2.23-1.39-4.46-2.74-6.83-4.19 1.38-2 1.38-3.94.23-5.88-.27-.45-.13-.71.09-1.08.91-1.41.91-2.92.44-4.49-.36-1.21-.91-2.33-1.53-3.39-1.24-2.16-2.79-4.042-4.53-5.757-4.28-4.247-8.88-8.045-13.64-11.597-1.46-1.103-2.86-2.266-4.11-3.634-3.24-3.573-6.42-7.207-9.41-11.025-14.194-18.028-28.598-35.893-42.963-53.778-.436-.551-.587-1.102-.625-1.756-.151-2.082-.284-4.144-.435-6.206-.549-7.064-1.06-14.108-1.628-21.152-.303-3.716-.454-7.472-.965-11.168a1.506 1.506 0 0 1 .057-.714c.984-2.634 1.571-5.37 2.195-8.126.435-1.879.454-3.675.246-5.533-.208-2.001-1.268-3.308-2.725-4.349-.549-.388-1.155-.735-1.779-.857-.739-.123-.871-.552-.871-1.246-.019-1.735-.227-3.43-.492-5.124-.814-5.493-2.006-10.903-3.161-16.293-.303-1.368-.284-1.368.871-2.042 2.555-1.51 4.22-3.736 4.788-6.88.398-2.164.36-4.328-.132-6.472-.947-4.206-2.858-7.677-6.757-9.392-.625-.265-.549-.653-.436-1.184.474-2.144.493-4.308 0-6.452-2.006-8.861-9.539-13.332-17.45-10.392-.057.021-.152-.061-.227-.081-.833-3.941-1.25-5.166-2.707-7.391-2.953-4.512-6.908-7.636-11.792-9.249-5.962-1.96-11.526-1.368-16.201 3.614-.398.428-.606.224-.947-.041-3.028-2.328-6.208-2.47-9.463-.592-.681.388-1.022.469-1.609-.245-2.498-3.083-5.735-4.247-9.445-3.757-3.615.47-6.605 2.389-9.16 5.104-.625.674-1.098.98-2.007.654-1.097-.409-2.271-.47-3.444-.327-4.562.572-7.855 3.226-10.183 7.391-1.155 2.082-2.782 3.879-4.694 5.084-.511.326-.833.285-1.363-.041-2.839-1.777-5.867-2.246-9.009-1.144-6.927 2.41-11.356 7.555-13.438 15.007-.341 1.225-.776 1.51-1.798 1.674-3.218.469-5.565 2.225-6.492 5.737-.19.674-.492.735-1.022.572-1.798-.47-3.596-.429-5.413 0-6.379 1.47-10.808 5.492-13.098 12.107-2.385 6.839-2.101 13.373 2.252 19.314.473.633.095.857-.246 1.184-3.937 4.022-5.375 8.983-4.542 14.72.605 4.125 2.252 7.657 5.602 9.882 1.23.817 1.495 1.613 1.382 3.083-.454 6.023 1.703 10.719 6.492 13.924.094.061.113.123-.057.409-3.842 1.919-7.438 4.41-8.801 9.289-.379 0-.454-.286-.568-.469-5.602-9.025-10.656-18.396-15.293-28.033-.284-.551-.227-.959 0-1.531.53-1.225.946-2.511 1.363-3.797.587-1.879.605-3.757.189-5.676-.871-4.063-3.142-6.921-6.435-8.922-.568-.347-1.022-.797-1.439-1.368-3.179-4.431-5.394-9.433-7.324-14.598-1.42-3.838-2.802-7.697-4.221-11.535-.416-1.185-.909-2.328-1.628-3.349-1.363-1.96-3.047-2.001-4.542-.122-.701.898-1.136 1.96-1.439 3.083-.814 3.123-.719 6.308-.416 9.493.17 1.593.454 3.185.87 4.737.095.368.133.612-.246.878-2.744 1.797-4.277 4.43-4.447 7.922-.038.469-.152.653-.606.816-3.161 1.062-5.129 3.471-5.981 6.84-.965 3.899-.473 7.615 1.703 10.984a25.038 25.038 0 0 0 2.253 2.899c.265.286.454.551.492 1.021.378 4.267 1.968 7.983 4.788 11.005 2.991 3.225 6.417 5.696 10.789 6.104.416.041.719.143.833.633.34 1.348 1.097 2.45 1.741 3.614 7.836 13.842 16.22 27.256 25.722 39.853.416.551.662 1.103.587 1.879-.076 1.163 0 2.347.113 3.491.719 7.574 1.628 15.149 2.991 22.642 1.097 6.186 2.309 12.352 4.164 18.354 1.495 4.758 3.425 9.27 5.867 13.557 1.893 3.308 4.505 5.615 7.911 6.84.606.224 1.231.469 1.855.653 5.357 1.572 10.808 2.164 16.353 1.899 1.249-.061 1.249-.082 1.571 1.225.682 2.736 1.344 5.476 2.044 8.186.928 3.55 1.969 7.04 3.388 10.41.947 2.23 2.158 4.27 4.07 5.68.094.08.151.22.246.39-3.199 3.35-6.379 6.67-9.577 10.02-4.392 4.62-8.707 9.29-12.625 14.4-2.29 2.94-4.429 6-6.151 9.37-2.006 3.88-3.047 8-2.877 12.47.151 3.29.776 6.39 2.536 9.15 1.212 1.92 2.366 3.88 3.71 5.69 4.069 5.48 7.798 11.23 11.754 16.79.17.26.53.47.302.96-1.381 0-2.29.87-3.085 2-1.06 1.53-2.138 3.06-3.255 4.55-3.634 4.74-7.968 8.47-13.249 10.88-3.937 1.82-7.836 3.74-11.735 5.66-2.252 1.12-4.391 2.47-6.359 4.1-1.988 1.66-3.294 3.82-4.013 6.41-.341 1.29-.435 2.57-.435 3.9-.019 3.35.378 6.66.587 9.99.208 3.22.492 6.45 1.798 9.43-.474.43-1.022.55-1.533.77-1.723.8-3.407 1.64-4.959 2.78-.89.65-1.704 1.41-2.328 2.37-1.079 1.67-1.041 3.29.094 4.9.719 1.02 1.666 1.75 2.688 2.39 1.855 1.2 3.842 2.04 5.886 2.75 6.909 2.41 14.025 3.7 21.18 4.8 8.403 1.29 16.864 2.08 25.324 2.7 8.706.63 17.432 1.02 26.157 1.2 23.3.45 46.561-.1 69.803-1.96 7.268-.59 14.499-1.28 21.729-2.12 9.842-1.17 19.627-2.59 29.337-4.62 6.32-1.3 12.59-2.83 18.66-5.12 2.39-.9 4.71-1.92 6.89-3.33.93-.59 1.8-1.26 2.56-2.1 1.96-2.23 1.91-4.49-.17-6.6-.65-.65-1.39-1.18-2.16-1.67-1.38-.86-2.84-1.53-4.32-2.12-4.71-1.86-9.59-2.92-14.5-3.92-1.24-.25-1.24-.23-.98-1.64.49-2.57.95-5.14 1.44-7.71.49-2.66.6-5.23-1.02-7.54-.25-.37-.4-.81-.5-1.24-.26-1.13-.05-1.43 1.03-1.6 2.25-.34 4.05-1.53 5.32-3.53 2.53-4 4.27-8.39 5.26-13.13.51-2.45-.04-4.59-1.42-6.51-.68-.92-1.42-1.75-2.24-2.53a33.987 33.987 0 0 0-3.97-3.33 48.312 48.312 0 0 1-6.08-5.1c-4.141-4.13-8.816-7.27-14.135-9.25-1.627-.59-2.725-1.66-3.369-3.35-.435-1.12-1.022-2.16-1.854-3.02-1.912-1.98-4.278-2.04-6.265-.16-.379.34-.738.73-1.117 1.14-.189-.16-.341-.29-.473-.41-6.776-7.27-13.495-14.56-19.798-22.29-2.99-3.68-4.486-7.97-4.978-12.77-.53-5.08-.586-10.18-.624-15.29-.019-2.73-.019-5.45-.114-8.18-.057-1.47.038-1.27 1.079-1.62 3.596-1.24 7.211-2.43 10.656-4.12 3.009-1.49 6-3.04 8.631-5.25 2.706-2.24 4.448-5.08 5.129-8.74.719-3.94.889-7.919.662-11.92-.492-8.432-1.022-16.844-1.533-25.276-.113-2.001-.227-3.981-.322-6.003.455.041.606.388.814.633 7.514 8.984 15.047 17.967 22.543 26.991 2.479 2.96 4.918 5.941 7.118 9.167 1.76 2.598 2.72 5.468 2.86 8.698.07 2.12.09 4.25.49 6.35 1 5.33 3.41 9.68 7.61 12.76 1.64 1.22 3.46 1.96 5.49 2.04 4.05.19 7.17-1.75 9.71-5.02.77-1 .73-1 1.79-.25 2.54 1.88 5.08 3.8 7.74 5.46 3.01 1.87 6.21 3.26 9.64 3.87 2.23.39 4.47.43 6.59-.71 2.38-1.29 2.66-3.04.77-5.12l.04.06ZM827.718 923.834a2.665 2.665 0 0 1-.606-1.286c-.738-4.002-.17-7.943.417-11.883.265-1.756 1.211-2.797 2.801-3.144 1.382-.306 2.763-.551 4.126-.858.644-.122.909.041.984.817.227 3.022.53 6.023.795 9.045l1.647 18.375c.019.143 0 .306 0 .735-3.672-3.88-6.909-7.84-10.145-11.801h-.019Zm14.668 51.94c-1.854.245-3.69.347-5.545-.021-.795-.143-1.23-.53-1.571-1.286-1.306-2.919-1.987-6.064-2.631-9.208-.227-1.061-.416-2.164-.606-3.246.076-.041.152-.082.228-.143.624.674 1.249 1.348 1.873 2.001 2.12 2.266 4.202 4.614 6.606 6.492 1.4 1.082 2.025 2.328 2.12 4.043.019.204.056.408.094.592.114.531-.094.715-.568.776Zm100.409 175.296c-5.224.06-10.448.14-15.672.21-12.265.14-24.529.26-36.813.38h-1.628c.398-2.22.833-4.37 1.174-6.53 1.022-6.23 1.571-12.49 1.4-18.84-.113-4.95-1.306-9.56-3.255-13.99-1.117-2.55-2.309-5.06-3.445-7.62-.473-1.1-.927-2.2-1.363-3.3-.454-1.17-.511-2.33-.303-3.58.776-4.51-1.873-7.35-6.094-6.57-.549.12-1.117.22-1.609.47-.587.33-.908.24-1.211-.39-.738-1.47-1.704-2.77-2.65-4.1-3.028-4.35-5.754-8.94-8.593-13.44-1.684-2.63-1.855-5.06-.378-7.88 1.306-2.51 2.725-4.92 4.391-7.16 4.22-5.62 8.801-10.86 13.627-15.85 3.18-3.28 6.36-6.55 9.539-9.8.682-.69 1.079-1.79 1.988-2.04.833-.22 1.76-.02 2.65-.02 6.492.06 12.965-.16 19.419-.92.321-.02.643-.16.984.08-.133 2.23-.284 4.5-.416 6.74-.284 5.37-.436 10.7.113 16.05.53 5.14 1.495 10.17 3.161 15.03 1.779 5.18 4.694 9.61 8.063 13.74 3.293 4 6.87 7.69 10.448 11.39 6.151 6.35 12.586 12.35 18.87 18.54.7.67 1.306 1.28 1.571 2.35.151.65.587 1.24.927 1.85.985 1.76 2.101 3.45 3.256 5.11.605.85 1.079 1.77 1.23 2.86.492 3.3.568 6.63.095 9.96-.076.53-.227.75-.72.9-2.309.69-4.391 1.92-6.416 3.28a103.48 103.48 0 0 0-7.192 5.25c-2.177 1.76-3.767 3.92-4.032 6.96-.075.86-.511.88-1.116.88Z"/>
  </g>
  <path fill="#8A98FD" d="M955.931 1087.72c-.379.1-.568.37-.436.77.095.27.284.51.473.74 3.142 3.39 6.322 6.72 9.578 9.96.265.27.605.47.927.68.227.12.454.04.625-.17.17-.2.208-.47.037-.69-.283-.39-.567-.78-.908-1.14-2.158-2.23-4.297-4.48-6.473-6.7-.965-1-1.969-1.98-2.972-2.96-.246-.25-.492-.47-.851-.49Zm-87.972 5.71c-.038-.67-2.025-3.63-2.593-3.83-.208-.09-.36-.02-.511.12-.19.18-.209.45-.114.69a11.63 11.63 0 0 0 2.366 3.49c.17.19.435.19.644.05.17-.11.208-.31.208-.54v.02Z"/>
  <path fill="#8A98FD" d="M971.679 1105.52c-.113.29-.473.55-.794.84-1.098.98-1.269.96-2.31-.1-.435-.45-.87-.9-1.362-1.31-1.798-1.49-3.256-1.55-5.149-.29-.738.51-1.419.43-2.063-.2-1.003-.98-1.987-1.98-2.99-2.96-.303-.29-.662-.72-1.079-.31-.473.47-.076.92.227 1.31.928 1.2 2.044 2.2 3.142 3.23.53.51.644.85.095 1.45a16.33 16.33 0 0 0-2.688 3.89c-6.776-6.65-13.646-13.04-20.157-19.86.227-.47.605-.41.889-.45 1.78-.16 3.483-.69 5.073-1.57.587-.31.889-.17 1.306.3 2.082 2.37 4.258 4.68 6.492 6.93.378.36.719.77 1.211.98.303.12.549.06.738-.23.171-.22.133-.49-.038-.69-.283-.39-.605-.76-.946-1.11-1.798-1.89-3.615-3.79-5.432-5.69-.435-.45-.814-.94-1.268-1.49.378-.57.946-.82 1.419-1.19a39.74 39.74 0 0 0 3.464-3.08c.719-.75.719-.73 1.401 0 .567.61 1.135 1.21 1.703 1.8.17.18.36.32.549.47.246.18.511.22.757-.04.246-.27.189-.56.038-.84-.341-.61-.814-1.08-1.287-1.57-.303-.33-.606-.64-.928-.92-.454-.41-.605-.76-.132-1.37 1.306-1.65 2.328-3.51 3.18-5.45.511-.12.7.28.965.55 2.896 2.92 5.792 5.86 8.706 8.78.436.45.985 1.35 1.59.71.644-.67-.208-1.26-.643-1.69-2.991-3.12-5.962-6.27-9.18-9.11-.624-.55-.757-.96-.416-1.77.946-2.25 1.684-4.58 2.12-7.01.586-.08.776.41 1.041.72 4.164 4.92 8.555 9.57 12.927 14.29 1.874 2.02 3.672 4.19 5.981 5.68.397.26.359.65.378 1.04.019 2.26-.492 4.41-1.079 6.47-.359.2-.492-.06-.662-.2-2.233-1.98-4.467-3.97-6.7-5.97a7.363 7.363 0 0 0-.89-.71c-.208-.14-.454-.16-.643.04-.19.2-.227.47-.095.69.208.33.454.64.719.92 1.742 1.92 3.767 3.47 5.66 5.21.662.61 1.684 1.14 1.873 1.9.227.88-.511 1.88-.889 2.8-.644 1.51-1.382 2.96-2.309 4.3-.322.47-.568.53-.985.11-.548-.54-1.154-1.03-1.741-1.52-.265-.22-.587-.4-.871-.04-.283.33-.17.68.057.94.663.8 1.325 1.57 2.025 2.41v-.02Zm-114.415 3.74c-1.344.41-2.556.77-3.805 1.16-.227-.79-.265-1.63-.549-2.37-1.041-2.59-2.877-4.04-5.375-4.55-.587-.12-1.022-.33-1.382-.86-3.217-4.65-6.454-9.29-9.671-13.92-.133-.21-.303-.41-.208-.7.302-.2.624-.06.927 0 1.987.45 3.994.41 6 .15.814-.12 1.117.14 1.476.86.568 1.08 1.287 2.1 1.95 3.14.246.37.549.86 1.003.49.416-.33.189-.86-.019-1.25-.663-1.2-1.344-2.41-2.082-3.67 2.29-.8 4.448-1.82 6.53-3.19 1.457 2.64 3.009 5.03 4.58 7.39.227.33.454.66.7.96.19.25.474.33.757.17.303-.19.284-.49.152-.78-.227-.51-.454-1.02-.738-1.47-1.136-1.84-2.309-3.67-3.445-5.51-.303-.45-.644-.88-.833-1.53 1.533-1.17 3.029-2.43 4.429-3.88.795.9 1.344 1.92 1.969 2.86.813 1.26 1.608 2.59 2.422 3.88.227.38.473.75.738 1.1.246.31.511.69.928.41.492-.31.284-.78.094-1.19-.17-.36-.359-.71-.548-1.06-1.344-2.18-2.688-4.37-4.127-6.47-.151-.2-.265-.41-.397-.63 1.022-1.25 2.177-2.31 2.763-3.76.549-.08.606.35.776.61 4.126 6.9 8.612 13.56 13.079 20.21.341.49.473.9.189 1.5-.549 1.16-1.041 2.34-1.684 3.75-.757-1.04-1.401-1.94-2.063-2.82-.587-.79-1.155-1.59-1.761-2.34-.283-.37-.662-.7-1.078-.31-.379.33-.133.76.075 1.08.625.94 1.268 1.88 1.912 2.8.454.65.927 1.27 1.382 1.92.776 1.1.776 1.1.056 2.18-1.003 1.49-2.214 2.74-3.709 3.66-1.06.65-1.079.65-1.704-.47-2.063-3.62-4.107-7.23-6.17-10.84-.189-.35-.379-.7-.606-1.02-.265-.37-.605-.49-.984-.23-.322.23-.303.61-.151.94.151.37.359.72.568 1.04 1.911 3.41 3.842 6.8 5.772 10.21.171.31.341.59.511.92.19.39.114.65-.321.75-.871.21-1.742.33-2.631.35a66.72 66.72 0 0 0-3.483.14c-.435.05-.643-.1-.889-.49-2.65-4.22-5.319-8.43-8.007-12.61-.302-.47-.605-1.33-1.211-.94-.719.47-.095 1.2.189 1.71 1.95 3.58 4.202 6.92 6.436 10.29.454.68.984 1.31 1.305 2.25l-.037-.02Zm39.748-242.144c3.691-.02 7.344.245 10.997.878 2.952.511 5.148 2.226 6.813 4.798.966 1.47 1.287 1.531 2.499.368 2.687-2.552 5.735-3.165 9.104-1.899 1.457.551 2.631.102 3.501-1.327.568-.939 1.382-1.634 2.253-2.226 2.252-1.572 4.693-2.674 7.23-3.573 5.091-1.837 10.239-3.389 15.577-4.165 2.763-.387 5.564-.755 8.365-.449.284.021.568.041.833.102 2.801.592 4.372 2.716 4.221 5.819-.133 2.736-.681 5.411-1.42 8.024-1.438 4.982-3.615 9.514-7.135 13.169-2.442 2.552-5.243 4.328-8.669 4.838-3.009.45-5.753-.224-8.271-2-2.082-1.45-3.956-3.185-5.64-5.166-1.59-1.858-3.161-3.716-4.77-5.533-1.59-1.817-3.501-2.879-5.697-3.266-3.085-.552-6.037-.307-8.668 1.837-1.496 1.225-2.423 2.818-2.972 4.798-2.139 8.065-6.719 13.883-13.987 16.966-3.52 1.491-7.098 1.348-10.599-.326-6.757-3.267-11.319-8.718-13.931-16.15-.662-1.899-1.249-3.798-1.589-5.798-.284-1.593-.114-3.124.246-4.655.321-1.327 1.097-2.287 2.328-2.818 1.533-.653 3.123-.98 4.75-1.143 3.767-.368 7.533-.756 11.281-1.103 1.117-.102 2.233-.02 3.35-.02v.02Z"/>
  <path fill="#8A98FD" d="M896.52 869.811c-3.729.021-6.473 0-9.217.368-2.518.326-4.94.959-7.079 2.531-2.044 1.491-2.65 3.573-2.158 6.064.53 2.797 1.533 5.411 3.047 7.738 2.631 4.124 6.095 7.207 10.221 9.412 1.211.654 2.498 1.103 3.861 1.266 2.877.368 5.451-.694 7.817-2.246 4.41-2.919 7.4-7.166 9.255-12.372.871-2.471.928-5.002.398-7.595-.417-2.042-1.628-3.226-3.369-3.859-.492-.184-.984-.286-1.495-.368-4.07-.714-8.139-1.041-11.281-.959v.02Zm62.099-7.554c-.663.041-1.325.041-1.968.123-6.814.98-13.458 2.674-19.817 5.573-1.723.776-2.972 2.063-3.975 3.675-1.022 1.654-1.041 3.288.019 4.921.341.551.663 1.123 1.041 1.613 3.18 4.185 6.927 7.636 11.375 10.126 3.18 1.777 6.284 1.675 9.256-.551 5.299-4.022 8.952-9.371 10.845-16.088.359-1.266.53-2.552.511-3.879-.019-2.205-.89-3.737-2.801-4.594-1.439-.674-2.934-1-4.486-.919Z"/>
  <path fill="#BD5A0D" d="M876.456 1094.97c-.455-.51-.776-.98-1.004-1.56 1.704-1.12 4.051-.93 5.451.41.474.47.757 1.02.757 1.72 0 .61.038 1.24-.094 1.82-.454 1.93-.095 3.71.643 5.45 1.344 3.06 2.745 6.08 4.108 9.12 1.249 2.84 2.384 5.72 2.933 8.82.738 4.19.795 8.43.511 12.68-.038.63-.397.84-.795 1.1a47.768 47.768 0 0 1-6.265 3.37c-3.198 1.41-6.34 2.96-9.728 3.8-2.025.51-3.975.35-5.886-.51-.909-.41-1.817-.82-2.745-1.16-2.309-.86-3.747-.43-5.356 1.61-.322.41-.663.84-.928 1.31-.776 1.38-1.93 2.16-3.293 2.65-1.855.69-3.804 1.02-5.716 1.43-.53.12-.738-.04-.795-.67-.113-1.56-.322-3.09-.7-4.62-1.268-5.33-3.861-9.94-6.738-14.37-.265-.41-.549-.82-.814-1.21.019-.45.341-.61.568-.83 3.88-3.74 7.684-7.54 10.921-11.95.189-.22.359-.43.624-.57 2.915-1.49 5.962-2.31 9.18-2.31 1.306 0 2.612 0 3.918-.26 3.463-.7 6.208-2.64 8.271-5.72 1.249-1.86 2.158-3.9 3.047-5.96.454-1.04.928-2.1 1.344-3.16.208-.58.757-1.29 0-1.74-.7-.39-.908.45-1.192.92l-.246.39h.019Zm94.087 13.53c2.536-1.77 4.164-4.16 5.451-6.82 1.741-3.55 2.934-7.31 3.501-11.27.209-1.51.133-3.04.019-4.55-.075-1.02-.454-1.18-1.211-.55-.322.28-.473.18-.681 0-.455-.43-.89-.86-1.325-1.29 2.233-2.96 4.561-2.79 6.284.35.416.73.757 1.53 1.116 2.29.549 1.16 1.382 2.02 2.518 2.51 1.116.51 2.233 1 3.35 1.49 3.35 1.47 6.416 3.45 9.217 5.94 2.458 2.16 4.718 4.59 7.378 6.47.42.29.51.59.4 1.14-.91 4.44-1.78 8.87-3.12 13.17-.63 2.05-1.61 3.86-2.69 5.64-.889 1.47-2.044 2.45-3.652 2.84-.814.2-1.609.47-2.366.87-1.571.88-2.063 2.05-1.514 3.88.265.9.605 1.8 1.003 2.66.549 1.18.662 2.41.397 3.67-.889 4.62-2.347 9.05-4.239 13.27-.228.55-.568 1.04-.871 1.56-.189.28-.379.57-.795.75-.246-.24-.303-.63-.454-.98-1.912-5.06-4.41-9.68-8.271-13.31-1.458-1.37-2.972-2.61-4.808-3.33-.587-.22-.776-.51-.587-1.22 1.855-6.66 1.117-13.17-1.116-19.58-.701-1.98-1.704-3.8-2.934-5.58v-.02ZM840.134 977.611c-.719 3.389-.681 6.656-.473 9.943.208 3.226.833 6.37 2.025 9.412-.946.266-1.741.061-2.517 0-3.71-.367-7.381-.98-10.94-2.348-3.028-1.163-5.356-3.164-7.059-6.104-2.84-4.921-4.94-10.188-6.474-15.721-2.006-7.309-3.331-14.802-4.466-22.316-.795-5.185-1.363-10.392-1.893-15.618-.076-.797-.095-1.593-.151-2.532.662.265.889.776 1.192 1.164 6.057 7.901 12.094 15.782 18.473 23.356.795.94 1.817 1.736 2.328 2.818.492 1.062.473 2.409.681 3.655.663 3.756 1.439 7.492 2.82 11.045-.359.347-.643 0-.908-.123-1.287-.612-2.48-1.408-3.615-2.286-.227-.164-.454-.347-.682-.511-.246-.183-.511-.306-.757-.04-.303.306-.208.653 0 .959.322.511.757.898 1.212 1.246 3.198 2.286 6.605 3.94 10.542 3.94.17 0 .36.041.662.082v-.021Zm-6.377-72.377c-1.325.306-2.593.592-3.862.899-2.119.49-3.331 1.98-3.709 4.205-.53 3.042-.89 6.085-.833 9.188v.878c-.473.163-.587-.266-.776-.511-4.543-5.778-8.801-11.78-12.833-17.987-.416-.633-.492-1.204-.397-1.96.208-1.776.965-3.246 2.025-4.573 1.098-1.388 2.461-2.45 3.937-3.328 2.631-1.552 5.413-2.715 8.252-3.736.511-.204.833-.245 1.079.408 2.063 5.37 4.372 10.596 6.984 15.68.114.225.208.449.114.817l.019.02Z"/>
  <path fill="#FDBB27" d="M838.735 855.234c0 4.471.341 8.636.606 12.821.076 1.307.208 2.614.322 3.92.019.245.057.511.132.735.076.327.228.633.53.633.398 0 .53-.388.549-.755a8.225 8.225 0 0 0-.019-1.368c-.227-4.594-.473-9.167-.719-13.761-.019-.592-.076-1.184.114-1.878 1.078.551 2.082 1.082 3.198 1.245 2.574.327 4.789-.49 6.682-2.368 1.949-1.94 3.255-4.206 4.466-7.84.909.735 1.836 1.409 2.953 1.695 2.801.755 5.243 0 7.363-2.083 1.116-1.102 1.987-2.409 2.839-3.716.416-.041.624.266.87.49 1.874 1.715 4.07 2.124 6.436 1.858 2.99-.327 5.734-1.449 8.157-3.328 6.341-4.9 10.656-11.351 12.378-19.681.133-.674.455-.899.947-1.083 3.634-1.347 7.343-2.307 11.167-2.756 8.176-1 16.391-1.082 24.586-.551 7.003.47 13.893 1.674 20.631 3.859 2.195.714 3.425 2.205 3.993 4.573a406.537 406.537 0 0 1 5.186 24.337c.379 2.184.701 4.389.757 6.615.038 1.102.038 1.123-.908 1.123-9.085.122-17.678 2.613-26.12 6.063-1.608.654-3.123 1.572-4.58 2.593-1.098.776-2.101 1.674-2.707 2.981-.302.633-.643.735-1.23.47-1.381-.654-2.839-.939-4.353-.899-2.593.062-4.77 1.205-6.719 2.981-.398-.245-.568-.694-.814-1.021-1.855-2.429-4.126-4.063-7.041-4.553-5.602-.959-11.243-1.265-16.883-.755-3.255.286-6.511.653-9.747 1-1.306.143-2.593.388-3.824.858-2.895 1.102-4.22 2.981-4.41 6.288-.056 1.266 0 2.532.265 3.757 1.212 5.472 3.218 10.555 6.644 14.863 2.593 3.267 5.792 5.656 9.388 7.493 4.145 2.124 8.328 2.083 12.473.184 6.794-3.083 11.242-8.616 13.779-16.048.17-.51.359-1.041.473-1.592.776-3.614 3.142-5.247 6.284-5.717 3.35-.531 6.359.347 8.82 3.104a175.366 175.366 0 0 1 4.296 4.981c1.798 2.205 3.823 4.186 6.113 5.758 4.145 2.858 8.574 3.164 13.098 1.102 3.729-1.715 6.549-4.593 8.839-8.146.643-1.041 1.249-2.103 2.044-3.45.151 1.755.284 3.205.398 4.634.738 9.616 1.457 19.233 2.214 28.849.681 8.922 1.382 17.824 2.082 26.725.795 10.127 1.382 20.254 1.968 30.401.417 7.615.909 15.231 1.325 22.846.171 3.205-.057 6.37-.53 9.51-.549 3.52-2.082 6.33-4.694 8.5-2.877 2.41-6.132 4.04-9.444 5.53-6.833 3.06-13.912 5.19-21.123 6.9-6.662 1.55-13.343 2.96-20.081 3.94-8.215 1.17-16.467 1.57-24.719 1.43-7.533-.14-15.009-.75-22.41-2.24-3.085-.62-6.132-1.31-9.066-2.54-.852-.34-1.76-.47-2.612-.96-2.025-1.2-3.577-2.87-4.599-5.12-1.533-3.43-2.593-7.02-3.596-10.66-2.783-10.227-4.865-20.64-6.473-31.154-1.004-6.431-2.082-12.822-2.934-19.273a451.934 451.934 0 0 1-1.836-15.946 3570.44 3570.44 0 0 1-1.836-20.049c-.625-6.942-1.192-13.883-1.817-20.825-.814-9.065-1.268-18.15-2.252-27.175-.473-4.471-1.022-8.922-1.098-13.434-.019-.653-.53-1.368-.151-1.899.397-.53 1.154-.142 1.741-.306a6.876 6.876 0 0 0 2.877-1.47c.378-.347.776-.714 1.381-1.266l-.019.021Zm16.959 130.809c-.227-1.327-.492-2.919-.814-4.491-1.874-9.31-3.672-18.641-5.186-28.053a570.938 570.938 0 0 1-3.993-29.522c-.871-7.983-1.628-15.966-2.196-23.969-.208-2.859-.416-5.738-.681-8.596-.038-.551.151-1.511-.587-1.49-.852 0-.625.959-.587 1.551.171 3.553.341 7.085.606 10.597a646.84 646.84 0 0 0 2.404 25.01 629.776 629.776 0 0 0 2.952 22.193c1.552 10.147 3.445 20.253 5.47 30.319.473 2.307.984 4.614 1.495 6.921.076.367.265.837.739.694.397-.102.378-.531.378-1.164Zm36.51 28.767c-4.466-.04-8.649-.14-12.851-.49-.644-.04-1.287-.04-1.95-.06-.378 0-.813-.02-.889.51-.076.63.397.71.814.8.359.08.738.16 1.098.2 5.64.43 11.28.63 16.92.47 8.631-.22 17.224-.96 25.779-2.25 8.65-1.28 17.167-3.18 25.552-5.79.851-.27 1.665-.62 2.498-.98.341-.15.719-.41.568-.88-.171-.51-.587-.43-.965-.33-1.079.31-2.158.63-3.218.96-17.545 5.37-35.469 7.55-53.374 7.84h.018Zm2.953-5.63c-.227-1.86-.435-3.68-.643-5.48a819.254 819.254 0 0 1-2.063-20.495c-.72-8.187-1.269-16.394-1.874-24.602-.398-5.451-.757-10.882-1.666-16.251-.662-3.941-1.684-7.759-3.369-11.352-.227-.49-.435-1.021-.814-1.409-.189-.183-.378-.286-.624-.163-.246.122-.322.408-.265.633.132.49.284.959.473 1.429a48.413 48.413 0 0 1 3.236 11.086c1.098 6.677 1.439 13.434 1.95 20.172.397 5.39.738 10.78 1.211 16.17.568 6.635 1.212 13.271 1.874 19.886.341 3.366.644 6.736 1.306 10.046.076.41.114.82.379 1.14.113.15.246.29.454.25a.486.486 0 0 0 .397-.39c.057-.25.038-.49.057-.69l-.019.02Zm-39.804-65.542c.341 8.085 1.06 16.129 2.007 24.153a438.606 438.606 0 0 0 4.107 27.685c.662 3.654 1.268 7.334 2.177 10.944.113.43.17.9.492 1.22.321.33.605.23.776-.16.17-.35.037-.69-.019-1.04-.246-1.39-.492-2.78-.757-4.17-1.817-9.55-3.407-19.146-4.656-28.783-.852-6.513-1.571-13.026-2.082-19.579-.417-5.084-.814-10.168-.663-15.272.095-2.797.473-5.553 1.666-8.085.132-.245.208-.551.265-.837a.562.562 0 0 0-.322-.613c-.189-.081-.379-.061-.511.102a5.185 5.185 0 0 0-.606.837c-.681 1.164-1.079 2.45-1.363 3.778-.643 3.246-.586 6.533-.511 9.82Zm110.572 31.237h.038a170.665 170.665 0 0 1-.265-3.164c-.757-10.066-1.495-20.131-2.233-30.196-.795-10.719-1.571-21.438-2.366-32.157a45.85 45.85 0 0 0-.227-2.266c-.057-.449-.303-.776-.738-.694-.36.041-.549.367-.587.755a3.08 3.08 0 0 0 0 .592l.284 3.941c.53 7.084 1.079 14.189 1.609 21.274.397 5.451.795 10.882 1.192 16.313.53 7.248 1.079 14.516 1.628 21.744.132 1.817.284 3.634.416 5.431.057.51.114 1.122.738 1.082.701-.041.663-.695.625-1.266-.038-.449-.076-.899-.114-1.368v-.021Zm-40.806-37.709c.038.245.075.49.075.735.209 2.715.436 5.431.625 8.167.7 10.82 1.249 21.662 2.252 32.462l2.044 21.376c.057.514.152 1.004.322 1.474.133.38.417.73.852.63.435-.12.511-.53.435-.96-.473-2.9-.605-5.819-.908-8.739-.814-7.513-1.552-15.047-2.101-22.601-.644-9.065-1.174-18.13-1.779-27.195-.114-1.858-.265-3.716-.606-5.553-.076-.388-.227-.837-.719-.756-.454.062-.492.511-.492.939v.021Zm-19.912-20.233c-.189.061-.492.143-.795.265-3.974 1.593-6.662 4.512-7.911 8.943-1.136 3.981-1.514 8.105-1.685 12.25-.283 7.962.265 15.864.909 23.765.132 1.715.378 3.409.587 5.124.038.348.227.756.586.735.474 0 .568-.449.587-.877 0-.184-.019-.388-.038-.613-.265-3.614-.549-7.248-.795-10.862-.53-7.166-.795-14.332-.151-21.498.246-2.859.681-5.697 1.59-8.432.852-2.593 2.385-4.553 4.542-5.962.663-.429 1.401-.776 2.12-1.164.322-.184.644-.388.946-.612.19-.164.303-.409.209-.674-.095-.245-.284-.388-.701-.388Zm12.663-14.414c.416.551.719 1.021 1.06 1.429 2.157 2.552 4.807 3.328 7.873 2.389 2.12-.633 3.672-2.103 5.016-3.941.284-.367.397-.918.946-1.082 1.306 1.144 2.801 1.736 4.524 1.634.416-.021.833-.062 1.211-.286.322-.184.549-.429.454-.837-.075-.327-.359-.429-.662-.429-.511.02-1.022.061-1.533.041-2.423-.082-4.145-1.777-4.448-4.349-.17-1.47-.189-2.92.549-4.267.189-.347.17-.694-.152-.939-.321-.245-.624-.123-.889.122-.379.347-.549.817-.681 1.307-.474 1.96-.436 3.899.246 5.798.17.49.283.899-.019 1.409-1.041 1.715-2.291 3.185-4.051 4.042-2.971 1.47-6.056.511-7.892-2.368-.455-.694-.682-1.368-.492-2.266.359-1.695-.076-3.308-.72-4.839-.151-.367-.359-.714-.7-.939-.246-.163-.511-.286-.776-.061-.246.204-.284.49-.151.816.246.592.53 1.164.738 1.797 1.06 3.389-.492 6.186-3.767 6.84-.322.061-.643.122-.946.204-.303.081-.511.286-.492.633 0 .449.284.612.643.653.511.061 1.003 0 1.533-.122 1.42-.327 2.537-1.164 3.597-2.389h-.019Zm12.132 36.627c.038 3.492.397 8.085.681 12.659.152 2.123.284 4.226.644 6.308.094.511.019 1.327.719 1.287.852-.082.53-.94.492-1.47-.189-2.961-.435-5.942-.643-8.902-.341-5.39-.701-10.78-.606-16.19.038-3.226.284-6.452.984-9.617.719-3.226 2.423-5.492 5.262-6.758.416-.204.852-.408 1.249-.633.303-.183.587-.408.416-.837-.132-.326-.435-.388-.719-.347a5.812 5.812 0 0 0-.814.184c-2.933 1.103-5.129 3.063-6.227 6.288a22.093 22.093 0 0 0-.832 3.349c-.758 4.491-.814 9.044-.606 14.679Zm30.094 47.898h-.133c0-.286.019-.592 0-.899-.416-9.432-1.022-18.844-1.949-28.236-.265-2.654-.606-5.308-.946-7.962-.057-.531-.019-1.429-.833-1.287-.757.143-.511.96-.473 1.532.208 2.143.454 4.308.681 6.451a384.21 384.21 0 0 1 1.912 25.521c.189 4.165.321 8.371.473 12.556.019.348.019.715.076 1.062.056.266.227.429.473.47a.543.543 0 0 0 .53-.429c.094-.429.151-.898.151-1.327.019-2.491 0-4.941 0-7.432l.038-.02Zm-63.387-12.495c.133 2.246.246 4.369.398 6.472.624 8.779 1.627 17.497 2.763 26.199.151 1.14.341 2.28.549 3.43.057.4.246.83.7.75.473-.08.511-.55.492-.96-.057-.79-.113-1.61-.208-2.41-.416-3.31-.871-6.59-1.268-9.9-.928-7.922-1.666-15.864-2.044-23.847-.038-.694-.152-1.388-.265-2.082-.057-.368-.284-.694-.663-.633-.302.061-.454.347-.454.674v2.307Zm40.144 27.461c-.075-.49-.151-1.14-.227-1.8a580.985 580.985 0 0 1-1.817-16.208 663.048 663.048 0 0 1-1.438-16.272c-.038-.552-.152-1.082-.265-1.634-.057-.265-.284-.388-.53-.388-.265 0-.435.205-.492.45a4.973 4.973 0 0 0-.057 1.061c.114 1.96.189 3.92.36 5.88.624 7.289 1.325 14.557 2.176 21.805.303 2.511.511 5.023 1.06 7.476.114.53.171 1.28.814 1.18.7-.12.435-.88.398-1.53l.018-.02Zm-16.864-177.054c3.691 0 6.909 0 10.126.224.53.041 1.306.245 1.344-.592.038-.714-.7-.694-1.192-.755-1.514-.143-3.066-.306-4.599-.347-4.751-.123-9.521-.041-14.253.327-3.539.265-7.078.571-10.58 1.163a7.702 7.702 0 0 0-1.495.388c-.303.123-.568.388-.454.817.094.367.378.408.681.388a15.346 15.346 0 0 0 1.666-.143c6.378-.939 12.794-1.368 18.756-1.47ZM957.73 941.27c-.322-4.757-.871-9.78-1.798-14.741-.492-2.736-1.174-5.411-2.347-7.901-.341-.776-.719-1.532-1.344-2.103-.303-.266-.662-.511-1.003-.205-.397.327-.189.715.038 1.062 1.779 2.695 2.574 5.798 3.218 8.983 1.022 5.186 1.552 10.454 1.911 15.762.019.388.038.796.114 1.184.057.307.246.572.586.531.265-.02.379-.245.455-.49.189-.592.17-1.204.17-2.082Zm8.328 44.406c.076-1.266.151-2.532-.114-3.777-.056-.306-.208-.613-.511-.633-.397-.021-.605.286-.624.674a66.125 66.125 0 0 0-.076 1.98 53.295 53.295 0 0 1-1.382 11.086c-.757 3.165-2.422 5.514-4.996 7.164-.246.15-.492.31-.72.47-.265.21-.53.47-.283.88.208.35.511.37.851.25a6.478 6.478 0 0 0 1.628-.88c2.309-1.66 3.88-3.882 4.656-6.781.927-3.41 1.438-6.901 1.59-10.454l-.019.021Zm-25.324-160.393c-.436-.021-.53-.041-.625-.041-.435.02-1.041-.123-1.136.551-.094.817.606.735 1.06.919.133.041.284.041.417.061.889.102 1.779.204 2.649.327 1.836.285 3.691.571 5.451 1.265 1.534.613 2.65 1.654 3.086 3.43.435 1.756.908 3.492 1.419 5.227.17.592.095 1.756.984 1.47.757-.224.379-1.225.265-1.878-.265-1.634-.833-3.206-1.211-4.819-.644-2.756-2.309-4.267-4.713-5.042-2.612-.858-5.3-1.144-7.646-1.47Zm-68.8 190.097c.416-.02.927.02 1.022-.55.075-.61-.417-.71-.814-.82-.492-.16-1.003-.24-1.495-.38-2.48-.78-4.808-1.86-6.89-3.58-1.722-1.38-3.009-3.12-3.729-5.35-.246-.81-.548-1.61-.851-2.4-.114-.35-.341-.68-.72-.6-.492.11-.416.57-.397.98.019.15.038.31.057.45.681 2.74 1.703 5.23 3.71 7.17 2.555 2.47 5.564 3.98 8.857 4.88.417.1.833.14 1.25.22v-.02Zm-22.599-108.921h.094c0 1.491-.019 3.022.019 4.533 0 .714.189 1.388.53 2.001.795 1.367 2.234 1.429 3.123.163.284-.408.454-.878.549-1.368a11.02 11.02 0 0 0 .038-4.655c-.114-.551-.114-1.429-.852-1.286-.738.143-.416.98-.397 1.531.075 1.225.189 2.43-.038 3.614-.095.571-.152 1.449-.795 1.429-.738-.021-.719-.919-.795-1.531-.227-1.858-.151-3.737-.189-5.595 0-.796-.057-1.612-.152-2.409-.057-.449-.189-.98-.738-.939-.568.041-.587.572-.568 1.021l.171 3.491Zm23.147 14.231c-3.861.02-7.286 1.225-10.523 3.144-.36.224-.681.531-.984.837-.227.245-.436.592-.171.959.246.327.568.307.871.103.379-.225.738-.47 1.098-.674 4.296-2.471 8.782-3.614 13.627-2.328.53.143 1.212.531 1.439-.265.189-.756-.549-.96-1.06-1.143-1.439-.511-2.934-.593-4.297-.633Zm38.195-4.349h-.416c-.473.041-1.041.061-1.098.653-.057.674.53.715 1.003.796.776.103 1.552.184 2.347.307 3.35.551 6.17 2.103 8.29 5.022.114.164.227.347.36.49.208.225.454.368.738.204.36-.204.36-.551.246-.918-.322-.919-.908-1.634-1.571-2.287-2.801-2.777-6.17-4.022-9.88-4.267h-.019Zm-64.56-50.388c-.625-.776-.757-1.511-.89-2.246-.189-1.103-.302-2.205-.056-3.308.075-.306.019-.633-.284-.776-.36-.163-.625.041-.833.347-.076.123-.17.266-.189.409-.36 2.246-.171 4.43 1.003 6.39.624 1.041 1.722.98 2.441-.02.909-1.246 1.174-4.308.474-5.656-.038-.081-.076-.183-.133-.265-.189-.265-.416-.408-.719-.286-.246.102-.341.347-.322.613.038.388.095.796.152 1.184.113 1.204.094 2.389-.663 3.593l.019.021Zm111.481-12.516c-.019-.163-.038-.367-.076-.572-.606-2.96-1.193-5.9-1.817-8.86a3.096 3.096 0 0 0-.284-.837c-.114-.266-.341-.388-.587-.327-.246.061-.397.265-.378.551.019.449.019.919.113 1.348.454 2.49.928 4.961 1.42 7.431.094.531.246 1.062.397 1.593.133.408.379.735.833.592.397-.143.379-.531.379-.919Zm-110.326 24.092c.037-.409.056-.654.056-.899.019-.367-.019-.755-.378-.877-.473-.164-.719.245-.795.632-.322 1.348-.341 2.716.265 3.982.454.898 1.249 1.143 2.006.714 1.287-.735 2.044-3.43 1.325-4.838-.17-.348-.379-.735-.833-.654-.53.123-.416.592-.378.98.113.756.17 1.511-.133 2.226-.132.326-.246.755-.605.755-.436 0-.379-.51-.436-.817-.075-.449-.075-.898-.094-1.204Zm-4.808 8.35c-.095-.98-.208-1.98-.322-2.981-.189-1.694-.359-3.389-.567-5.083-.076-.572-.076-1.43-.776-1.389-.776.021-.625.878-.568 1.45.284 2.736.568 5.492.927 8.228.076.571.038 1.572.909 1.368.738-.164.302-1.021.397-1.593Zm102.85-49.531c-.53-.857-.681-1.613-.719-2.429a12.325 12.325 0 0 0-.095-1.205c-.038-.245-.189-.469-.454-.49-.265-.041-.454.082-.568.327-.076.163-.189.347-.208.551-.152 1.491.094 2.92.908 4.145.682 1.082 1.779 1.041 2.366-.082.663-1.225.833-2.552.322-3.9-.114-.326-.284-.632-.549-.857a.486.486 0 0 0-.643-.061c-.19.102-.265.306-.228.51.038.286.133.592.19.878.208.837.227 1.674-.322 2.593v.02Zm5.148 7.391c-.038.143-.057.388-.132.633-.114.327-.209.694-.606.715-.379.02-.568-.266-.757-.572-.189-.347-.227-.755-.246-1.164-.038-.388-.208-.735-.606-.673-.322.02-.568.285-.681.673-.379 1.287.87 3.267 2.138 3.349 1.06.081 1.969-.919 2.215-2.471.246-1.449-.36-2.858-1.325-3.144-.322-.102-.662-.122-.89.204-.264.388-.037.694.228.899.454.367.643.837.662 1.551ZM858.06 997.293c-.057-.327-.114-.735-.189-1.123-.265-1.45-.53-2.879-.814-4.287-.095-.429-.341-.756-.795-.674-.416.081-.53.469-.492.816.246 1.899.53 3.778 1.098 5.615.113.347.34.613.738.531.397-.082.435-.449.454-.858v-.02Zm86.364-81.932v-.041c.644.041 1.306.061 1.95.123.511.04 1.003.142 1.514.204.303.02.549-.143.625-.47.075-.347-.114-.572-.379-.714a2.474 2.474 0 0 0-.53-.245c-1.401-.409-2.839-.45-4.277-.307-.265.021-.53.143-.795.266-.265.122-.455.367-.398.694.057.347.303.49.606.49.568.02 1.117 0 1.684 0Zm-21.728 11.188c.133 1.246.435 2.43.871 3.594.151.387.34.775.795.612.359-.143.435-.531.34-.898a84.609 84.609 0 0 0-.87-3.614c-.114-.368-.341-.776-.795-.592-.379.143-.36.531-.341.898Zm-39.898.164c-.057-.797-2.234-2.981-2.972-2.961-.397.021-.662.511-.416.878a10.85 10.85 0 0 0 2.65 2.634c.359.245.757-.102.738-.551Zm70.484 79.177c.246-.04.53-.08.795-.19.417-.14.795-.4.644-.98-.114-.44-.53-.51-.928-.4-.265.04-.549.12-.795.22-.359.14-.719.35-.624.84.075.51.511.51.908.51Zm-17.753-180.036c.435-.02 1.097.082 1.135-.653.038-.715-.681-.674-1.154-.756-.871-.122-1.477.164-1.496.633-.019.47.53.756 1.515.776Z"/>
  <mask id="b" width="86" height="105" x="973" y="930" maskUnits="userSpaceOnUse" style="mask-type:luminance">
    <path fill="#fff" d="M973.912 930.347h84.638v104.533h-84.638V930.347Z"/>
  </mask>
  <g mask="url(#b)">
    <path fill="#FDBB27" d="M1045.27 1011.24c-2.27-2.45-4.72-4.56-7.21-6.58-.88-.69-1.77-1.34-2.64-2a6.93 6.93 0 0 0-.98-.57c-.36-.18-.76-.28-.98.18-.19.41.09.68.34.88.6.49 1.21.96 1.81 1.43 2.46 1.92 4.89 3.9 7.14 6.11 1 1 1.95 2.04 2.67 3.28.62 1.15.7 2.27.05 3.45-.3.56-.6.66-1.11.33-1.55-1.02-3.14-1.98-4.7-3a67.208 67.208 0 0 1-6.58-4.9c-.21-.18-.44-.37-.67-.53-.39-.31-.85-.94-1.3-.29-.42.57.17 1 .53 1.37.45.49.96.96 1.49 1.37 3.05 2.51 6.31 4.67 9.64 6.72 3.14 1.91 6.26 3.79 9.39 5.71 1.3.8 2.57 1.66 3.63 2.84 1.02 1.16.95 1.78-.36 2.55-1.97 1.13-4.07 1-6.15.59-3.39-.67-6.53-2.08-9.46-4-3.17-2.06-6.21-4.31-9.18-6.67-.97-.78-1.99-1.49-3.09-2.09-.95-.51-1.91-.75-2.97-.53-.36.08-.74.08-1.1.17-2.63.57-4.9-.15-6.81-2.19-.34-.35-.78-1-1.27-.45-.55.59.06 1.13.42 1.53 1.79 2.09 4.03 2.98 6.66 2.74.38-.04.76-.06 1.11-.16 2.48-.78 4.28.65 6.19 2.18-.7.86-1.3 1.68-2 2.41-3.39 3.57-8.1 4.08-12.04 1.25-3.8-2.74-6-6.68-6.98-11.46-.44-2.08-.48-4.2-.53-6.33-.1-3.77-1.27-7.102-3.39-10.083-2.46-3.492-5.15-6.779-7.876-10.045a12981.95 12981.95 0 0 0-20.971-25.052c-.568-.673-.852-1.327-.889-2.245-.284-6.432 1.003-12.557 2.971-18.559.795-2.471 1.704-4.9 2.801-7.248.606.204.871.796 1.231 1.225 9.085 11.147 17.983 22.438 26.873 33.749 3.85 4.9 7.82 9.657 11.91 14.312a39.858 39.858 0 0 0 6.4 5.839c4.35 3.226 8.51 6.737 12.41 10.576 1.95 1.921 3.71 4.001 5 6.511.51.96.94 1.96 1.17 3.06.19.94.02 1.78-.6 2.62Z"/>
  </g>
  <path fill="#FDBB27" d="M764.124 869.26c.643.368 1.249.796 1.93 1.123 2.499 1.286 4.353.735 5.924-1.756.701-1.102 1.098-2.327 1.231-3.654.037-.348-.038-.715.208-1.062 2.044.429 4.05.143 6.019-.388.397.347.094.674.056.98-.321 2.511-.208 4.961.757 7.289 1.136 2.736 3.01 4.573 5.66 5.471a3.362 3.362 0 0 0 1.798.143c.359-.081.757-.245.719-.776-.038-.449-.397-.51-.719-.551-.663-.081-1.306-.163-1.912-.429-2.744-1.204-4.296-3.47-4.864-6.533-.341-1.756-.303-3.512.17-5.267.189-.715.53-1.225 1.23-1.491.644-.245 1.269-.612 1.893-.959.341-.184.625-.45.776-.837.171-.49-.17-.98-.624-.858-.417.123-.757.388-1.136.592-2.631 1.348-5.337 2.45-8.309 2.307-2.366-.122-4.221-1.184-5.489-3.369-.624-1.082-.568-1.49.322-2.347 1.003-.94 2.139-1.634 3.331-2.185 2.498-1.164 4.959-2.368 7.457-3.491 2.896-1.327 5.735-1.082 8.442.653 3.255 2.083 5.243 5.084 5.678 9.208a8.376 8.376 0 0 1-.379 3.43c-.416 1.245-.795 2.491-1.325 3.675-.378.857-.34 1.592 0 2.43.985 2.307 2.064 4.532 3.18 6.757 10.637 21.234 23.773 40.466 39.293 57.8.473.51.795 1.041.852 1.817.567 7.33-.606 14.394-2.574 21.336-.19.673-.36 1.367-.966 2.082-.454-.551-.87-1.102-1.306-1.592-6.075-6.942-11.678-14.313-17.394-21.581-11.81-15.067-22.485-30.992-31.93-47.877-.549-1-1.116-2.001-1.646-3.001-.265-.49-.663-.939-.228-1.634.265-.387-.056-.775-.492-.857-.359-.082-.738-.082-1.116-.102-6.549-.408-13.363-6.881-14.593-13.863-.038-.184-.076-.388.095-.633h-.019Zm52.315 281.32c-2.707-.04-5.376.06-8.007-.41-1.249-.22-2.441-.71-3.653-1.06-.492-.16-.643-.47-.662-.98-.132-2.67-.454-5.35-.36-8.02.114-3.37 1.344-6.17 3.786-8.27 1.949-1.68 4.107-3 6.359-4.1 3.786-1.86 7.571-3.66 11.357-5.5a74.969 74.969 0 0 0 3.539-1.81c.511-.29.889-.33 1.419-.02 1.439.83 2.877 1.65 4.259 2.61 2.366 1.61 4.315 3.65 5.867 6.19 2.404 3.92 4.675 7.9 5.792 12.53.379 1.57.644 3.15.776 4.76.057.63-.113.9-.738.96-2.877.34-5.735.75-8.612 1.1-4.58.59-9.179 1.14-13.76 1.69-2.46.31-4.94.25-7.362.33Zm138.49 12.33a39.68 39.68 0 0 1-8.214-.73c-1.155-.23-1.174-.25-1.344-1.47-.454-3.37-.473-6.74-.133-10.13.209-2.2 1.117-4.04 2.745-5.41 3.464-2.94 7.06-5.63 10.978-7.78 3.747-2.02 7.741-2.33 11.867-2 4.675.35 7.949 3.15 10.807 6.76 2.385 2.96 4.07 6.39 5.376 10.04.454 1.31.416 1.31-.739 1.88-8.384 4.09-17.185 6.62-26.195 8.31-1.703.33-3.425.37-5.148.51v.02ZM786.004 849.068c-2.915-.592-5.451.286-7.912 1.654-1.097.612-1.135.571-1.741-.49-3.218-5.574-5.716-11.454-6.568-18.028-.378-2.859-.435-5.737.133-8.596.246-1.184.624-2.327 1.382-3.266.87-1.103 1.57-1.062 2.365.102.701 1.041 1.136 2.205 1.571 3.369 1.363 3.715 2.688 7.431 4.07 11.127 1.779 4.798 3.785 9.453 6.624 13.638.038.061.019.163.076.49Z"/>
  <mask id="c" width="20" height="27" x="756" y="846" maskUnits="userSpaceOnUse" style="mask-type:luminance">
    <path fill="#fff" d="M756.932 846.72h18.321v26.133h-18.321V846.72Z"/>
  </mask>
  <g mask="url(#c)">
    <path fill="#FDBB27" d="M764.446 847.618c.435 3.267 1.533 6.023 3.274 8.453.284.388.247.674.076 1.082-.397.96-.227 1.837.341 2.695.814 1.327 1.76 2.491 3.085 3.205.492.266.662.572.644 1.164-.019 1.756-.625 3.226-1.723 4.492-.719.796-1.552 1.061-2.555.714-.265-.102-.549-.163-.776-.306-3.464-1.98-6.095-4.859-7.438-8.861-.852-2.531-.701-5.186.227-7.697.851-2.348 2.441-3.981 4.845-4.941Z"/>
  </g>
  <path fill="#FDBB27" d="M775.708 851.865c-1.117.51-2.195.98-3.255 1.47-1.022.49-2.007 1.062-2.915 1.797-.341.306-.606.367-.909-.102-2.006-3.185-3.255-6.595-2.649-10.535.397-2.491 1.741-4.267 3.709-5.758 1.59 4.676 3.445 9.045 6.019 13.108v.02Z"/>
  <mask id="d" width="303" height="412" x="756" y="774" maskUnits="userSpaceOnUse" style="mask-type:luminance">
    <path fill="#fff" d="M756.932 774.016h301.618v411.604H756.932V774.016Z"/>
  </mask>
  <g mask="url(#d)">
    <path fill="#070605" d="M1046.21 1018.85c2.39 1.47 4.62 2.82 6.85 4.19 1.29.81 2.54 1.69 3.6 2.86 1.89 2.04 1.63 3.81-.78 5.12-2.1 1.12-4.33 1.1-6.56.7-3.45-.62-6.65-1.99-9.66-3.88-2.67-1.68-5.18-3.58-7.74-5.43-1.04-.78-1.02-.78-1.8.22-2.53 3.27-5.64 5.23-9.71 5.02-2.02-.08-3.84-.83-5.48-2.04-4.19-3.08-6.61-7.43-7.61-12.76-.4-2.08-.42-4.23-.5-6.33-.13-3.25-1.07-6.12-2.85-8.717-2.2-3.205-4.64-6.206-7.12-9.167-7.495-9.004-15.028-17.987-22.542-26.991-.208-.245-.359-.612-.814-.633.114 2.022.209 4.023.322 6.023.511 8.412 1.041 16.844 1.533 25.256.227 4.001.057 7.959-.662 11.919-.663 3.66-2.442 6.52-5.129 8.76-2.631 2.21-5.622 3.74-8.631 5.23-3.445 1.69-7.041 2.88-10.637 4.12-1.06.37-1.155.17-1.098 1.62.114 2.73.114 5.47.114 8.18.037 5.13.113 10.21.624 15.3.473 4.79 1.987 9.08 4.978 12.76 6.303 7.73 13.022 15.04 19.798 22.29.132.14.284.25.492.41.378-.39.719-.78 1.098-1.14 2.006-1.88 4.353-1.8 6.283.16.814.86 1.401 1.9 1.836 3.02.663 1.7 1.761 2.76 3.369 3.35 5.319 1.98 9.994 5.14 14.136 9.25 1.9 1.88 3.94 3.57 6.08 5.1 1.42 1 2.72 2.13 3.99 3.33.8.78 1.55 1.61 2.22 2.53 1.4 1.94 1.95 4.06 1.42 6.51-.99 4.76-2.73 9.13-5.27 13.13-1.28 2-3.06 3.21-5.31 3.53-1.08.17-1.27.47-1.03 1.6.1.43.25.9.5 1.24 1.62 2.33 1.53 4.88 1.02 7.54-.49 2.57-.95 5.14-1.42 7.71-.27 1.41-.27 1.39.96 1.66 4.91.98 9.79 2.04 14.5 3.92 1.5.59 2.94 1.24 4.32 2.1.77.49 1.51 1.02 2.15 1.67 2.09 2.11 2.14 4.39.18 6.6-.76.86-1.63 1.51-2.56 2.1-2.18 1.41-4.5 2.43-6.87 3.33-6.09 2.31-12.36 3.82-18.681 5.12-9.71 2.03-19.495 3.48-29.319 4.62-7.249.86-14.498 1.53-21.747 2.12-23.242 1.86-46.504 2.41-69.803 1.96-8.725-.18-17.432-.57-26.138-1.2-8.479-.61-16.94-1.41-25.344-2.7-7.154-1.08-14.271-2.37-21.179-4.8-2.044-.71-4.031-1.55-5.886-2.73-1.003-.65-1.969-1.39-2.688-2.41-1.136-1.59-1.173-3.23-.095-4.9.625-.96 1.439-1.69 2.347-2.37 1.534-1.12 3.218-2 4.94-2.78.511-.22 1.06-.34 1.533-.77-1.305-2.98-1.589-6.21-1.798-9.43-.208-3.33-.605-6.64-.586-9.99 0-1.3.113-2.61.454-3.88.7-2.61 2.006-4.75 3.994-6.43a31.854 31.854 0 0 1 6.359-4.08c3.899-1.92 7.798-3.86 11.754-5.68 5.261-2.41 9.615-6.12 13.23-10.88 1.116-1.49 2.195-3 3.274-4.53.795-1.14 1.704-2.02 3.066-2.02.228-.49-.113-.7-.302-.94-3.956-5.58-7.685-11.33-11.754-16.8-1.344-1.8-2.499-3.76-3.71-5.68-1.76-2.78-2.385-5.88-2.517-9.17-.189-4.47.852-8.59 2.858-12.47 1.722-3.37 3.88-6.41 6.151-9.37 3.937-5.11 8.233-9.78 12.643-14.4 3.18-3.33 6.36-6.67 9.577-10-.113-.19-.17-.33-.264-.41-1.912-1.41-3.123-3.43-4.07-5.68-1.419-3.34-2.46-6.86-3.388-10.41-.7-2.71-1.363-5.45-2.044-8.185-.322-1.286-.322-1.286-1.571-1.225-5.545.265-10.996-.327-16.353-1.899-.624-.184-1.23-.429-1.855-.653-3.407-1.225-6.018-3.532-7.911-6.84-2.442-4.267-4.372-8.799-5.849-13.556-1.873-5.982-3.066-12.169-4.183-18.355-1.343-7.493-2.252-15.047-2.99-22.642-.114-1.164-.189-2.328-.095-3.471.057-.796-.189-1.327-.605-1.899-9.483-12.597-17.886-25.99-25.703-39.853-.663-1.143-1.42-2.266-1.742-3.614-.132-.49-.435-.592-.832-.633-4.391-.408-7.817-2.858-10.808-6.104-2.801-3.022-4.41-6.738-4.788-11.005-.038-.469-.227-.735-.492-1.021a20.16 20.16 0 0 1-2.234-2.899c-2.195-3.409-2.687-7.125-1.722-11.004.852-3.39 2.801-5.799 5.962-6.86.454-.143.587-.347.606-.817.189-3.491 1.722-6.125 4.466-7.922.379-.245.341-.49.246-.857a31.308 31.308 0 0 1-.87-4.757c-.322-3.185-.417-6.35.416-9.474.303-1.143.738-2.184 1.439-3.083 1.495-1.898 3.16-1.857 4.542.123.719 1 1.192 2.164 1.628 3.328 1.419 3.859 2.782 7.717 4.221 11.556 1.93 5.165 4.145 10.167 7.324 14.577.417.592.852 1.021 1.439 1.389 3.293 1.98 5.564 4.859 6.435 8.901.416 1.919.397 3.818-.189 5.676-.417 1.286-.852 2.573-1.363 3.818-.227.551-.284.96-.019 1.531 4.656 9.637 9.71 19.008 15.293 28.012.133.204.208.469.587.49 1.363-4.88 4.959-7.391 8.801-9.31.17-.266.151-.347.038-.408-4.77-3.206-6.946-7.881-6.473-13.904.113-1.491-.152-2.287-1.382-3.083-3.35-2.246-5.016-5.758-5.602-9.882-.852-5.757.586-10.698 4.542-14.72.341-.347.719-.551.246-1.205-4.353-5.921-4.637-12.474-2.252-19.294 2.29-6.615 6.719-10.657 13.097-12.127 1.798-.408 3.616-.47 5.414.02.53.143.832.102 1.003-.571.946-3.532 3.293-5.268 6.511-5.758 1.022-.143 1.457-.449 1.798-1.674 2.082-7.452 6.492-12.577 13.438-14.986 3.161-1.102 6.17-.633 9.009 1.144.53.326.852.347 1.363.02 1.912-1.184 3.539-2.981 4.694-5.063 2.328-4.165 5.621-6.82 10.164-7.391 1.173-.164 2.366-.082 3.463.326.909.327 1.363.021 2.007-.653 2.555-2.736 5.545-4.634 9.16-5.104 3.71-.49 6.928.674 9.445 3.736.587.735.927.633 1.59.245 3.255-1.858 6.454-1.715 9.482.613.322.265.549.469.928.041 4.694-5.003 10.258-5.574 16.22-3.614 4.883 1.592 8.839 4.716 11.792 9.249 1.457 2.205 1.874 3.43 2.706 7.39.076.021.171.082.228.062 7.911-2.94 15.444 1.551 17.45 10.392a14.937 14.937 0 0 1 0 6.472c-.113.51-.189.898.436 1.164 3.899 1.735 5.81 5.185 6.757 9.412.473 2.123.511 4.287.132 6.472-.568 3.123-2.233 5.369-4.807 6.88-1.136.674-1.155.674-.871 2.021 1.173 5.411 2.347 10.821 3.18 16.293.265 1.694.454 3.409.492 5.124 0 .695.151 1.123.87 1.266.625.102 1.212.449 1.78.858 1.438 1.041 2.517 2.348 2.725 4.328.189 1.878.189 3.675-.246 5.553-.625 2.736-1.211 5.493-2.195 8.126-.095.225-.095.449-.057.715.511 3.695.643 7.432.946 11.168.568 7.044 1.098 14.087 1.628 21.131.151 2.083.284 4.145.435 6.207.057.653.189 1.225.644 1.776 14.365 17.885 28.75 35.75 42.944 53.777 3.01 3.798 6.19 7.432 9.43 11.005 1.23 1.388 2.63 2.552 4.1 3.634 4.75 3.573 9.37 7.371 13.65 11.597 1.72 1.715 3.27 3.597 4.52 5.757.63 1.08 1.16 2.18 1.54 3.41.47 1.55.45 3.08-.44 4.49-.23.35-.36.63-.09 1.06 1.13 1.94 1.15 3.9-.25 5.9l-.02-.04ZM838.734 855.234c-.606.551-1.004.898-1.401 1.245a6.817 6.817 0 0 1-2.877 1.491c-.568.142-1.325-.245-1.722.285-.398.552.132 1.246.132 1.899.076 4.512.644 8.963 1.117 13.434.965 9.045 1.438 18.13 2.252 27.175.606 6.942 1.193 13.883 1.817 20.825.587 6.697 1.211 13.373 1.836 20.049a446.238 446.238 0 0 0 1.836 15.945c.833 6.452 1.931 12.863 2.915 19.294 1.628 10.515 3.709 20.927 6.492 31.134 1.003 3.64 2.063 7.25 3.596 10.66 1.022 2.27 2.555 3.94 4.599 5.12.833.49 1.76.62 2.612.96 2.934 1.23 5.981 1.94 9.047 2.56 7.42 1.47 14.896 2.1 22.41 2.22 8.271.14 16.523-.24 24.719-1.43 6.757-.96 13.438-2.37 20.1-3.94 7.193-1.69 14.29-3.82 21.123-6.88 3.312-1.51 6.568-3.14 9.445-5.53 2.593-2.17 4.145-4.98 4.675-8.5.492-3.16.719-6.325.548-9.51-.435-7.615-.908-15.23-1.343-22.846-.568-10.147-1.155-20.274-1.95-30.4l-2.101-26.746c-.738-9.616-1.457-19.233-2.195-28.849-.114-1.429-.246-2.858-.398-4.614-.795 1.347-1.4 2.409-2.063 3.43-2.271 3.552-5.091 6.452-8.82 8.146-4.523 2.083-8.971 1.756-13.097-1.102-2.291-1.572-4.316-3.532-6.133-5.737-1.381-1.715-2.82-3.369-4.277-5.002-2.461-2.757-5.47-3.614-8.82-3.104-3.142.49-5.527 2.124-6.284 5.737-.114.531-.303 1.062-.492 1.572-2.536 7.432-6.965 12.965-13.76 16.068-4.145 1.899-8.328 1.94-12.473-.183-3.596-1.838-6.795-4.247-9.388-7.493-3.426-4.308-5.432-9.392-6.643-14.864-.284-1.245-.341-2.511-.265-3.777.189-3.287 1.514-5.186 4.41-6.268 1.23-.469 2.517-.735 3.823-.878 3.236-.347 6.492-.694 9.747-1 5.66-.51 11.262-.204 16.864.755 2.934.511 5.186 2.124 7.041 4.553.265.347.436.776.833 1.021 1.931-1.756 4.107-2.919 6.719-2.981 1.514-.02 2.972.266 4.353.899.587.265.928.183 1.231-.47.605-1.307 1.608-2.205 2.706-2.981 1.458-1.021 2.972-1.939 4.581-2.593 8.422-3.43 17.034-5.941 26.119-6.043.946-.02.946-.041.908-1.143-.056-2.226-.378-4.431-.776-6.595a389.623 389.623 0 0 0-5.167-24.357c-.567-2.348-1.798-3.838-3.993-4.553-6.738-2.185-13.628-3.41-20.631-3.859-8.214-.551-16.41-.469-24.605.531-3.804.47-7.514 1.409-11.148 2.756-.511.184-.814.429-.946 1.103-1.723 8.309-6.038 14.782-12.379 19.682-2.422 1.878-5.167 3.001-8.157 3.327-2.366.266-4.562-.163-6.436-1.878-.246-.224-.454-.531-.87-.469-.871 1.286-1.723 2.592-2.839 3.695-2.12 2.103-4.562 2.858-7.382 2.103-1.098-.306-2.025-.98-2.933-1.695-1.231 3.634-2.518 5.901-4.467 7.82-1.912 1.878-4.107 2.715-6.682 2.368-1.135-.143-2.119-.674-3.198-1.245-.208.694-.133 1.286-.114 1.878.227 4.594.473 9.188.719 13.781.019.45.038.899.019 1.348-.019.388-.151.755-.549.755-.321 0-.473-.306-.548-.612a4.918 4.918 0 0 1-.114-.735c-.114-1.327-.246-2.614-.322-3.941-.265-4.165-.624-8.33-.624-12.821h.038Zm-25.779-8.167c-.7.306-1.211.755-1.685 1.205-4.145 4.022-5.432 9.003-4.22 14.822.795 3.879 2.763 6.799 6.075 8.575 1.079.592 1.06.592.833 1.96-.814 4.757.303 8.902 3.445 12.373.776.837 1.646 1.49 2.65 1.939.776.327 1.495.368 2.29.021 3.388-1.43 6.851-2.593 10.41-3.41.548-.122.795-.286.738-.96-.265-3.654-.625-7.329-1.022-11.004-.057-.551-.284-.817-.795-1.041-1.76-.797-3.464-1.777-4.675-3.451-.36-.49-.757-.367-1.136-.245-.757.245-1.476.143-2.214-.061-.511-.163-1.098-.408-.966-1.062.133-.755.795-.551 1.268-.388 1.306.409 2.404-.04 3.426-.796 1.874-1.409 3.104-3.328 3.691-5.717.454-1.919.416-1.96-1.268-2.715-.738-.327-1.438-.715-2.082-1.225-.53-.429-1.022-.898-1.401-1.47-.284-.449-.7-.98-.132-1.47.511-.408.852.082 1.154.47 1.212 1.613 2.858 2.348 4.656 2.878 1.78.552 3.294.082 4.675-1.163a12.22 12.22 0 0 0 1.609-1.879c.776-1.082 1.003-1.102 1.761-.041a4.968 4.968 0 0 0 2.517 1.818c2.309.755 4.448.347 6.265-1.389 2.347-2.225 3.955-4.961 4.504-8.33.076-.449.152-.898.284-1.327.189-.572.701-.694 1.079-.265.189.224.303.51.416.776.493 1.286 1.439 1.939 2.612 2.307 2.177.673 4.145.204 5.887-1.368 1.23-1.123 2.176-2.512 3.047-3.941.738-1.245 1.003-1.266 2.082-.347.095.102.208.204.322.306 1.684 1.736 3.709 2.165 5.943 1.899 2.706-.326 5.167-1.368 7.381-3.021 5.224-3.839 8.726-9.168 11.035-15.456.378-1.041.719-2.103.776-3.226.038-1.204.587-1.776 1.571-2.164 2.631-1 5.318-1.817 8.082-2.368 4.467-.899 8.971-1.184 13.495-1.348 8.138-.306 16.239-.041 24.283 1.266 3.937.653 7.76 1.695 11.602 2.777 2.366.694 3.937 2.246 4.732 4.675.398 1.184.663 2.43.947 3.655.359 1.49.7 3.001 1.097 4.634 2.423-1.163 4.145-2.858 4.732-5.553.928-4.124.265-8.024-1.968-11.556-1.098-1.694-2.537-2.96-4.391-3.573-1.268-.388-1.325-.796-.928-2.082 2.139-6.881-2.801-17.477-12.511-16.558-1.381.143-2.782.429-3.747 1.735-.284.388-.7.552-1.136.327-.397-.225-.303-.694-.265-1.082.208-2.756-.568-5.206-1.949-7.432-3.483-5.696-8.385-9.167-14.612-10.147-4.732-.755-8.99.511-12.189 4.676-.511.673-1.003.653-1.666.02-2.82-2.634-6.113-2.879-9.255-.674-.757.511-1.438.409-2.044-.326-.284-.327-.53-.695-.833-1.021-2.025-2.226-4.523-3.206-7.362-2.981-3.634.306-6.701 2.123-9.142 5.002-.89 1.041-1.685 1.225-2.82.878-1.136-.347-2.272-.49-3.464-.347-3.237.408-5.773 2.184-7.817 4.818-1.022 1.307-1.779 2.818-2.12 4.594 1.363.306 2.574.919 3.54 1.939 4.22-4.103 8.195-4.103 11.715-1.367.284-.143.379-.45.53-.695.909-1.572 2.045-2.878 3.521-3.818 1.363-.877 2.82-1.327 4.41-1.184.549.041 1.249.123 1.211.919-.038.817-.719.613-1.211.592-1.987-.143-3.653.633-5.073 2.083-.927.918-1.703 1.98-2.138 3.307-.36 1.041-.757 1.143-1.552.511-.303-.225-.606-.49-.909-.735-3.975-3.288-10.202-.245-10.75 4.961-.038.245-.057.49-.114.735-.114.429-.322.776-.776.674-.435-.082-.568-.47-.549-.919.019-.878.208-1.695.492-2.511.473-1.409.454-1.491-.681-2.246-.7-.47-1.439-.694-2.253-.674-1.4.02-2.668.531-3.804 1.368-.814.612-1.419.572-2.271.02-2.934-1.919-6.019-2.164-9.237-.796-5.299 2.246-8.971 6.227-11.015 11.964-.322.878-.663 1.756-.719 2.838 1.703.184 3.161.898 4.466 2.083 1.25-1.756 2.858-2.818 4.694-3.553a5.056 5.056 0 0 1 1.628-.347c.36 0 .814 0 .89.531.094.51-.265.694-.663.796-.34.123-.719.204-1.06.327-2.952.98-4.902 3.021-5.716 6.268-.189.694-.302 1.388-.435 2.082-.189.939-.246 1.899-.227 2.859 0 .367-.057.755-.435.837-.436.061-.663-.286-.795-.695-.209-.592-.19-1.204-.114-1.796.189-1.715.435-3.43 1.117-4.982.378-.857.094-1.307-.492-1.756-1.193-.918-2.555-1.225-3.956-1.245-1.855-.021-3.634.388-5.11 1.694-1.306 1.164-1.95 2.655-2.063 4.472-.057.796-.398.959-1.193.653-1.249-.47-2.536-.796-3.842-.674-5.886.531-10.448 3.41-13.325 9.127a20.69 20.69 0 0 0-1.892 5.512c-1.06 5.268-.36 10.127 2.763 14.455.568.796 1.173.837 1.817.184.284-.266.246-.633.322-.96.473-2.082 1.23-4.022 2.517-5.676.549-.714 1.192-1.306 2.101-1.408.378-.041.776.04.889.51.114.429-.227.633-.529.755-1.117.47-1.761 1.47-2.329 2.532a13.654 13.654 0 0 0-1.305 3.655c-.568 2.654-.19 5.104 1.324 7.309.228.327.474.653.663.98.17.347.189.714-.114.959-.246.205-.53.103-.776-.102-.492-.388-.87-.898-1.211-1.449-.984-1.572-1.42-3.349-1.571-5.329h.038Zm102.017 183.113c-.341-.24-.682-.12-.984-.08-6.455.76-12.928.96-19.42.92-.889 0-1.817-.2-2.649.02-.909.25-1.325 1.35-1.988 2.02-3.198 3.27-6.359 6.54-9.539 9.82-4.826 4.98-9.407 10.23-13.627 15.85-1.685 2.24-3.086 4.65-4.41 7.16-1.458 2.8-1.288 5.23.378 7.88 2.858 4.5 5.584 9.09 8.612 13.44.927 1.32 1.893 2.63 2.631 4.1.322.63.643.7 1.23.39.492-.27 1.06-.37 1.609-.47 4.202-.8 6.851 2.06 6.094 6.57-.227 1.23-.151 2.41.303 3.56.436 1.12.871 2.22 1.363 3.3 1.136 2.56 2.309 5.09 3.445 7.64 1.93 4.41 3.142 9.04 3.255 13.99.152 6.32-.378 12.61-1.4 18.84-.341 2.14-.776 4.31-1.174 6.53h1.628c12.265-.14 24.529-.26 36.813-.38 5.224-.07 10.448-.17 15.672-.21.605 0 1.041-.04 1.116-.9.265-3.04 1.855-5.18 4.051-6.94a93.43 93.43 0 0 1 7.173-5.27c2.025-1.36 4.107-2.59 6.416-3.28.492-.15.644-.37.72-.9.492-3.33.397-6.66-.095-9.97-.152-1.06-.625-2-1.23-2.85-1.136-1.66-2.253-3.33-3.256-5.11-.341-.61-.776-1.18-.927-1.86-.246-1.04-.871-1.65-1.571-2.34-6.265-6.19-12.719-12.19-18.852-18.54-3.596-3.7-7.173-7.39-10.466-11.39-3.369-4.11-6.284-8.54-8.063-13.74-1.647-4.84-2.631-9.89-3.161-15.01-.549-5.35-.397-10.7-.114-16.07.133-2.24.284-4.49.417-6.74v.02Zm130.298-18.94c.6-.84.77-1.68.58-2.62-.22-1.1-.66-2.1-1.17-3.06-1.29-2.51-3.05-4.59-5-6.491-3.92-3.859-8.08-7.35-12.41-10.576a41.713 41.713 0 0 1-6.4-5.859 338.175 338.175 0 0 1-11.91-14.292c-8.89-11.311-17.788-22.622-26.873-33.749-.359-.449-.624-1.021-1.23-1.245-1.098 2.368-1.987 4.798-2.801 7.268-1.95 5.982-3.256 12.107-2.972 18.539.057.939.341 1.592.89 2.245 7.003 8.351 13.987 16.701 20.971 25.052 2.707 3.266 5.415 6.553 7.895 10.065 2.1 2.96 3.27 6.293 3.37 10.063.05 2.13.11 4.25.53 6.33.98 4.78 3.18 8.74 6.98 11.48 3.94 2.83 8.65 2.3 12.06-1.27.68-.71 1.28-1.55 1.98-2.41-1.91-1.51-3.69-2.96-6.18-2.18-.36.1-.74.12-1.1.16-2.65.26-4.89-.65-6.68-2.74-.36-.4-.97-.94-.42-1.53.51-.55.93.1 1.27.47 1.93 2.04 4.18 2.76 6.81 2.17.36-.09.74-.09 1.1-.17 1.06-.2 2.04.02 2.99.55 1.08.58 2.1 1.29 3.07 2.09 2.97 2.36 6.02 4.59 9.18 6.65 2.93 1.94 6.07 3.35 9.46 4 2.08.41 4.18.56 6.15-.59 1.33-.75 1.4-1.39.36-2.55-1.04-1.18-2.33-2.02-3.61-2.82-3.15-1.92-6.27-3.82-9.39-5.73-3.33-2.05-6.59-4.21-9.66-6.7-.53-.43-1.02-.88-1.49-1.37-.36-.37-.93-.8-.51-1.39.45-.63.89 0 1.29.29.22.16.45.37.68.53 2.08 1.8 4.27 3.41 6.56 4.9 1.56 1.02 3.15 1.98 4.7 3 .51.35.83.22 1.12-.33.64-1.16.58-2.3-.06-3.43-.7-1.26-1.67-2.3-2.67-3.28-2.25-2.21-4.66-4.19-7.14-6.11-.6-.49-1.21-.94-1.79-1.43-.27-.22-.55-.49-.34-.9.22-.47.6-.36.96-.18.34.16.68.35.98.59.89.66 1.77 1.29 2.64 2 2.49 2 4.94 4.11 7.21 6.56h.02ZM764.123 869.26c-.151.245-.133.449-.095.633 1.231 6.982 8.044 13.454 14.612 13.863.36.02.738.02 1.117.102.416.082.738.469.492.857-.454.695-.057 1.144.227 1.634.53 1 1.079 2.001 1.647 3.001 9.444 16.885 20.119 32.81 31.93 47.877 5.697 7.268 11.318 14.639 17.394 21.58.435.49.851 1.042 1.287 1.593.624-.715.795-1.409.965-2.083 1.968-6.941 3.161-14.026 2.593-21.335-.057-.776-.379-1.307-.852-1.817-15.52-17.334-28.655-36.566-39.292-57.8-1.117-2.225-2.215-4.45-3.18-6.758-.36-.837-.379-1.572 0-2.429.511-1.184.908-2.45 1.306-3.675.359-1.103.511-2.246.378-3.43-.435-4.124-2.422-7.126-5.659-9.208-2.725-1.735-5.564-1.98-8.46-.653-2.48 1.123-4.959 2.327-7.439 3.491-1.211.551-2.347 1.245-3.331 2.184-.889.858-.946 1.266-.322 2.348 1.269 2.185 3.123 3.247 5.47 3.369 2.991.143 5.679-.959 8.309-2.307.379-.204.739-.47 1.136-.592.454-.123.814.388.625.857-.133.388-.436.654-.757.838-.625.347-1.25.714-1.912.959-.681.266-1.022.776-1.23 1.491-.455 1.735-.492 3.511-.171 5.267.568 3.063 2.139 5.329 4.865 6.533.624.286 1.268.347 1.911.429.322.041.7.102.719.551.038.531-.34.695-.719.776-.605.123-1.192.061-1.798-.143-2.65-.898-4.523-2.736-5.64-5.471-.965-2.328-1.079-4.778-.757-7.289.038-.306.34-.633-.057-.98-1.968.531-3.994.817-6.038.388-.227.367-.151.714-.189 1.061-.151 1.328-.549 2.553-1.249 3.655-1.571 2.491-3.407 3.042-5.924 1.756-.663-.327-1.287-.756-1.912-1.123Zm183.668 158.92c-.511-.16-1.003.02-1.495.15-1.817.45-3.615.91-5.432 1.43-4.94 1.44-9.823 3.14-14.366 5.75-4.164 2.41-7.57 5.68-10.144 9.99-.436.73-.663 1.49-.625 2.39.076 3.75.53 7.45 1.211 11.12 1.174 6.41 3.218 12.42 6.928 17.68 3.16 4.47 6.813 8.41 10.523 12.36.322.34.644.46 1.117.44 2.309-.1 4.561-.51 6.605-1.67 4.183-2.35 7.685-5.55 10.126-9.94a41.102 41.102 0 0 0 4.429-12.19c.152-.74 0-1.23-.454-1.76a78.648 78.648 0 0 1-3.388-4.22c-1.722-2.33-2.877-4.94-3.52-7.82-.587-2.51-.833-5.09-1.023-7.64-.34-4.8-.321-9.59-.359-14.39 0-.55.113-1.13-.114-1.66l-.019-.02Zm-120.224 42.1c-.114 3.15.681 6.49 2.763 9.46 1.173 1.65 2.271 3.32 3.35 5.04.397.63.89.96 1.533 1.2 3.861 1.33 7.722 1.25 11.508-.28 5.129-2.04 9.217-5.66 12.757-10.05.397-.49.624-1.12.984-1.65.341-.53.303-.98.019-1.53-1.003-1.86-.852-3.74-.019-5.64 1.211-2.8 2.574-5.47 4.372-7.9 3.729-5 7.665-9.78 11.905-14.29 1.041-1.12 1.06-1.14.208-2.51-1.079-1.74-2.46-3.19-3.993-4.43-5.167-4.23-11.11-6.21-17.451-7.05-1.363-.18-2.347.21-3.293 1.33-1.477 1.76-3.142 3.33-4.694 4.98-3.937 4.17-7.798 8.41-11.319 13.01-2.309 3-4.485 6.08-6.17 9.53-1.59 3.23-2.536 6.62-2.46 10.8v-.02Zm48.888 24.69.246-.39c.303-.47.492-1.33 1.193-.92.738.45.208 1.16 0 1.73-.417 1.07-.89 2.11-1.344 3.17-.89 2.06-1.798 4.1-3.047 5.96-2.063 3.08-4.808 5.02-8.272 5.72-1.287.26-2.593.26-3.899.26-3.236 0-6.283.82-9.198 2.31-.265.14-.435.35-.606.57-3.255 4.41-7.06 8.21-10.94 11.95-.227.22-.548.38-.567.83.265.39.548.8.813 1.21 2.877 4.43 5.47 9.04 6.757 14.37.36 1.53.568 3.06.682 4.61.057.64.265.8.795.68 1.93-.41 3.861-.74 5.716-1.43 1.381-.49 2.536-1.27 3.293-2.65.265-.47.606-.9.946-1.31 1.59-2.04 3.029-2.47 5.338-1.61.927.34 1.836.75 2.744 1.16 1.912.86 3.88 1.02 5.887.51 3.388-.84 6.548-2.39 9.728-3.8 2.158-.96 4.24-2.08 6.265-3.37.397-.26.757-.47.814-1.1.265-4.25.227-8.49-.53-12.68-.549-3.1-1.685-5.98-2.934-8.82-1.344-3.04-2.763-6.06-4.107-9.12-.738-1.72-1.098-3.52-.644-5.46.133-.57.095-1.2.095-1.81 0-.7-.284-1.25-.757-1.72-1.401-1.34-3.729-1.53-5.451-.41.208.58.549 1.05 1.003 1.56h-.019Zm94.087 13.53c1.249 1.8 2.252 3.6 2.952 5.6 2.234 6.41 2.953 12.9 1.098 19.58-.189.69 0 .98.606 1.22 1.817.72 3.35 1.96 4.807 3.31 3.861 3.63 6.36 8.27 8.271 13.31.133.37.19.76.436 1 .416-.18.605-.49.795-.78.321-.49.643-1 .889-1.53 1.893-4.24 3.35-8.65 4.24-13.27.246-1.26.151-2.49-.398-3.67a16.91 16.91 0 0 1-1.022-2.68c-.53-1.83-.056-3 1.515-3.86.757-.42 1.552-.69 2.384-.89 1.59-.37 2.764-1.37 3.635-2.82 1.1-1.78 2.08-3.62 2.71-5.64 1.32-4.3 2.21-8.76 3.12-13.19.09-.53 0-.85-.4-1.14-2.67-1.88-4.94-4.31-7.399-6.47-2.801-2.47-5.867-4.47-9.199-5.92-1.135-.51-2.252-1-3.369-1.49-1.116-.51-1.949-1.35-2.498-2.51-.379-.78-.719-1.56-1.117-2.29-1.722-3.14-4.05-3.31-6.302-.37.435.43.87.86 1.324 1.29.228.2.379.3.701.02.757-.65 1.135-.47 1.211.55.114 1.51.17 3.02-.038 4.53-.549 3.98-1.76 7.74-3.482 11.29-1.306 2.66-2.934 5.05-5.451 6.82h-.019Zm-166.237 41.9c.189 2.96.398 5.67 1.325 8.25.625 1.77 1.666 3.02 3.521 3.41 1.835.38 3.69.63 5.545.81 6.625.66 13.23-.1 19.817-.73 6.832-.66 13.552-2.21 20.29-3.51 1.949-.39 3.35-1.33 4.126-3.35a7.574 7.574 0 0 1 1.949-2.94c1.268-1.21 2.271-1.27 3.653-.23.757.59 1.476 1.25 2.252 1.8 2.082 1.53 4.354 2.18 6.89 1.75 3.994-.65 7.779-2.02 11.583-3.38 1.514-.56 2.272-1.6 2.518-3.25.397-2.7.927-5.35 1.287-8.04.227-1.62.549-3.23.397-4.9-.549.06-.871.38-1.23.59-4.183 2.37-8.536 4.24-13.003 5.92-3.274 1.22-6.473 1.18-9.634-.47-.7-.37-1.476-.61-2.214-.9-1.098-.41-2.026-.06-2.821.78-.624.63-1.173 1.32-1.589 2.1-.663 1.26-1.666 2-2.858 2.51-.701.31-1.401.57-2.12.8-3.199.92-6.492 1.38-9.767 1.81-3.747.49-7.514.92-11.261 1.39-5.962.78-11.943 1.57-17.981 1.43-3.539-.08-7.098-.04-10.675-1.65Zm12.114.18c2.422-.08 4.902-.02 7.362-.33 4.599-.57 9.18-1.12 13.779-1.69 2.858-.37 5.735-.76 8.612-1.1.606-.08.776-.33.738-.96a30.447 30.447 0 0 0-.776-4.76c-1.117-4.63-3.388-8.64-5.792-12.56-1.552-2.51-3.501-4.57-5.867-6.18-1.382-.94-2.82-1.76-4.259-2.62-.53-.28-.927-.26-1.438.03a59.319 59.319 0 0 1-3.521 1.83c-3.785 1.84-7.589 3.62-11.356 5.47-2.252 1.13-4.41 2.43-6.359 4.13-2.461 2.1-3.672 4.88-3.786 8.27-.113 2.67.208 5.33.341 8 .038.53.189.84.681.98 1.212.37 2.385.86 3.634 1.06 2.65.49 5.3.37 8.007.43Zm129.347 12.92c.436 2.19.644 4.19 1.514 6.01.814 1.69 1.969 2.96 3.71 3.45 1.855.51 3.767.81 5.678.67 5.357-.39 10.656-1.22 15.899-2.45 5.167-1.2 10.107-3.18 15.104-4.96 3.52-1.22 6.814-2.92 9.861-5.25 2.233-1.71 3.538-3.92 4.238-6.69.49-2 .87-4.05 1.21-6.07.46-2.63.91-5.26 1.38-7.88.31-1.65.14-3.2-.79-4.63-.47-.7-.78-1.49-.95-2.35-.36-1.92.27-2.92 2.05-3.17 2.04-.28 3.57-1.36 4.69-3.16 2.29-3.7 3.88-7.7 4.85-12.03.53-2.36 0-4.36-1.48-6.14-1.19-1.43-2.54-2.68-3.97-3.82-.23-.18-.44-.55-.82-.37-.76 3.33-1.51 6.66-2.27 9.99-.78 3.37-2.04 6.49-3.9 9.33-1.02 1.59-2.308 2.73-4.087 3.2-.719.17-1.438.43-2.12.76-1.154.51-1.4 1.08-1.003 2.39.246.81.587 1.59.928 2.35.643 1.42.776 2.87.511 4.43-.776 4.28-2.215 8.33-3.729 12.35-1.136 3.02-3.028 4.94-5.867 6.23-5.792 2.59-11.678 4.75-17.773 6.28-3.539.9-7.06 1.86-10.694 2.17-4.012.32-8.006.22-12.17-.66v.02ZM840.134 977.611c-.303-.041-.492-.081-.681-.081-3.937 0-7.325-1.654-10.524-3.941-.473-.347-.908-.735-1.23-1.245-.189-.307-.284-.633 0-.96.246-.265.511-.122.757.041s.454.347.682.531c1.154.857 2.346 1.654 3.615 2.266.283.143.548.47.927.123-1.382-3.553-2.158-7.269-2.82-11.046-.208-1.225-.189-2.593-.7-3.654-.511-1.083-1.534-1.879-2.31-2.818-6.378-7.575-12.435-15.455-18.472-23.357-.303-.388-.53-.898-1.193-1.163.057.959.076 1.755.152 2.531.53 5.227 1.078 10.433 1.873 15.619 1.155 7.534 2.48 15.006 4.486 22.336 1.533 5.533 3.634 10.8 6.473 15.7 1.704 2.94 4.032 4.941 7.06 6.105 3.539 1.368 7.211 2.001 10.94 2.348.776.061 1.552.265 2.498 0-1.173-3.042-1.817-6.186-2.006-9.412-.208-3.287-.246-6.554.473-9.943v.02Zm114.793 185.299c1.722-.16 3.464-.2 5.148-.51 9.028-1.71 17.829-4.22 26.214-8.33 1.155-.55 1.192-.57.719-1.88-1.306-3.65-2.99-7.08-5.356-10.04-2.877-3.59-6.151-6.41-10.826-6.76-4.126-.33-8.12-.02-11.849 2.02-3.937 2.13-7.533 4.84-10.996 7.76-1.628 1.39-2.537 3.21-2.745 5.43-.322 3.37-.322 6.76.133 10.11.17 1.22.189 1.24 1.344 1.49 2.725.53 5.451.75 8.233.71h-.019Zm16.75-57.39c-.7-.82-1.362-1.61-2.006-2.39-.227-.28-.341-.63-.076-.96.303-.34.625-.16.871.04.606.49 1.211.98 1.741 1.54.417.42.682.36 1.003-.11.928-1.34 1.666-2.81 2.31-4.33.378-.91 1.116-1.89.889-2.77-.189-.78-1.211-1.31-1.874-1.92-1.892-1.74-3.918-3.27-5.659-5.19a6.017 6.017 0 0 1-.719-.92.557.557 0 0 1 .076-.69c.208-.2.454-.18.643-.04.322.2.625.45.909.71 2.233 1.98 4.466 3.99 6.7 5.97.151.14.303.38.643.2.606-2.08 1.117-4.21 1.098-6.47 0-.41.038-.8-.378-1.06-2.31-1.49-4.108-3.64-5.981-5.66-4.373-4.72-8.783-9.39-12.946-14.31-.247-.31-.436-.8-1.023-.72a34.083 34.083 0 0 1-2.119 7.03c-.341.81-.209 1.22.416 1.75 3.218 2.86 6.189 5.99 9.18 9.11.435.45 1.287 1.02.643 1.69-.624.66-1.154-.26-1.609-.71-2.914-2.92-5.791-5.86-8.706-8.78-.246-.25-.435-.67-.946-.55-.852 1.96-1.874 3.82-3.18 5.47-.492.59-.341.94.132 1.35.322.28.625.61.928.92.454.49.946.98 1.287 1.59.151.28.208.55-.038.84-.246.26-.511.2-.757.04a8.729 8.729 0 0 1-.549-.47 141.43 141.43 0 0 1-1.703-1.8c-.663-.73-.682-.75-1.42-.02a31.985 31.985 0 0 1-3.445 3.08c-.473.39-1.041.64-1.438 1.21.454.53.852 1.02 1.287 1.49 1.817 1.9 3.634 3.78 5.432 5.69.341.35.643.72.946 1.11.171.2.208.47.038.69-.189.27-.454.35-.738.23-.492-.21-.833-.64-1.211-1-2.234-2.23-4.41-4.54-6.511-6.91-.417-.47-.72-.63-1.287-.3-1.59.88-3.294 1.39-5.073 1.57-.303.02-.662-.02-.908.45 6.511 6.82 13.4 13.21 20.176 19.86a16.328 16.328 0 0 1 2.688-3.92c.549-.59.435-.93-.114-1.42-1.079-1.03-2.195-2.05-3.142-3.23-.303-.39-.681-.84-.227-1.33.416-.41.795.04 1.098.33 1.003.98 2.006 1.96 2.99 2.96.625.63 1.306.69 2.044.2 1.931-1.28 3.369-1.2 5.168.29.473.39.927.84 1.362 1.31 1.041 1.06 1.212 1.08 2.309.08.322-.29.682-.53.795-.82h-.019Zm-114.395 3.74c-.322-.92-.871-1.55-1.325-2.25-2.233-3.37-4.467-6.72-6.435-10.29-.284-.51-.909-1.22-.189-1.69.605-.41.927.47 1.211.92 2.688 4.2 5.356 8.39 8.006 12.61.246.39.454.53.89.49 1.154-.08 2.328-.1 3.482-.14.909 0 1.779-.12 2.631-.35.454-.1.511-.36.322-.75-.151-.31-.341-.61-.511-.92-1.912-3.39-3.842-6.8-5.773-10.19-.189-.35-.397-.69-.568-1.06-.151-.33-.151-.71.171-.94.359-.24.719-.14.965.23.227.32.416.67.625 1.02 2.044 3.61 4.088 7.22 6.151 10.84.643 1.12.643 1.12 1.722.47 1.477-.92 2.688-2.17 3.691-3.66.719-1.06.719-1.06-.057-2.18-.454-.64-.927-1.27-1.381-1.92a89.221 89.221 0 0 1-1.893-2.8c-.227-.33-.454-.75-.095-1.08.436-.39.795-.04 1.079.31.606.75 1.192 1.55 1.779 2.34.644.88 1.287 1.78 2.063 2.84.625-1.43 1.117-2.61 1.685-3.78.284-.59.132-1-.189-1.49-4.486-6.65-8.953-13.31-13.098-20.21-.151-.26-.227-.69-.757-.61-.606 1.47-1.76 2.51-2.782 3.76.132.22.246.42.397.63 1.457 2.1 2.801 4.29 4.126 6.49.208.33.379.7.549 1.04.208.43.398.88-.076 1.21-.416.26-.7-.13-.927-.43-.265-.35-.511-.72-.757-1.1-.795-1.29-1.59-2.6-2.423-3.88-.605-.94-1.154-1.94-1.949-2.86-1.42 1.45-2.915 2.71-4.448 3.88.189.65.549 1.08.833 1.53 1.154 1.84 2.309 3.67 3.463 5.51.284.47.511.96.738 1.47.133.29.133.59-.17.78-.284.18-.549.08-.757-.17a9.56 9.56 0 0 1-.681-.96c-1.59-2.36-3.142-4.75-4.6-7.39-2.063 1.37-4.22 2.37-6.511 3.19.72 1.28 1.401 2.47 2.082 3.69.209.37.436.9.019 1.23-.473.37-.776-.12-1.003-.49-.681-1.04-1.381-2.04-1.949-3.15-.36-.71-.663-.98-1.496-.85-1.987.26-3.993.3-5.98-.15-.303-.06-.644-.18-.947.02-.094.29.076.47.208.68 3.237 4.63 6.454 9.27 9.672 13.92.36.53.795.74 1.382.86 2.498.51 4.353 1.98 5.375 4.55.303.76.322 1.57.568 2.37 1.249-.39 2.441-.73 3.804-1.14h.038Zm39.728-242.144c-1.117 0-2.252-.081-3.35.021-3.767.326-7.533.735-11.281 1.102-1.627.143-3.217.47-4.75 1.143-1.231.531-2.026 1.491-2.328 2.818-.379 1.511-.53 3.062-.265 4.655.359 1.98.946 3.9 1.608 5.778 2.612 7.452 7.174 12.903 13.931 16.149 3.501 1.695 7.06 1.838 10.599.327 7.268-3.083 11.829-8.902 13.987-16.946.53-2.001 1.457-3.573 2.972-4.798 2.612-2.143 5.583-2.388 8.649-1.858 2.215.409 4.126 1.47 5.716 3.267 1.59 1.838 3.18 3.696 4.751 5.553a29.783 29.783 0 0 0 5.659 5.166c2.518 1.776 5.262 2.45 8.252 2.001 3.426-.511 6.246-2.287 8.688-4.839 3.52-3.655 5.697-8.187 7.135-13.189.739-2.593 1.288-5.268 1.401-8.004.151-3.123-1.401-5.226-4.202-5.839-.284-.041-.568-.061-.833-.081-2.82-.307-5.602.04-8.365.449-5.338.776-10.486 2.327-15.596 4.144-2.518.919-4.959 2.022-7.23 3.573-.871.613-1.666 1.307-2.234 2.246-.889 1.429-2.044 1.878-3.501 1.327-3.388-1.266-6.417-.653-9.104 1.899-1.212 1.143-1.533 1.082-2.499-.388-1.684-2.572-3.861-4.267-6.832-4.777-3.653-.633-7.306-.899-10.997-.878l.019-.021Zm-63.254 38.118c.094-.367-.019-.612-.133-.817-2.612-5.083-4.902-10.33-6.984-15.68-.246-.653-.568-.612-1.079-.428-2.839 1.041-5.602 2.184-8.233 3.736-1.495.878-2.858 1.94-3.956 3.348-1.06 1.327-1.817 2.777-2.025 4.574-.095.755 0 1.327.398 1.96a249.57 249.57 0 0 0 12.832 17.987c.189.224.303.653.795.51v-.878c-.057-3.103.303-6.166.814-9.187.397-2.246 1.59-3.737 3.71-4.227 1.268-.285 2.555-.592 3.861-.898Zm-47.753-56.166c-.038-.327-.038-.429-.076-.511-2.839-4.185-4.845-8.84-6.625-13.617-1.381-3.716-2.706-7.412-4.069-11.128-.435-1.163-.87-2.347-1.571-3.368-.795-1.184-1.495-1.205-2.366-.123-.757.939-1.135 2.083-1.381 3.287-.568 2.859-.511 5.717-.133 8.575.852 6.595 3.35 12.475 6.568 18.049.606 1.061.643 1.102 1.741.49 2.461-1.368 4.997-2.246 7.912-1.675v.021Zm51.86 86.567c0-.429.019-.572 0-.735-.53-6.125-1.079-12.25-1.628-18.375-.284-3.022-.568-6.023-.814-9.045-.056-.776-.321-.939-.965-.817-1.382.307-2.763.552-4.126.858-1.59.347-2.536 1.388-2.801 3.144-.606 3.94-1.155 7.881-.436 11.882.095.531.322.919.625 1.287 3.237 3.961 6.473 7.921 10.145 11.801Zm-73.418-88.017c-2.423.939-3.994 2.573-4.846 4.921-.927 2.531-1.078 5.165-.227 7.717 1.344 4.002 3.975 6.86 7.439 8.841.227.143.511.224.776.306 1.003.347 1.836.102 2.555-.715 1.098-1.245 1.703-2.715 1.722-4.471.019-.592-.151-.919-.643-1.164-1.325-.714-2.272-1.878-3.085-3.205-.549-.878-.72-1.756-.341-2.695.17-.408.208-.694-.076-1.082-1.741-2.45-2.839-5.186-3.274-8.453ZM962.1 1120.1c3.142-2.47 6.454-4.33 10.221-5.13-1.174-3.63-3.256-6.37-5.83-8.69-1.457-1.33-2.46-1.33-4.031-.08-1.666 1.32-3.01 2.98-4.145 4.85-.587 1-.625 1.92-.057 2.96a63.54 63.54 0 0 0 3.823 6.09h.019ZM775.706 851.865c-2.574-4.063-4.448-8.432-6.018-13.128-1.969 1.511-3.313 3.287-3.71 5.758-.606 3.96.643 7.35 2.65 10.535.302.469.567.408.908.122a13.773 13.773 0 0 1 2.915-1.797c1.06-.51 2.139-.98 3.255-1.49Zm71.639 264.375c1.496-1.63 2.783-3.37 4.013-5.14.624-.88.587-1.72.17-2.68-1.173-2.76-3.672-3.76-6.795-3.63-.851.04-1.495.43-2.006 1.16-.852 1.27-1.76 2.47-2.631 3.72-.189.26-.53.47-.397.89 3.747 1.86 5.659 3.29 7.627 5.68h.019Zm116.648 11.25c3.237-1.94 6.473-3.35 10.202-2.82a32.284 32.284 0 0 0-1.098-7.29c-.152-.61-.379-.92-1.079-.77-3.255.73-6.076 2.43-8.763 4.45-.265.18-.36.39-.227.73.7 1.76.719 3.64.965 5.7ZM832.26 961.87a1.377 1.377 0 0 1-.227.143c.209 1.082.379 2.184.606 3.246.644 3.144 1.344 6.268 2.65 9.208.322.755.776 1.143 1.552 1.286 1.855.368 3.71.266 5.564.021.474-.062.663-.245.568-.776-.038-.184-.094-.388-.094-.592-.095-1.715-.739-2.961-2.139-4.043-2.404-1.878-4.486-4.226-6.606-6.492a193.586 193.586 0 0 1-1.874-2.001Zm131.373 172.26c3.085-.47 6-.58 8.915-.07.416.09.549-.18.662-.57.625-2.08.928-4.2 1.06-6.39.038-.75-.227-.92-.87-.98-3.388-.32-6.265 1.17-9.066 2.96-.341.21-.379.53-.379.9.038 1.31-.095 2.61-.322 4.15Zm-120.546-13.3c.984-1.04 1.874-2 2.801-2.92.379-.4.416-.73.038-1.12-.454-.45-.852-.96-1.325-1.37-1.666-1.49-3.596-2.51-5.508-3.55-.378-.2-.587-.12-.833.16-.889 1.05-1.798 2.07-2.744 3.15 2.763 1.45 5.413 3.02 7.571 5.65Zm-.984 1c-1.78-2.06-3.786-3.45-5.906-4.61-1.817-1.02-1.817-1-3.369.35-.586.53-1.211 1.02-1.892 1.61 2.82 1.43 5.375 3.08 7.589 5.29.284.28.511.35.814.04.89-.88 1.798-1.76 2.764-2.68Zm-9.918-251.692c-.133-1.429-.246-2.573-.341-3.716-.113-1.082-.057-2.205-.378-3.552-1.004 1.817-2.158 3.103-3.578 4.185 1.212 1.368 2.555 2.287 4.297 3.083Z"/>
  </g>
  <path fill="#070605" d="M855.693 986.043c-.019.633.019 1.042-.378 1.164-.492.123-.663-.327-.757-.694-.511-2.307-1.022-4.614-1.477-6.942-2.044-10.065-3.918-20.151-5.47-30.319-1.135-7.37-2.101-14.761-2.971-22.172a693.22 693.22 0 0 1-2.385-25.01c-.284-3.533-.435-7.065-.606-10.597-.038-.592-.265-1.551.587-1.572.719 0 .549.96.587 1.491.265 2.878.473 5.737.681 8.615.568 8.004 1.325 15.987 2.196 23.97a593.543 593.543 0 0 0 3.974 29.522c1.533 9.392 3.332 18.743 5.205 28.053.322 1.572.568 3.164.814 4.491Zm36.511 28.767c17.905-.27 35.829-2.47 53.356-7.84 1.078-.33 2.157-.65 3.236-.96.36-.1.795-.18.947.33.151.49-.209.73-.568.88-.814.36-1.647.71-2.499.98-8.384 2.61-16.902 4.51-25.551 5.79-8.555 1.29-17.148 2.02-25.779 2.25-5.64.16-11.28-.04-16.902-.47-.378-.04-.738-.12-1.116-.2-.398-.09-.89-.17-.814-.8.075-.53.511-.51.889-.51.663.02 1.306.02 1.969.06 4.183.35 8.384.43 12.832.49Zm2.952-5.65c-.019.2 0 .44-.057.69a.489.489 0 0 1-.378.39c-.227.04-.36-.1-.473-.25-.247-.32-.284-.73-.36-1.14-.681-3.31-.984-6.68-1.325-10.046-.662-6.615-1.306-13.251-1.874-19.886-.473-5.39-.814-10.78-1.211-16.17-.511-6.738-.852-13.495-1.95-20.172a48.413 48.413 0 0 0-3.236-11.086 11.284 11.284 0 0 1-.473-1.429c-.057-.225.019-.511.265-.633.246-.123.454-.02.624.163.379.388.587.919.814 1.409 1.685 3.593 2.707 7.411 3.369 11.352.909 5.369 1.268 10.8 1.666 16.251.605 8.208 1.173 16.415 1.892 24.602.587 6.84 1.269 13.68 2.045 20.495.208 1.8.416 3.62.643 5.48l.019-.02Zm-39.803-65.522c-.075-3.287-.132-6.574.511-9.82.265-1.328.663-2.634 1.363-3.778.17-.306.379-.571.606-.837.132-.163.321-.183.511-.102.246.102.359.347.321.613-.056.286-.132.592-.264.837-1.193 2.532-1.571 5.267-1.666 8.085-.151 5.104.246 10.188.662 15.272.511 6.553 1.231 13.066 2.082 19.579a478.492 478.492 0 0 0 4.656 28.783c.265 1.39.511 2.78.758 4.17.056.35.189.69.018 1.04-.189.39-.454.49-.776.16-.321-.32-.378-.79-.492-1.22-.908-3.61-1.514-7.29-2.176-10.944a452.119 452.119 0 0 1-4.107-27.685c-.928-8.024-1.666-16.068-2.007-24.153Zm110.572 31.237c.038.45.076.899.114 1.368.038.572.057 1.205-.644 1.266-.605.041-.681-.572-.719-1.082-.151-1.817-.303-3.634-.435-5.431-.549-7.248-1.079-14.496-1.609-21.744-.416-5.43-.795-10.861-1.211-16.312l-1.59-21.275a254.187 254.187 0 0 0-.303-3.94c0-.184-.019-.408 0-.613.038-.367.227-.694.587-.755.435-.041.7.265.757.715.094.755.17 1.51.208 2.266.795 10.719 1.571 21.437 2.366 32.156.738 10.066 1.495 20.131 2.252 30.196.076 1.062.171 2.124.265 3.165h-.038v.02Zm-40.808-37.709c0-.429.038-.878.492-.96.492-.081.644.388.72.756.34 1.837.492 3.716.605 5.573.606 9.065 1.155 18.13 1.798 27.195.53 7.555 1.287 15.068 2.082 22.602.322 2.899.436 5.839.909 8.718.075.43 0 .86-.436.96-.416.1-.719-.25-.851-.61a6.504 6.504 0 0 1-.303-1.473c-.7-7.126-1.382-14.272-2.044-21.397-1.022-10.8-1.571-21.642-2.272-32.462-.17-2.716-.397-5.431-.605-8.147-.019-.265-.057-.51-.076-.755h-.019Zm-19.91-20.233c.398 0 .587.143.682.388.113.265 0 .51-.19.653a7.174 7.174 0 0 1-.965.633c-.7.388-1.438.715-2.12 1.164-2.138 1.409-3.672 3.348-4.523 5.941-.909 2.756-1.344 5.574-1.609 8.453-.625 7.166-.36 14.332.151 21.478.265 3.634.549 7.268.814 10.882.019.204.038.408.038.613-.019.428-.132.857-.587.877-.359 0-.549-.408-.586-.755-.228-1.695-.455-3.389-.606-5.104-.625-7.901-1.193-15.823-.89-23.765.152-4.145.549-8.269 1.666-12.271 1.249-4.41 3.937-7.35 7.93-8.922.303-.122.606-.204.795-.285v.02Zm12.661-14.414c-1.041 1.225-2.176 2.082-3.615 2.409-.492.102-1.003.163-1.514.102-.359-.041-.643-.204-.643-.633 0-.367.189-.572.492-.653.303-.082.624-.143.946-.204 3.275-.633 4.808-3.43 3.748-6.84-.19-.612-.473-1.205-.72-1.797-.151-.326-.094-.612.152-.816.265-.225.53-.102.776.061.341.225.549.572.7.939.644 1.552 1.079 3.144.719 4.859-.189.878.038 1.552.493 2.246 1.835 2.899 4.921 3.838 7.873 2.389 1.779-.878 3.01-2.348 4.07-4.063.302-.49.208-.919.018-1.409-.681-1.878-.719-3.838-.246-5.798.133-.49.303-.96.663-1.286.284-.245.587-.368.908-.123.303.245.341.592.152.939-.738 1.327-.719 2.797-.549 4.267.284 2.573 2.025 4.247 4.448 4.329.511.02 1.022 0 1.533-.021.303-.02.587.082.662.409.095.408-.132.673-.454.837-.378.224-.795.265-1.211.286-1.723.102-3.218-.49-4.543-1.634-.53.184-.643.715-.927 1.103-1.344 1.817-2.896 3.287-5.016 3.94-3.066.919-5.716.143-7.874-2.409-.359-.408-.643-.858-1.059-1.409l.018-.02Zm12.133 36.627c-.208-5.635-.152-10.188.605-14.679.19-1.144.474-2.267.833-3.349 1.098-3.225 3.294-5.185 6.227-6.288.265-.082.549-.143.814-.184.284-.041.587.021.719.347.171.429-.132.654-.416.837-.398.245-.833.429-1.249.633-2.839 1.266-4.543 3.532-5.262 6.758-.719 3.165-.946 6.391-.984 9.617-.095 5.41.265 10.8.605 16.19.209 2.96.455 5.941.644 8.902.038.53.36 1.388-.492 1.47-.7.04-.625-.776-.719-1.287-.379-2.082-.492-4.205-.644-6.308-.284-4.574-.643-9.167-.681-12.659Zm30.094 47.918v7.411c0 .45-.075.899-.17 1.348-.057.224-.265.429-.511.408a.524.524 0 0 1-.492-.469c-.038-.327-.057-.695-.076-1.042-.151-4.205-.284-8.391-.454-12.576-.379-8.514-1.003-17.028-1.931-25.501-.227-2.164-.473-4.308-.681-6.472-.038-.551-.265-1.388.492-1.531.795-.143.757.755.833 1.307.341 2.633.662 5.288.927 7.962.928 9.371 1.533 18.804 1.95 28.216.019.306 0 .612 0 .919h.132l-.019.02Zm-63.386-12.515v-2.307c0-.327.151-.613.454-.674.398-.061.606.245.663.633.113.694.227 1.388.265 2.082.378 7.983 1.116 15.925 2.044 23.847.378 3.31.852 6.59 1.268 9.9.095.8.151 1.62.208 2.41.019.41-.019.88-.492.96-.454.08-.644-.35-.7-.75a72.232 72.232 0 0 1-.549-3.43c-1.136-8.702-2.139-17.44-2.764-26.199-.151-2.103-.265-4.226-.397-6.472Zm40.144 27.461c.019.67.284 1.43-.398 1.53-.662.12-.7-.65-.832-1.16-.53-2.474-.758-4.985-1.041-7.476-.871-7.268-1.571-14.537-2.196-21.805-.151-1.96-.246-3.92-.36-5.9-.019-.327 0-.694.076-1.042.038-.245.208-.449.473-.449s.492.123.53.388c.114.531.227 1.082.284 1.634.398 5.43.871 10.841 1.42 16.272.53 5.41 1.135 10.82 1.817 16.208.094.64.17 1.29.227 1.8Zm-16.865-177.054c-5.962.102-12.378.51-18.757 1.47-.549.082-1.116.102-1.665.143-.303.02-.587-.041-.682-.388-.113-.449.152-.694.455-.817a7.702 7.702 0 0 1 1.495-.388c3.501-.612 7.041-.898 10.58-1.163 4.732-.368 9.501-.45 14.252-.327 1.533.041 3.085.184 4.599.347.474.041 1.231.041 1.193.735-.038.857-.814.653-1.344.612-3.199-.245-6.416-.224-10.126-.245v.021ZM957.73 941.27c0 .898.018 1.49-.171 2.082-.076.245-.189.47-.454.49-.341.041-.53-.225-.587-.531-.075-.388-.094-.796-.113-1.184-.36-5.308-.89-10.576-1.912-15.762-.625-3.185-1.438-6.288-3.218-8.983-.227-.347-.435-.735-.037-1.062.34-.306.7-.061 1.003.204.624.572 1.003 1.328 1.344 2.103 1.173 2.491 1.854 5.166 2.346 7.902.928 4.961 1.477 9.983 1.799 14.741Z"/>
  <path fill="#070605" d="M966.058 985.676a48.782 48.782 0 0 1-1.571 10.453c-.795 2.879-2.366 5.121-4.656 6.781-.512.36-1.06.65-1.628.88-.36.12-.663.1-.871-.25-.227-.41.038-.67.303-.88.227-.18.454-.32.7-.49 2.593-1.63 4.259-3.999 4.997-7.164a50.707 50.707 0 0 0 1.382-11.086c.019-.653.038-1.307.075-1.96.038-.388.228-.694.625-.674.303.021.454.306.511.633.265 1.246.189 2.511.114 3.777l.019-.02Zm-25.326-160.393c2.347.326 5.034.612 7.646 1.47 2.404.775 4.07 2.307 4.713 5.042.379 1.613.947 3.185 1.212 4.819.113.653.492 1.654-.265 1.878-.89.286-.814-.857-.985-1.47a124.031 124.031 0 0 1-1.419-5.227c-.436-1.776-1.571-2.817-3.085-3.43-1.761-.694-3.615-.98-5.451-1.265-.89-.123-1.761-.225-2.65-.327-.133-.02-.284-.02-.417-.061-.454-.184-1.154-.102-1.059-.919.094-.674.7-.531 1.135-.551.095 0 .189.02.625.041Zm-68.799 190.097c-.416-.06-.833-.1-1.23-.22-3.313-.88-6.303-2.41-8.877-4.88-2.006-1.92-3.028-4.43-3.691-7.17a1.659 1.659 0 0 1-.057-.45c-.038-.41-.113-.88.398-.98.378-.06.587.27.719.59.284.8.587 1.6.852 2.41.7 2.23 1.987 3.96 3.709 5.37 2.082 1.7 4.41 2.8 6.89 3.56.492.14 1.003.24 1.495.38.398.11.909.21.814.82-.095.59-.606.53-1.022.55v.02Zm-22.6-108.921c-.056-1.163-.113-2.327-.151-3.491-.019-.47 0-.98.568-1.021.549-.02.681.49.719.939.114.797.152 1.613.17 2.41.038 1.857-.056 3.736.19 5.594.075.612.038 1.511.776 1.531.662.02.719-.858.814-1.429.208-1.184.094-2.409.037-3.614-.037-.551-.359-1.388.398-1.531.719-.143.719.735.833 1.286a11.354 11.354 0 0 1-.019 4.655c-.114.49-.284.96-.568 1.368-.89 1.266-2.328 1.205-3.104-.163a3.908 3.908 0 0 1-.549-2.001c-.019-1.511 0-3.042 0-4.533h-.114Zm23.149 14.251c1.363.041 2.858.122 4.296.633.511.184 1.249.367 1.06 1.123-.208.816-.908.408-1.438.286-4.846-1.287-9.331-.143-13.628 2.327-.359.204-.719.429-1.098.674-.302.204-.605.224-.87-.123-.265-.367-.057-.694.17-.939.303-.306.625-.612.984-.837 3.237-1.919 6.663-3.124 10.524-3.144Zm38.195-4.369c3.729.265 7.098 1.49 9.899 4.287.663.654 1.249 1.368 1.552 2.287.133.347.133.715-.227.919-.303.143-.549.02-.757-.204a85.34 85.34 0 0 0-.341-.49c-2.119-2.92-4.958-4.472-8.29-5.023-.795-.122-1.571-.204-2.366-.327-.454-.061-1.041-.122-1.003-.775.057-.613.644-.633 1.117-.654.133-.02.284 0 .416 0v-.02Zm-64.581-50.368c.757-1.225.776-2.389.663-3.593-.038-.409-.114-.797-.152-1.205-.018-.265.076-.51.322-.612.303-.123.53.02.719.285.057.082.095.184.133.266.7 1.347.435 4.43-.473 5.655-.719 1.001-1.817 1.062-2.442.021-1.173-1.96-1.363-4.145-1.003-6.391.019-.143.114-.286.189-.408.208-.327.473-.511.833-.347.303.143.36.469.284.776-.227 1.102-.133 2.205.057 3.307.132.735.246 1.491.889 2.246h-.019Zm111.5-12.536c-.019.388.019.796-.379.919-.454.143-.7-.184-.832-.592a16.4 16.4 0 0 1-.417-1.593c-.473-2.47-.946-4.941-1.419-7.431-.076-.429-.095-.899-.114-1.348-.019-.286.133-.49.398-.551.246-.061.454.061.567.327.133.265.247.551.303.837.606 2.94 1.212 5.9 1.817 8.86.038.205.057.409.076.572Zm-110.324 24.112c.019.286.019.756.094 1.184.057.327 0 .817.436.817.359 0 .473-.429.605-.735.303-.735.246-1.49.133-2.246-.038-.388-.17-.857.378-.959.455-.103.663.285.833.653.719 1.388-.038 4.083-1.325 4.839-.757.428-1.552.183-2.006-.715-.606-1.286-.587-2.634-.265-4.002.076-.367.322-.775.795-.633.36.123.398.511.379.878 0 .266-.019.511-.057.919Zm-4.808 8.351c-.114.571.321 1.429-.398 1.572-.889.204-.833-.797-.908-1.368-.36-2.736-.644-5.472-.928-8.228-.057-.551-.208-1.409.568-1.45.7-.041.681.817.757 1.389.208 1.694.398 3.409.587 5.104.113 1 .208 1.98.322 2.981Z"/>
  <path fill="#070605" d="M945.294 836.369c.549-.94.53-1.777.34-2.614-.075-.286-.151-.571-.208-.878-.019-.183.057-.408.227-.51.209-.143.455-.102.644.061.265.225.435.531.549.858.511 1.368.34 2.674-.303 3.899-.606 1.123-1.704 1.144-2.385.102-.795-1.245-1.06-2.674-.908-4.165.037-.183.113-.388.208-.551.132-.245.322-.347.568-.327.284.021.416.245.454.49.057.409.076.797.095 1.205.037.817.189 1.572.719 2.43Zm5.149 7.391c0-.715-.208-1.185-.643-1.552-.265-.225-.493-.51-.247-.898.228-.327.568-.307.89-.205.984.266 1.571 1.675 1.344 3.145-.246 1.531-1.155 2.552-2.215 2.47-1.268-.082-2.536-2.062-2.138-3.348.113-.388.34-.633.681-.674.397-.041.568.286.587.674.038.388.057.796.265 1.163.17.286.359.593.738.572.397-.02.511-.408.624-.735.076-.224.095-.469.114-.612Zm-92.384 153.553c-.019.409-.057.776-.474.858-.378.102-.605-.184-.719-.531-.568-1.837-.87-3.716-1.098-5.615-.056-.347.076-.735.474-.816.473-.082.7.245.795.674.283 1.408.548 2.858.813 4.287.076.388.152.796.209 1.123v.02Zm86.364-81.932h-1.684c-.303 0-.549-.143-.606-.49-.057-.347.133-.592.398-.714.265-.123.53-.245.795-.266 1.438-.122 2.876-.102 4.277.327.189.041.36.143.53.224.265.143.454.388.379.715a.581.581 0 0 1-.625.47c-.511-.041-1.003-.143-1.514-.205-.644-.061-1.306-.081-1.95-.122v.061Zm-21.747 11.168c-.019-.347-.038-.755.341-.898.473-.163.7.224.814.612.322 1.185.605 2.389.87 3.614.076.347 0 .756-.34.878-.455.163-.663-.225-.795-.592-.436-1.164-.757-2.368-.89-3.614Zm-39.897.184c.019.449-.379.796-.738.531-1.022-.694-1.893-1.593-2.631-2.634-.265-.367.019-.837.416-.857.738-.041 2.915 2.143 2.953 2.96Zm70.502 79.177c-.417 0-.833 0-.928-.51-.094-.49.265-.72.625-.84.265-.1.53-.18.814-.24.397-.09.795-.02.927.43.152.57-.246.81-.662.98-.246.1-.549.12-.795.18h.019Zm-17.753-180.035c-.984-.021-1.533-.307-1.514-.776.019-.49.625-.756 1.495-.633.474.082 1.174.041 1.155.755-.038.715-.7.633-1.136.654Zm20.404 261.845c.359.02.605.24.851.49 1.003.98 2.007 1.96 2.991 2.96 2.157 2.22 4.315 4.45 6.454 6.7.341.34.624.75.927 1.14.171.22.133.49-.056.69-.152.21-.398.29-.625.17-.322-.21-.644-.41-.927-.68a317.947 317.947 0 0 1-9.559-9.96c-.189-.2-.378-.47-.473-.74-.151-.4.038-.67.417-.77Zm-87.975 5.71c.019.21-.038.43-.189.54-.208.14-.492.14-.663-.05a11.546 11.546 0 0 1-2.346-3.51c-.114-.24-.095-.51.113-.69.133-.14.303-.21.511-.12.549.22 2.536 3.16 2.574 3.83Zm28.563-223.619c3.142-.081 7.211.245 11.281.939.511.102 1.003.205 1.495.388 1.76.613 2.952 1.817 3.369 3.859.53 2.593.492 5.125-.398 7.595-1.855 5.186-4.845 9.433-9.255 12.352-2.366 1.572-4.94 2.634-7.817 2.266-1.363-.183-2.65-.633-3.861-1.265-4.126-2.205-7.59-5.288-10.221-9.413-1.514-2.347-2.517-4.94-3.047-7.737-.492-2.491.114-4.574 2.158-6.085 2.139-1.572 4.561-2.184 7.079-2.511 2.744-.367 5.488-.347 9.217-.367v-.021Zm-3.804 10.78c.321.388.662.347.984.429.624.163 1.268.286 1.893.49 1.249.449 1.4 1 .605 2.082-.322.429-.681.838-1.022 1.246-2.12 2.552-4.239 5.104-6.397 7.717 1.173 1.103 2.498 1.777 3.861 2.43.416.184.662.082.946-.327 2.877-3.981 6.038-7.676 9.275-11.331.208-.245.53-.429.53-.898-.833-.245-1.685-.47-2.518-.694-1.533-.409-1.684-.838-.776-2.287 1.363-2.164 2.745-4.308 4.107-6.472.209-.327.549-.572.492-1.001-.056-.081-.075-.122-.113-.143-.644-.081-1.325-.04-1.931-.224-1.987-.633-3.274.204-4.466 1.919-1.704 2.45-3.615 4.737-5.432 7.064h-.038Zm65.903-18.334c1.552-.081 3.047.245 4.486.919 1.911.857 2.782 2.389 2.801 4.594 0 1.327-.152 2.613-.511 3.879-1.893 6.737-5.546 12.066-10.845 16.088-2.972 2.246-6.076 2.328-9.256.551-4.448-2.49-8.195-5.941-11.375-10.126-.378-.511-.7-1.062-1.041-1.613-1.06-1.633-1.041-3.287-.019-4.921 1.003-1.612 2.252-2.899 3.975-3.675 6.359-2.899 13.003-4.573 19.817-5.573.643-.082 1.305-.082 1.968-.123Zm-1.931 1.756c-1.854.041-3.539.531-5.224.796-.548.082-.757.47-.946.98-.7 1.797-1.438 3.614-2.12 5.431-.17.429-.511.817-.416 1.409 1.211-.123 2.366-.245 3.52-.388.492-.061 1.079-.265 1.42.286.378.612-.095 1.143-.379 1.633-.265.47-.567.939-.832 1.388-1.836 3.165-3.691 6.309-5.527 9.474-.284.51-.625 1-.738 1.613.662.469 1.325.837 2.025 1.061 1.949.654 2.063.592 3.066-1.327 2.48-4.736 4.826-9.555 7.703-14.026.095-.122.114-.286-.019-.49-1.003-.327-2.063-.674-3.198-.755-.871-.062-1.136-.552-.833-1.43.095-.326.284-.632.416-.959.682-1.531 1.344-3.063 2.063-4.676l.019-.02Z"/>
  <mask id="e" width="166" height="115" x="804" y="774" maskUnits="userSpaceOnUse" style="mask-type:luminance">
    <path fill="#fff" d="M804.326 774.016h164.742v114.517H804.326V774.016Z"/>
  </mask>
  <g mask="url(#e)">
    <path fill="#FEFBE5" d="M812.957 847.067c.152 2.001.587 3.777 1.571 5.349.341.552.719 1.062 1.211 1.45.247.184.53.306.776.102.303-.245.284-.633.114-.96-.189-.347-.435-.653-.662-.98-1.515-2.205-1.893-4.655-1.325-7.329a13.53 13.53 0 0 1 1.306-3.634c.567-1.062 1.211-2.062 2.328-2.532.284-.123.643-.327.53-.755-.114-.49-.511-.552-.89-.511-.908.102-1.552.674-2.101 1.388-1.287 1.675-2.044 3.594-2.517 5.676-.076.347-.057.715-.322.98-.643.654-1.249.613-1.817-.183-3.123-4.308-3.823-9.188-2.763-14.455a21.793 21.793 0 0 1 1.892-5.533c2.877-5.697 7.439-8.575 13.325-9.106 1.306-.123 2.593.184 3.842.674.795.306 1.136.142 1.193-.654.094-1.837.738-3.328 2.063-4.471 1.495-1.307 3.255-1.715 5.11-1.695 1.401 0 2.763.307 3.956 1.246.587.449.871.878.492 1.756-.662 1.551-.927 3.266-1.117 4.981-.075.613-.075 1.205.114 1.797.132.408.359.755.795.674.378-.062.435-.449.435-.817-.019-.98.038-1.919.227-2.879.133-.673.246-1.388.436-2.062.813-3.246 2.763-5.288 5.716-6.268.34-.122.719-.224 1.059-.326.379-.102.758-.286.663-.797-.076-.53-.53-.53-.89-.53-.549 0-1.097.142-1.627.347-1.836.714-3.445 1.796-4.694 3.552-1.306-1.184-2.783-1.899-4.467-2.082.057-1.082.397-1.96.719-2.838 2.044-5.737 5.716-9.719 11.016-11.964 3.217-1.368 6.302-1.123 9.236.796.852.551 1.457.612 2.271-.021 1.136-.837 2.404-1.347 3.805-1.368.814-.02 1.552.205 2.252.674 1.136.756 1.155.837.681 2.246a8.669 8.669 0 0 0-.492 2.511c-.019.449.114.837.549.919.454.102.663-.245.776-.674.057-.245.095-.49.114-.755.549-5.206 6.776-8.228 10.75-4.941.303.245.587.49.909.735.795.613 1.192.531 1.552-.51.435-1.327 1.211-2.389 2.139-3.328 1.419-1.429 3.085-2.205 5.072-2.083.492.041 1.174.245 1.211-.571.038-.797-.662-.878-1.211-.919-1.59-.143-3.047.306-4.41 1.184-1.476.939-2.631 2.246-3.52 3.818-.152.245-.246.551-.53.694-3.521-2.756-7.495-2.736-11.716 1.368-.965-1.021-2.177-1.654-3.54-1.94.341-1.776 1.098-3.266 2.12-4.593 2.044-2.655 4.581-4.431 7.817-4.819 1.193-.143 2.328 0 3.464.347 1.135.347 1.93.143 2.82-.878 2.442-2.878 5.508-4.695 9.142-5.002 2.839-.224 5.337.756 7.362 2.981.303.306.549.674.833 1.021.606.735 1.287.837 2.044.306 3.142-2.184 6.435-1.939 9.256.694.662.633 1.135.633 1.665-.02 3.218-4.165 7.457-5.431 12.189-4.696 6.227 1.001 11.129 4.471 14.612 10.147 1.382 2.246 2.177 4.696 1.949 7.452-.037.388-.132.858.265 1.082.436.225.852.041 1.136-.326.965-1.307 2.366-1.593 3.748-1.736 9.709-.918 14.63 9.657 12.51 16.558-.397 1.266-.34 1.695.928 2.083 1.874.592 3.312 1.858 4.391 3.573 2.233 3.511 2.896 7.411 1.968 11.556-.586 2.674-2.328 4.389-4.731 5.553-.379-1.633-.72-3.144-1.098-4.655-.284-1.205-.549-2.45-.947-3.634-.813-2.45-2.365-3.982-4.731-4.676-3.843-1.102-7.666-2.143-11.603-2.776-8.044-1.307-16.144-1.572-24.283-1.287-4.524.184-9.028.45-13.495 1.368a48.622 48.622 0 0 0-8.082 2.369c-.984.388-1.533.959-1.571 2.164-.038 1.102-.378 2.184-.776 3.226-2.309 6.288-5.811 11.596-11.034 15.455-2.215 1.654-4.675 2.695-7.382 3.022-2.233.265-4.259-.164-5.943-1.899a5.025 5.025 0 0 1-.322-.306c-1.079-.919-1.344-.899-2.082.326-.87 1.45-1.817 2.838-3.047 3.961-1.741 1.572-3.71 2.042-5.886 1.368-1.174-.367-2.12-1.041-2.612-2.307-.114-.265-.227-.572-.417-.776-.378-.449-.889-.326-1.079.266-.132.428-.208.857-.283 1.327-.549 3.368-2.158 6.104-4.505 8.33-1.817 1.715-3.956 2.164-6.265 1.388-1.022-.327-1.855-.919-2.517-1.837-.776-1.042-.985-1.042-1.761.04a10.585 10.585 0 0 1-1.608 1.879c-1.382 1.266-2.896 1.735-4.675 1.184-1.798-.531-3.445-1.266-4.656-2.879-.303-.388-.663-.878-1.155-.469-.568.49-.151 1.02.133 1.449.378.592.87 1.062 1.4 1.491.644.51 1.344.898 2.082 1.225 1.685.735 1.723.816 1.268 2.695-.586 2.409-1.817 4.328-3.691 5.716-1.022.776-2.119 1.225-3.425.796-.474-.142-1.136-.367-1.268.409-.133.653.454.898.965 1.041.738.225 1.457.327 2.214.082.379-.123.795-.245 1.136.224 1.211 1.695 2.915 2.654 4.675 3.471.511.225.738.49.795 1.041.378 3.675.757 7.33 1.022 11.005.057.674-.189.817-.738.939-3.559.837-7.022 2.001-10.41 3.43-.795.327-1.514.306-2.29-.02-1.003-.449-1.874-1.103-2.65-1.94-3.142-3.471-4.259-7.615-3.445-12.372.227-1.368.246-1.368-.833-1.96-3.312-1.797-5.28-4.717-6.075-8.575-1.212-5.819.075-10.801 4.221-14.823.473-.469.984-.898 1.684-1.204l-.038-.021Z"/>
  </g>
  <path fill="#FEFBE5" d="M947.794 1028.18c.246.55.132 1.13.132 1.66.019 4.79.019 9.61.36 14.39.17 2.57.435 5.13 1.003 7.64.662 2.9 1.817 5.51 3.539 7.82 1.079 1.45 2.215 2.85 3.369 4.24.454.53.606 1 .473 1.74a40.674 40.674 0 0 1-4.429 12.19c-2.441 4.41-5.943 7.61-10.126 9.96-2.063 1.14-4.315 1.57-6.624 1.67-.454.02-.795-.1-1.117-.47-3.691-3.92-7.362-7.88-10.504-12.35-3.71-5.24-5.754-11.25-6.928-17.66-.681-3.67-1.154-7.37-1.23-11.12-.019-.92.189-1.66.644-2.41 2.555-4.31 5.962-7.58 10.126-9.97 4.561-2.63 9.425-4.31 14.384-5.75 1.798-.54 3.615-.98 5.432-1.43.473-.13.984-.31 1.496-.15Zm-120.226 42.1c-.076-4.16.871-7.55 2.461-10.78 1.684-3.45 3.861-6.53 6.17-9.53 3.52-4.6 7.381-8.84 11.318-13.01 1.552-1.67 3.218-3.24 4.694-4.98.946-1.12 1.931-1.51 3.293-1.33 6.341.84 12.284 2.82 17.451 7.05 1.533 1.24 2.915 2.69 3.994 4.43.852 1.37.833 1.39-.208 2.51-4.24 4.51-8.177 9.27-11.906 14.29-1.798 2.41-3.16 5.08-4.372 7.88-.832 1.92-.984 3.8.019 5.66.284.55.322 1-.019 1.51-.359.55-.586 1.16-.984 1.67-3.539 4.39-7.628 8.01-12.757 10.05-3.785 1.51-7.646 1.61-11.507.26-.644-.22-1.136-.55-1.534-1.18-1.078-1.72-2.176-3.41-3.35-5.04-2.063-2.96-2.858-6.31-2.763-9.48v.02Zm-23.242 80.12c3.577 1.61 7.117 1.57 10.675 1.65 6.038.14 12-.65 17.981-1.43 3.747-.49 7.495-.92 11.242-1.41 3.294-.43 6.568-.87 9.786-1.81.719-.21 1.419-.49 2.101-.78 1.211-.51 2.214-1.27 2.877-2.51.416-.8.965-1.49 1.589-2.12.795-.82 1.723-1.17 2.802-.76.757.29 1.514.51 2.233.88 3.161 1.67 6.36 1.71 9.634.47 4.448-1.66 8.82-3.55 13.003-5.92.359-.21.681-.51 1.211-.59.152 1.67-.17 3.28-.378 4.9-.36 2.69-.909 5.36-1.287 8.06-.246 1.65-1.004 2.67-2.518 3.23-3.804 1.38-7.589 2.75-11.583 3.41-2.536.4-4.808-.23-6.908-1.76-.758-.55-1.477-1.23-2.234-1.8-1.382-1.04-2.385-1-3.672.21a7.746 7.746 0 0 0-1.93 2.94c-.776 2.04-2.177 2.98-4.126 3.37-6.738 1.3-13.458 2.83-20.29 3.49-6.587.63-13.192 1.39-19.836.73-1.855-.18-3.691-.43-5.526-.81-1.855-.39-2.896-1.62-3.521-3.39-.927-2.58-1.136-5.29-1.325-8.25Zm141.461 13.11c4.164.85 8.139.95 12.151.63 3.653-.29 7.174-1.27 10.713-2.17 6.095-1.53 11.981-3.69 17.754-6.28 2.839-1.27 4.731-3.21 5.867-6.23 1.533-4.02 2.953-8.07 3.729-12.35.284-1.53.151-3-.492-4.41-.36-.78-.701-1.56-.947-2.37-.397-1.29-.151-1.86 1.003-2.39a13.5 13.5 0 0 1 2.12-.76c1.798-.45 3.085-1.59 4.105-3.18 1.84-2.86 3.11-5.96 3.88-9.33.76-3.33 1.52-6.68 2.27-10.01.4-.16.61.19.84.37 1.42 1.15 2.76 2.39 3.97 3.82 1.48 1.8 2.01 3.8 1.48 6.17-.97 4.3-2.58 8.33-4.85 12-1.13 1.82-2.67 2.9-4.71 3.17-1.78.24-2.39 1.26-2.03 3.16.16.86.48 1.65.93 2.37.93 1.41 1.1 2.96.82 4.61-.48 2.64-.95 5.25-1.41 7.88-.34 2.04-.71 4.07-1.21 6.07-.68 2.77-2.003 5-4.236 6.69-3.029 2.33-6.341 4.03-9.861 5.27-4.997 1.76-9.937 3.74-15.085 4.94a102.519 102.519 0 0 1-15.918 2.45c-1.911.14-3.804-.14-5.678-.67-1.722-.49-2.896-1.76-3.71-3.43-.87-1.82-1.078-3.84-1.495-6.02Zm16.315-43.41c-1.438-2-2.688-4-3.823-6.08-.587-1.05-.549-1.96.057-2.97 1.116-1.87 2.479-3.53 4.145-4.85 1.552-1.25 2.555-1.25 4.012.08 2.574 2.32 4.656 5.06 5.83 8.69-3.767.8-7.079 2.66-10.221 5.13Zm-114.755-3.86c-1.968-2.39-3.899-3.82-7.628-5.68-.132-.42.209-.61.379-.87.871-1.25 1.779-2.47 2.631-3.74.511-.73 1.173-1.12 2.006-1.16 3.142-.13 5.621.9 6.795 3.65.416.96.454 1.78-.17 2.68-1.231 1.75-2.518 3.49-4.013 5.14v-.02Zm116.646 11.25c-.246-2.06-.264-3.94-.965-5.7-.132-.34-.038-.57.227-.75 2.688-2.02 5.508-3.72 8.764-4.43.7-.17.927.16 1.078.77a32.052 32.052 0 0 1 1.098 7.27c-3.71-.53-6.965.88-10.202 2.82v.02Zm-.358 6.62c.227-1.52.359-2.82.322-4.13 0-.39.037-.69.378-.92 2.801-1.77 5.678-3.26 9.066-2.96.644.06.909.25.871 1-.133 2.17-.436 4.31-1.06 6.39-.114.39-.246.66-.663.57-2.914-.51-5.829-.42-8.914.05Zm-120.547-13.28c-2.157-2.63-4.807-4.2-7.57-5.67.946-1.06 1.854-2.08 2.744-3.13.246-.3.454-.38.833-.18 1.911 1.06 3.842 2.06 5.508 3.55.473.43.87.92 1.324 1.37.379.41.341.74-.037 1.12-.928.94-1.817 1.9-2.802 2.92v.02Zm-.984 1c-.946.92-1.873 1.78-2.763 2.68-.303.31-.53.24-.814-.04-2.214-2.21-4.769-3.86-7.589-5.31.681-.57 1.305-1.08 1.892-1.59 1.552-1.35 1.552-1.37 3.369-.37 2.12 1.18 4.126 2.55 5.905 4.61v.02Zm-9.919-251.713c-1.741-.796-3.085-1.715-4.296-3.082 1.419-1.083 2.555-2.369 3.577-4.165.303 1.327.265 2.45.36 3.552.113 1.143.227 2.287.359 3.695Zm60.548 10.474c1.817-2.327 3.748-4.614 5.432-7.064 1.193-1.735 2.48-2.552 4.467-1.919.606.184 1.287.143 1.931.225.037 0 .075.061.113.142.076.429-.284.674-.492 1.001-1.363 2.164-2.744 4.308-4.107 6.472-.909 1.449-.738 1.878.776 2.287.852.224 1.684.449 2.517.694.019.469-.322.653-.53.898-3.236 3.655-6.397 7.35-9.274 11.331-.284.409-.53.511-.928.327-1.362-.653-2.706-1.327-3.861-2.43 2.158-2.613 4.259-5.165 6.379-7.717.34-.408.7-.817 1.022-1.245.795-1.083.643-1.634-.606-2.083-.605-.204-1.268-.306-1.893-.49-.302-.082-.662-.061-.965-.429h.019Zm63.956-16.578c-.72 1.633-1.401 3.165-2.063 4.696-.152.326-.322.633-.436.959-.284.878-.038 1.348.852 1.43 1.136.081 2.177.428 3.199.755.113.204.113.367.019.49-2.877 4.471-5.243 9.29-7.704 14.026-1.003 1.919-1.116 1.96-3.066 1.327-.719-.224-1.363-.592-2.025-1.061.113-.633.454-1.123.738-1.613 1.817-3.165 3.672-6.309 5.527-9.474.265-.469.568-.918.832-1.388.284-.51.758-1.021.379-1.654-.341-.531-.927-.326-1.438-.265-1.136.143-2.291.265-3.521.388-.076-.592.265-1.001.417-1.429.7-1.817 1.438-3.614 2.138-5.431.19-.49.398-.878.928-.98 1.703-.245 3.369-.756 5.243-.776h-.019Z"/>
</svg>
