<svg width="1175" height="2971" viewBox="0 0 1175 2971" fill="none" xmlns="http://www.w3.org/2000/svg">
<path d="M169 605.422V2570.57C169 2791.17 131.168 2970 84.5 2970C37.832 2970 0 2791.17 0 2570.57V605.422C0 384.828 37.832 206 84.5 206C131.168 206 169 384.828 169 605.422Z" fill="white" fill-opacity="0.1"/>
<path d="M168.5 605.422V2570.57C168.5 2680.85 159.044 2780.67 143.761 2852.91C136.119 2889.03 127.026 2918.23 116.944 2938.39C111.903 2948.47 106.627 2956.26 101.182 2961.53C95.7394 2966.79 90.1619 2969.5 84.5 2969.5C78.8381 2969.5 73.2606 2966.79 67.8179 2961.53C62.3733 2956.26 57.0973 2948.47 52.056 2938.39C41.9742 2918.23 32.8807 2889.03 25.2387 2852.91C9.9563 2780.67 0.5 2680.85 0.5 2570.57V605.422C0.5 495.149 9.9563 395.33 25.2387 323.092C32.8807 286.968 41.9742 257.769 52.056 237.612C57.0973 227.533 62.3733 219.741 67.8179 214.474C73.2606 209.21 78.8381 206.5 84.5 206.5C90.1619 206.5 95.7394 209.21 101.182 214.474C106.627 219.741 111.903 227.533 116.944 237.612C127.026 257.769 136.119 286.968 143.761 323.092C159.044 395.33 168.5 495.149 168.5 605.422Z" stroke="black" stroke-opacity="0.08"/>
<path d="M880 675.717V2583.28C880 2797.42 842.168 2971 795.5 2971C748.832 2971 711 2797.42 711 2583.28V675.717C711 461.587 748.832 288 795.5 288C842.168 288 880 461.587 880 675.717Z" fill="white" fill-opacity="0.1"/>
<path d="M879.5 675.717V2583.28C879.5 2690.32 870.044 2787.22 854.762 2857.33C847.12 2892.4 838.027 2920.74 827.947 2940.3C822.906 2950.08 817.631 2957.65 812.187 2962.76C806.746 2967.87 801.167 2970.5 795.5 2970.5C789.833 2970.5 784.254 2967.87 778.813 2962.76C773.369 2957.65 768.094 2950.08 763.053 2940.3C752.973 2920.74 743.88 2892.4 736.238 2857.33C720.956 2787.22 711.5 2690.32 711.5 2583.28V675.717C711.5 568.677 720.956 471.785 736.238 401.666C743.88 366.603 752.973 338.261 763.053 318.698C768.094 308.915 773.369 301.353 778.813 296.242C784.254 291.133 789.833 288.5 795.5 288.5C801.167 288.5 806.746 291.133 812.187 296.242C817.631 301.353 822.906 308.915 827.947 318.698C838.027 338.261 847.12 366.603 854.762 401.666C870.044 471.785 879.5 568.677 879.5 675.717Z" stroke="black" stroke-opacity="0.08"/>
<path d="M505 567.78V2564.22C505 2788.33 467.168 2970 420.5 2970C373.832 2970 336 2788.33 336 2564.22V567.78C336 343.674 373.832 162 420.5 162C467.168 162 505 343.674 505 567.78Z" fill="white" fill-opacity="0.1"/>
<path d="M504.5 567.78V2564.22C504.5 2676.25 495.044 2777.66 479.761 2851.05C472.119 2887.75 463.025 2917.41 452.943 2937.89C447.901 2948.13 442.624 2956.05 437.179 2961.4C431.736 2966.75 426.159 2969.5 420.5 2969.5C414.841 2969.5 409.264 2966.75 403.821 2961.4C398.376 2956.05 393.099 2948.13 388.057 2937.89C377.975 2917.41 368.881 2887.75 361.239 2851.05C345.956 2777.66 336.5 2676.25 336.5 2564.22V567.78C336.5 455.751 345.956 354.342 361.239 280.952C368.881 244.254 377.975 214.588 388.057 194.109C393.099 183.869 398.376 175.951 403.821 170.601C409.264 165.252 414.841 162.5 420.5 162.5C426.159 162.5 431.736 165.252 437.179 170.601C442.624 175.951 447.901 183.869 452.943 194.109C463.025 214.588 472.119 244.254 479.761 280.952C495.044 354.342 504.5 455.751 504.5 567.78Z" stroke="black" stroke-opacity="0.08"/>
<path d="M1175 429.335V2541.66C1175 2778.78 1137.17 2971 1090.5 2971C1043.83 2971 1006 2778.78 1006 2541.66V429.335C1006 192.22 1043.83 0 1090.5 0C1137.17 0 1175 192.22 1175 429.335Z" fill="white" fill-opacity="0.1"/>
<path d="M1174.5 429.335V2541.66C1174.5 2660.2 1165.04 2767.5 1149.76 2845.15C1142.12 2883.99 1133.02 2915.38 1122.94 2937.05C1117.89 2947.89 1112.62 2956.27 1107.17 2961.93C1101.72 2967.59 1096.15 2970.5 1090.5 2970.5C1084.85 2970.5 1079.28 2967.59 1073.83 2961.93C1068.38 2956.27 1063.11 2947.89 1058.06 2937.05C1047.98 2915.38 1038.88 2883.99 1031.24 2845.15C1015.96 2767.5 1006.5 2660.2 1006.5 2541.66V429.335C1006.5 310.8 1015.96 203.5 1031.24 125.846C1038.88 87.0149 1047.98 55.6227 1058.06 33.9503C1063.11 23.1127 1068.38 14.7327 1073.83 9.06918C1079.28 3.40613 1084.85 0.5 1090.5 0.5C1096.15 0.5 1101.72 3.40613 1107.17 9.06918C1112.62 14.7327 1117.89 23.1127 1122.94 33.9503C1133.02 55.6227 1142.12 87.0149 1149.76 125.846C1165.04 203.5 1174.5 310.8 1174.5 429.335Z" stroke="black" stroke-opacity="0.08"/>
</svg>
