<svg xmlns="http://www.w3.org/2000/svg" width="201" height="25" fill="none" viewBox="0 0 201 25">
  <path fill="#fff" d="M8.394 15.071c0 .166.078.279.234.337.234-.263.566-.493.996-.688.43-.205.913-.308 1.45-.308 1.026 0 1.875.303 2.549.908l.103.088c.126-.068.19-.19.19-.366 0-.303-.24-.59-.718-.864-.556-.303-1.27-.454-2.138-.454-.235 0-.45.02-.645.058V9.96c0-.42-.146-.63-.44-.63-.283 0-.424.215-.424.645v4.013c-.772.313-1.157.674-1.157 1.084Zm1.2 6.944c-1.689 0-3.222-.318-4.599-.953-1.377-.644-2.475-1.635-3.296-2.973C.781 16.575.322 14.69.322 12.435c0-2.256.469-4.156 1.407-5.699.84-1.386 1.977-2.417 3.413-3.09C6.587 2.972 8.14 2.635 9.8 2.635c3.027 0 5.4.888 7.119 2.666 1.729 1.767 2.593 4.082 2.593 6.943 0 1.748-.371 3.281-1.114 4.6h2.125c.351 1.054.527 2.05.527 2.988 0 1.426-.396 2.573-1.187 3.442-.79.87-1.894 1.304-3.31 1.304-1.416 0-2.593-.469-3.53-1.406-.928-.928-1.685-2.398-2.271-4.41h-.073c-.313 0-.469.157-.469.47 0 .585.327 1.484.981 2.695-.507.058-1.04.088-1.596.088Zm19.586-6.402a.669.669 0 0 0 .38-.146c-.097-.322-.146-.825-.146-1.509V6.722c1.035-.625 2.28-.938 3.735-.938.82 0 1.538.112 2.154.337.625.215 1.103.503 1.435.864v7.632c0 1.455.352 2.402 1.055 2.842.01.049.015.142.015.278v.264c0 1.426-.376 2.505-1.128 3.237-.684.684-1.626 1.026-2.828 1.026a4.15 4.15 0 0 1-2.05-.513 3.22 3.22 0 0 1-1.363-1.494c-.332 0-.498.161-.498.483 0 .225.113.45.337.674a3.78 3.78 0 0 1-1.128.615c-.44.157-1.088.235-1.948.235a6.2 6.2 0 0 1-2.49-.528c-1.006-.43-1.777-1.088-2.314-1.977-.655-1.055-.982-2.393-.982-4.014v-3.677a5.673 5.673 0 0 1-.747-2.87c0-.538.068-1.094.205-1.67a4.643 4.643 0 0 1 .66-1.539h3.222c1.21 0 2.158.288 2.842.865.693.566 1.04 1.43 1.04 2.592v4.746c0 .948.18 1.421.542 1.421Zm24.096-.864c0 .703.078 1.27.235 1.7.156.429.43.766.82 1.01.01.049.015.142.015.278v.264c0 1.387-.42 2.466-1.26 3.237-.742.684-1.66 1.026-2.754 1.026a4.03 4.03 0 0 1-2.036-.528 2.965 2.965 0 0 1-1.319-1.523c-.331 0-.497.161-.497.483 0 .274.17.581.512.923-.635.43-1.592.645-2.87.645-1.807 0-3.253-.489-4.337-1.465-1.074-.986-1.611-2.359-1.611-4.116 0-1.768.571-3.135 1.714-4.102 1.045-.87 2.397-1.304 4.057-1.304.567 0 1.114.04 1.64.118.352.068.543.107.572.117a.892.892 0 0 0 .044-.25c0-.253-.215-.424-.644-.512-.43-.088-.992-.132-1.685-.132-1.474 0-2.734.298-3.78.894-.478-.81-.717-1.836-.717-3.076 0-.704.088-1.226.264-1.568.703-.322 1.596-.605 2.68-.85a14.99 14.99 0 0 1 3.428-.38c2.48 0 4.355.542 5.625 1.626 1.27 1.084 1.904 2.622 1.904 4.614v2.871Zm-7.602.718c-.41 0-.615.185-.615.556 0 .352.239.528.717.528.332 0 .576-.078.733-.235.156-.166.234-.449.234-.85h-1.07ZM62.402 4.319v10.298c0 1.455.352 2.402 1.055 2.842.01.049.015.142.015.278v.264c0 1.396-.357 2.456-1.07 3.179-.703.722-1.704 1.084-3.003 1.084-1.298 0-2.329-.362-3.09-1.084-.909-.86-1.363-2.159-1.363-3.897V2.063c1.026-.625 2.198-.937 3.516-.937 1.328 0 2.314.283 2.959.85.654.556.981 1.337.981 2.343ZM85.68 14.75c0 .703.078 1.27.234 1.7.156.429.43.766.82 1.01.01.049.015.142.015.278v.264c0 1.387-.42 2.466-1.26 3.237-.742.684-1.66 1.026-2.754 1.026a4.03 4.03 0 0 1-2.036-.528 2.965 2.965 0 0 1-1.318-1.523c-.332 0-.498.161-.498.483 0 .274.17.581.512.923-.634.43-1.591.645-2.87.645-1.807 0-3.252-.489-4.337-1.465-1.074-.986-1.61-2.359-1.61-4.116 0-1.768.57-3.135 1.713-4.102 1.045-.87 2.397-1.304 4.058-1.304.566 0 1.113.04 1.64.118.352.068.542.107.572.117a.891.891 0 0 0 .043-.25c0-.253-.214-.424-.644-.512-.43-.088-.991-.132-1.685-.132-1.474 0-2.734.298-3.779.894-.478-.81-.718-1.836-.718-3.076 0-.704.088-1.226.264-1.568.703-.322 1.597-.605 2.68-.85a14.99 14.99 0 0 1 3.428-.38c2.48 0 4.356.542 5.625 1.626 1.27 1.084 1.905 2.622 1.905 4.614v2.871Zm-7.603.718c-.41 0-.615.185-.615.556 0 .352.24.528.718.528.332 0 .576-.078.732-.235.156-.166.234-.449.234-.85h-1.069Zm23.291.542a.48.48 0 0 0 .352.146c.215 0 .361-.151.439-.454.078-.312.117-.937.117-1.875v-1.494c0-.264-.034-.45-.102-.557-.069-.107-.181-.16-.337-.16-.156 0-.269.033-.337.102v1.963c0 .586-.044 1.362-.132 2.329Zm.586-11.997v1.303a9.89 9.89 0 0 0-2.256.381c-.683.196-1.025.425-1.025.689 0 .156.078.283.234.38a7.645 7.645 0 0 1 3.413-.79c2.149 0 3.907.742 5.274 2.226 1.377 1.475 2.065 3.399 2.065 5.772 0 2.87-.83 5.034-2.49 6.489-1.514 1.328-3.574 1.992-6.182 1.992-2.597 0-4.511-.503-5.742-1.509-.674-.556-1.01-1.279-1.01-2.168V2.063c.468-.273 1.03-.498 1.684-.673a7.811 7.811 0 0 1 2.007-.264c1.123 0 2.05.22 2.783.66.83.517 1.245 1.259 1.245 2.226Zm16.172 9.829v2.563c.068.069.181.103.337.103.156 0 .268-.054.337-.161.068-.108.102-.293.102-.557v-2.095c0-.937-.039-1.557-.117-1.86-.078-.313-.224-.469-.439-.469a.48.48 0 0 0-.352.147c.088.966.132 1.743.132 2.329Zm-5.479 6.49c-1.601-1.544-2.402-3.634-2.402-6.27 0-2.647.752-4.732 2.256-6.255 1.514-1.534 3.496-2.3 5.947-2.3s4.434.796 5.948 2.388c1.503 1.591 2.255 3.666 2.255 6.225 0 2.549-.727 4.575-2.182 6.08-1.446 1.503-3.413 2.255-5.904 2.255-2.49 0-4.462-.708-5.918-2.124Zm29.576-5.582c0 .703.078 1.27.234 1.7.156.429.43.766.82 1.01.01.049.015.142.015.278v.264c0 1.387-.42 2.466-1.26 3.237-.742.684-1.66 1.026-2.754 1.026a4.03 4.03 0 0 1-2.036-.528 2.966 2.966 0 0 1-1.318-1.523c-.332 0-.498.161-.498.483 0 .274.171.581.513.923-.635.43-1.592.645-2.872.645-1.806 0-3.252-.489-4.336-1.465-1.074-.986-1.611-2.359-1.611-4.116 0-1.768.571-3.135 1.714-4.102 1.045-.87 2.397-1.304 4.058-1.304.566 0 1.113.04 1.64.118.352.068.542.107.572.117a.897.897 0 0 0 .043-.25c0-.253-.214-.424-.644-.512-.43-.088-.991-.132-1.685-.132-1.474 0-2.734.298-3.779.894-.478-.81-.718-1.836-.718-3.076 0-.704.088-1.226.264-1.568.703-.322 1.597-.605 2.681-.85a14.984 14.984 0 0 1 3.427-.38c2.481 0 4.356.542 5.625 1.626 1.27 1.084 1.905 2.622 1.905 4.614v2.871Zm-7.603.718c-.41 0-.615.185-.615.556 0 .352.239.528.718.528.332 0 .576-.078.732-.235.156-.166.234-.449.234-.85h-1.069Zm15.806-7.661c0-.479-.191-.718-.571-.718-.401 0-.601.21-.601.63 0 .136.015.249.044.337.039.088.063.151.073.19-.107.088-.386.225-.835.41-1.797.733-2.954 1.534-3.472 2.403-.83-.254-1.542-.772-2.138-1.553a4.385 4.385 0 0 1-.894-2.71c0-1.787.738-3.267 2.212-4.439C145.718 1.185 147.554.6 149.751.6c2.705 0 4.785.688 6.24 2.065 1.309 1.25 1.963 2.866 1.963 4.849 0 1.191-.259 2.256-.776 3.193a8.498 8.498 0 0 1-1.89 2.344 10.377 10.377 0 0 1-2.226 1.48 3.192 3.192 0 0 0-.894-.616c-.322-.156-.581-.234-.776-.234-.186 0-.318.034-.396.102-.078.059-.117.18-.117.366.898.264 1.621.752 2.168 1.465.547.713.82 1.538.82 2.476 0 1.103-.415 2.056-1.245 2.856-.85.801-1.851 1.201-3.003 1.201-1.152 0-2.143-.4-2.973-1.2-.831-.802-1.246-1.754-1.246-2.857 0-.938.264-1.763.791-2.476-.625-.644-.937-1.391-.937-2.24 0-1.026.278-1.847.835-2.462.478-.508 1.406-1.07 2.783-1.684.566-.235.967-.46 1.201-.674.235-.225.352-.474.352-.747ZM162.78 22v-.816l4.656-4.56c.427-.416.747-.779.96-1.088a3.07 3.07 0 0 0 .432-.896c.075-.277.112-.539.112-.784 0-.65-.224-1.163-.672-1.536-.437-.373-1.088-.56-1.952-.56-.661 0-1.248.101-1.76.304a3.316 3.316 0 0 0-1.296.944l-.816-.704a4.293 4.293 0 0 1 1.68-1.184c.683-.277 1.446-.416 2.288-.416.758 0 1.414.123 1.968.368.555.235.982.581 1.28 1.04.31.459.464.997.464 1.616 0 .363-.053.72-.16 1.072-.096.352-.277.725-.544 1.12-.256.384-.634.821-1.136 1.312l-4.272 4.192-.32-.448h6.944V22h-7.856Zm13.735.096c-.864 0-1.632-.224-2.304-.672-.672-.459-1.2-1.11-1.584-1.952-.384-.853-.576-1.877-.576-3.072s.192-2.213.576-3.056c.384-.853.912-1.504 1.584-1.952.672-.459 1.44-.688 2.304-.688.864 0 1.632.23 2.304.688.672.448 1.2 1.099 1.584 1.952.394.843.592 1.861.592 3.056s-.198 2.219-.592 3.072c-.384.843-.912 1.493-1.584 1.952-.672.448-1.44.672-2.304.672Zm0-1.056c.661 0 1.237-.176 1.728-.528.49-.363.874-.885 1.152-1.568.277-.693.416-1.541.416-2.544 0-1.003-.139-1.845-.416-2.528-.278-.693-.662-1.216-1.152-1.568-.491-.363-1.067-.544-1.728-.544-.64 0-1.211.181-1.712.544-.502.352-.891.875-1.168 1.568-.278.683-.416 1.525-.416 2.528 0 1.003.138 1.85.416 2.544.277.683.666 1.205 1.168 1.568a2.906 2.906 0 0 0 1.712.528Zm5.922.96v-.816l4.656-4.56c.426-.416.746-.779.96-1.088.213-.32.357-.619.432-.896a3.05 3.05 0 0 0 .112-.784c0-.65-.224-1.163-.672-1.536-.438-.373-1.088-.56-1.952-.56-.662 0-1.248.101-1.76.304a3.301 3.301 0 0 0-1.296.944l-.816-.704c.437-.512.997-.907 1.68-1.184.682-.277 1.445-.416 2.288-.416.757 0 1.413.123 1.968.368.554.235.981.581 1.28 1.04.309.459.464.997.464 1.616a3.7 3.7 0 0 1-.16 1.072c-.096.352-.278.725-.544 1.12-.256.384-.635.821-1.136 1.312l-4.272 4.192-.32-.448h6.944V22h-7.856Zm8.75-2.944v-.832l5.936-7.424h1.28l-5.888 7.424-.624-.192h9.008v1.024h-9.712Zm6.32 2.944v-2.944l.032-1.024V15.44h1.12V22h-1.152Z"/>
</svg>
