<svg width="1440" height="748" viewBox="0 0 1440 748" fill="none" xmlns="http://www.w3.org/2000/svg">
<path d="M1247.71 -1193C1025.91 5.90808 946.498 -1050.33 612.532 -392.983C329.114 -483.846 225.638 -906.298 195.348 -721.464C172 -578.982 36.3344 -761.083 -93.0104 -721.465C-185.202 -699.22 -304.317 -828.515 -282.921 -655.674C-261.523 -482.833 -296.269 -783.294 -360.831 -721.465C-425.393 -659.625 -407.717 -835.832 -428.902 -721.465C-464.785 -527.872 -391.84 -325.097 -257.401 -235.197C-106.327 -136.317 -25.1908 -28.0757 -35.802 196.419C-38.4539 252.528 -20.6515 551.042 195.348 460.807C249.902 438.025 475.58 284.338 612.532 569.574C646.631 640.597 731.072 710.485 808.232 735.25C1015.15 801.568 1226.7 600.942 1247.71 324.697C1270.5 120.298 1298.77 24.4512 1466.77 95.8439C1633 166.484 1732.48 -137.821 1639.47 -293.932C1510.38 -469.877 1664.41 -786.302 1713.33 -1050.33C1780.19 -1411.23 1576.21 131.282 1247.71 -1193Z" fill="#FEF1CE"/>
</svg>
