<svg xmlns="http://www.w3.org/2000/svg" width="1440" height="4193" fill="none" viewBox="0 0 1440 4193">
  <g clip-path="url(#a)">
    <path fill="#DB8402" d="M0 0h1440v4193H0z"/>
    <path fill="#fff" fill-opacity=".1" d="M1324 626.098V3312.9c0 301.61-37.83 546.1-84.5 546.1s-84.5-244.49-84.5-546.1V626.098C1155 324.497 1192.83 80 1239.5 80s84.5 244.497 84.5 546.098Z"/>
    <path stroke="#000" stroke-opacity=".08" d="M1323.5 626.098V3312.9c0 150.78-9.46 287.28-24.74 386.08-7.65 49.4-16.75 89.34-26.84 116.93-5.05 13.8-10.33 24.48-15.79 31.69-5.47 7.23-11.03 10.9-16.63 10.9s-11.16-3.67-16.63-10.9c-5.46-7.21-10.74-17.89-15.79-31.69-10.09-27.59-19.19-67.53-26.84-116.93-15.28-98.8-24.74-235.3-24.74-386.08V626.098c0-150.783 9.46-287.281 24.74-386.073 7.65-49.4 16.75-89.35 26.84-116.938 5.05-13.797 10.33-24.473 15.79-31.69 5.47-7.23 11.03-10.897 16.63-10.897s11.16 3.668 16.63 10.896c5.46 7.218 10.74 17.894 15.79 31.691 10.09 27.588 19.19 67.538 26.84 116.938 15.28 98.792 24.74 235.29 24.74 386.073Z"/>
    <ellipse cx="1375" cy="2110" fill="#fff" fill-opacity=".2" rx="29" ry="28"/>
    <ellipse cx="1269.5" cy="2276.5" fill="#fff" fill-opacity=".25" rx="54.5" ry="51.5"/>
    <ellipse cx="1413.5" cy="2367" fill="#fff" fill-opacity=".25" rx="38.5" ry="39"/>
    <path fill="#fff" fill-opacity=".1" d="M981 591.098V3277.9c0 301.61-37.832 546.1-84.5 546.1S812 3579.51 812 3277.9V591.098C812 289.497 849.832 45 896.5 45S981 289.497 981 591.098Z"/>
    <path stroke="#000" stroke-opacity=".08" d="M980.5 591.098V3277.9c0 150.78-9.457 287.28-24.744 386.08-7.643 49.4-16.742 89.34-26.834 116.93-5.048 13.8-10.334 24.48-15.791 31.69-5.466 7.23-11.032 10.9-16.631 10.9s-11.165-3.67-16.631-10.9c-5.457-7.21-10.743-17.89-15.791-31.69-10.092-27.59-19.191-67.53-26.834-116.93-15.287-98.8-24.744-235.3-24.744-386.08V591.098c0-150.783 9.457-287.281 24.744-386.073 7.643-49.4 16.742-89.35 26.834-116.938 5.048-13.797 10.334-24.473 15.791-31.69 5.466-7.23 11.032-10.897 16.631-10.897s11.165 3.668 16.631 10.896c5.457 7.218 10.743 17.894 15.791 31.69 10.092 27.589 19.191 67.539 26.834 116.939 15.287 98.792 24.744 235.29 24.744 386.073Z"/>
    <path fill="#fff" fill-opacity=".1" d="M643 597.688V3292.31c0 302.48-37.832 547.69-84.5 547.69S474 3594.79 474 3292.31V597.688C474 295.209 511.832 50 558.5 50S643 295.209 643 597.688Z"/>
    <path stroke="#000" stroke-opacity=".08" d="M642.5 597.688V3292.31c0 151.22-9.457 288.12-24.744 387.2-7.644 49.54-16.742 89.61-26.835 117.28-5.047 13.84-10.333 24.54-15.791 31.78-5.466 7.25-11.032 10.93-16.63 10.93-5.598 0-11.164-3.68-16.63-10.93-5.458-7.24-10.744-17.94-15.791-31.78-10.093-27.67-19.191-67.74-26.835-117.28-15.287-99.08-24.744-235.98-24.744-387.2V597.688c0-151.223 9.457-288.118 24.744-387.198 7.644-49.543 16.742-89.609 26.835-117.279 5.047-13.837 10.333-24.544 15.791-31.783 5.466-7.25 11.032-10.928 16.63-10.928 5.598 0 11.164 3.678 16.63 10.928 5.458 7.239 10.744 17.946 15.791 31.783 10.093 27.67 19.191 67.736 26.835 117.279 15.287 99.08 24.744 235.975 24.744 387.198Z"/>
    <path fill="#fff" fill-opacity=".1" d="M304 602.688V3297.31c0 302.48-37.832 547.69-84.5 547.69S135 3599.79 135 3297.31V602.688C135 300.209 172.832 55 219.5 55S304 300.209 304 602.688Z"/>
    <path stroke="#000" stroke-opacity=".08" d="M303.5 602.688V3297.31c0 151.22-9.457 288.12-24.744 387.2-7.644 49.54-16.742 89.61-26.835 117.28-5.047 13.84-10.333 24.54-15.791 31.78-5.466 7.25-11.032 10.93-16.63 10.93-5.598 0-11.164-3.68-16.63-10.93-5.458-7.24-10.744-17.94-15.791-31.78-10.093-27.67-19.191-67.74-26.835-117.28-15.287-99.08-24.744-235.98-24.744-387.2V602.688c0-151.223 9.457-288.118 24.744-387.198 7.644-49.543 16.742-89.609 26.835-117.279 5.047-13.837 10.333-24.544 15.791-31.783 5.466-7.25 11.032-10.928 16.63-10.928 5.598 0 11.164 3.678 16.63 10.928 5.458 7.239 10.744 17.946 15.791 31.783 10.093 27.67 19.191 67.736 26.835 117.279 15.287 99.08 24.744 235.975 24.744 387.198Z"/>
    <path fill="#FEF1CE" d="M1247.71-1193C1025.91 5.908 946.498-1050.33 612.532-392.983c-283.418-90.863-386.894-513.315-417.184-328.481C172-578.982 36.334-761.083-93.01-721.465c-92.192 22.245-211.307-107.05-189.911 65.791 21.398 172.841-13.348-127.62-77.91-65.791-64.562 61.84-46.886-114.367-68.071 0-35.883 193.593 37.062 396.368 171.501 486.268 151.074 98.88 232.21 207.121 221.599 431.616-2.652 56.109 15.15 354.623 231.15 264.388 54.554-22.782 280.232-176.469 417.184 108.767 34.099 71.023 118.54 140.911 195.7 165.676 206.918 66.318 418.468-134.308 439.478-410.553 22.79-204.399 51.06-300.246 219.06-228.853 166.23 70.64 265.71-233.665 172.7-389.776-129.09-175.945 24.94-492.37 73.86-756.398 66.86-360.9-137.12 1181.612-465.62-142.67Z"/>
    <ellipse cx="1325" cy="543" fill="#fff" fill-opacity=".2" rx="29" ry="28"/>
    <ellipse cx="1219.5" cy="709.5" fill="#fff" fill-opacity=".25" rx="54.5" ry="51.5"/>
  </g>
  <defs>
    <clipPath id="a">
      <path fill="#fff" d="M0 0h1440v4193H0z"/>
    </clipPath>
  </defs>
</svg>
