<svg width="1440" height="3067" viewBox="0 0 1440 3067" fill="none" xmlns="http://www.w3.org/2000/svg">
<path d="M307 701.422V2666.57C307 2887.17 269.168 3066 222.5 3066C175.832 3066 138 2887.17 138 2666.57V701.422C138 480.828 175.832 302 222.5 302C269.168 302 307 480.828 307 701.422Z" fill="white" fill-opacity="0.1"/>
<path d="M306.5 701.422V2666.57C306.5 2776.85 297.044 2876.67 281.761 2948.91C274.119 2985.03 265.026 3014.23 254.944 3034.39C249.903 3044.47 244.627 3052.26 239.182 3057.53C233.739 3062.79 228.162 3065.5 222.5 3065.5C216.838 3065.5 211.261 3062.79 205.818 3057.53C200.373 3052.26 195.097 3044.47 190.056 3034.39C179.974 3014.23 170.881 2985.03 163.239 2948.91C147.956 2876.67 138.5 2776.85 138.5 2666.57V701.422C138.5 591.149 147.956 491.33 163.239 419.092C170.881 382.968 179.974 353.769 190.056 333.612C195.097 323.533 200.373 315.741 205.818 310.474C211.261 305.21 216.838 302.5 222.5 302.5C228.162 302.5 233.739 305.21 239.182 310.474C244.627 315.741 249.903 323.533 254.944 333.612C265.026 353.769 274.119 382.968 281.761 419.092C297.044 491.33 306.5 591.149 306.5 701.422Z" stroke="black" stroke-opacity="0.08"/>
<path d="M1018 771.717V2679.28C1018 2893.42 980.168 3067 933.5 3067C886.832 3067 849 2893.42 849 2679.28V771.717C849 557.587 886.832 384 933.5 384C980.168 384 1018 557.587 1018 771.717Z" fill="white" fill-opacity="0.1"/>
<path d="M1017.5 771.717V2679.28C1017.5 2786.32 1008.04 2883.22 992.762 2953.33C985.12 2988.4 976.027 3016.74 965.947 3036.3C960.906 3046.08 955.631 3053.65 950.187 3058.76C944.746 3063.87 939.167 3066.5 933.5 3066.5C927.833 3066.5 922.254 3063.87 916.813 3058.76C911.369 3053.65 906.094 3046.08 901.053 3036.3C890.973 3016.74 881.88 2988.4 874.238 2953.33C858.956 2883.22 849.5 2786.32 849.5 2679.28V771.717C849.5 664.677 858.956 567.785 874.238 497.666C881.88 462.603 890.973 434.261 901.053 414.698C906.094 404.915 911.369 397.353 916.813 392.242C922.254 387.133 927.833 384.5 933.5 384.5C939.167 384.5 944.746 387.133 950.187 392.242C955.631 397.353 960.906 404.915 965.947 414.698C976.027 434.261 985.12 462.603 992.762 497.666C1008.04 567.785 1017.5 664.677 1017.5 771.717Z" stroke="black" stroke-opacity="0.08"/>
<path d="M643 663.78V2660.22C643 2884.33 605.168 3066 558.5 3066C511.832 3066 474 2884.33 474 2660.22V663.78C474 439.674 511.832 258 558.5 258C605.168 258 643 439.674 643 663.78Z" fill="white" fill-opacity="0.1"/>
<path d="M642.5 663.78V2660.22C642.5 2772.25 633.044 2873.66 617.761 2947.05C610.119 2983.75 601.025 3013.41 590.943 3033.89C585.901 3044.13 580.624 3052.05 575.179 3057.4C569.736 3062.75 564.159 3065.5 558.5 3065.5C552.841 3065.5 547.264 3062.75 541.821 3057.4C536.376 3052.05 531.099 3044.13 526.057 3033.89C515.975 3013.41 506.881 2983.75 499.239 2947.05C483.956 2873.66 474.5 2772.25 474.5 2660.22V663.78C474.5 551.751 483.956 450.342 499.239 376.952C506.881 340.254 515.975 310.588 526.057 290.109C531.099 279.869 536.376 271.951 541.821 266.601C547.264 261.252 552.841 258.5 558.5 258.5C564.159 258.5 569.736 261.252 575.179 266.601C580.624 271.951 585.901 279.869 590.943 290.109C601.025 310.588 610.119 340.254 617.761 376.952C633.044 450.342 642.5 551.751 642.5 663.78Z" stroke="black" stroke-opacity="0.08"/>
<path d="M1313 525.335V2637.66C1313 2874.78 1275.17 3067 1228.5 3067C1181.83 3067 1144 2874.78 1144 2637.66V525.335C1144 288.22 1181.83 96 1228.5 96C1275.17 96 1313 288.22 1313 525.335Z" fill="white" fill-opacity="0.1"/>
<path d="M1312.5 525.335V2637.66C1312.5 2756.2 1303.04 2863.5 1287.76 2941.15C1280.12 2979.99 1271.02 3011.38 1260.94 3033.05C1255.89 3043.89 1250.62 3052.27 1245.17 3057.93C1239.72 3063.59 1234.15 3066.5 1228.5 3066.5C1222.85 3066.5 1217.28 3063.59 1211.83 3057.93C1206.38 3052.27 1201.11 3043.89 1196.06 3033.05C1185.98 3011.38 1176.88 2979.99 1169.24 2941.15C1153.96 2863.5 1144.5 2756.2 1144.5 2637.66V525.335C1144.5 406.8 1153.96 299.5 1169.24 221.846C1176.88 183.015 1185.98 151.623 1196.06 129.95C1201.11 119.113 1206.38 110.733 1211.83 105.069C1217.28 99.4061 1222.85 96.5 1228.5 96.5C1234.15 96.5 1239.72 99.4061 1245.17 105.069C1250.62 110.733 1255.89 119.113 1260.94 129.95C1271.02 151.623 1280.12 183.015 1287.76 221.846C1303.04 299.5 1312.5 406.8 1312.5 525.335Z" stroke="black" stroke-opacity="0.08"/>
<path d="M1245.71 -1193C1023.91 5.90808 944.498 -1050.33 610.532 -392.983C327.114 -483.846 223.638 -906.298 193.348 -721.464C170 -578.982 34.3344 -761.083 -95.0104 -721.465C-187.202 -699.22 -306.317 -828.515 -284.921 -655.674C-263.523 -482.833 -298.269 -783.294 -362.831 -721.465C-427.393 -659.625 -409.717 -835.832 -430.902 -721.465C-466.785 -527.872 -393.84 -325.097 -259.401 -235.197C-108.327 -136.317 -27.1908 -28.0757 -37.802 196.419C-40.4539 252.528 -22.6515 551.042 193.348 460.807C247.902 438.025 473.58 284.338 610.532 569.574C644.631 640.597 729.072 710.485 806.232 735.25C1013.15 801.568 1224.7 600.942 1245.71 324.697C1268.5 120.298 1296.77 24.4512 1464.77 95.8439C1631 166.484 1730.48 -137.821 1637.47 -293.932C1508.38 -469.877 1662.41 -786.302 1711.33 -1050.33C1778.19 -1411.23 1574.21 131.282 1245.71 -1193Z" fill="#FEF1CE"/>
</svg>
