<svg xmlns="http://www.w3.org/2000/svg" width="1540" height="3494" fill="none" viewBox="0 0 1540 3494">
  <g clip-path="url(#a)">
    <path fill="#DB8402" d="M0 0h1540v3494H0z"/>
    <path fill="#fff" fill-opacity=".1" d="M319 916.405V3058.59c0 240.47-37.832 435.41-84.5 435.41S150 3299.06 150 3058.59V916.405C150 675.938 187.832 481 234.5 481S319 675.938 319 916.405Z"/>
    <path stroke="#000" stroke-opacity=".08" d="M318.5 916.405V3058.59c0 120.22-9.457 229.03-24.74 307.79-7.643 39.38-16.738 71.22-26.823 93.2-5.044 10.99-10.322 19.49-15.77 25.23-5.448 5.74-11.021 8.69-16.667 8.69-5.646 0-11.219-2.95-16.667-8.69-5.448-5.74-10.726-14.24-15.77-25.23-10.085-21.98-19.18-53.82-26.823-93.2-15.283-78.76-24.74-187.57-24.74-307.79V916.405c0-120.212 9.457-229.03 24.74-307.783 7.643-39.38 16.738-71.217 26.823-93.197 5.044-10.992 10.322-19.491 15.77-25.235s11.021-8.69 16.667-8.69c5.646 0 11.219 2.946 16.667 8.69 5.448 5.744 10.726 14.243 15.77 25.235 10.085 21.98 19.18 53.817 26.823 93.197 15.283 78.753 24.74 187.571 24.74 307.783Z"/>
    <path fill="#fff" fill-opacity=".1" d="M675 833.422V3044.57c0 248.22-37.832 449.43-84.5 449.43S506 3292.79 506 3044.57V833.422C506 585.213 543.832 384 590.5 384S675 585.213 675 833.422Z"/>
    <path stroke="#000" stroke-opacity=".08" d="M674.5 833.422V3044.57c0 124.09-9.457 236.41-24.741 317.71-7.643 40.64-16.738 73.51-26.825 96.2-5.044 11.35-10.323 20.12-15.773 26.05-5.449 5.93-11.021 8.97-16.661 8.97-5.64 0-11.212-3.04-16.661-8.97-5.45-5.93-10.729-14.7-15.773-26.05-10.087-22.69-19.182-55.56-26.825-96.2-15.284-81.3-24.741-193.62-24.741-317.71V833.422c0-124.083 9.457-236.406 24.741-317.697 7.643-40.649 16.738-73.514 26.825-96.204 5.044-11.347 10.323-20.122 15.773-26.052 5.449-5.931 11.021-8.969 16.661-8.969 5.64 0 11.212 3.038 16.661 8.969 5.45 5.93 10.729 14.705 15.773 26.052 10.087 22.69 19.182 55.555 26.825 96.204 15.284 81.291 24.741 193.614 24.741 317.697Z"/>
    <path fill="#fff" fill-opacity=".1" d="M1070 1020.77v2055.45c0 230.74-37.83 417.78-84.5 417.78-46.668 0-84.5-187.04-84.5-417.78V1020.77C901 790.044 938.832 603 985.5 603c46.67 0 84.5 187.044 84.5 417.77Z"/>
    <path stroke="#000" stroke-opacity=".08" d="M1069.5 1020.77v2055.45c0 115.35-9.46 219.76-24.74 295.32-7.64 37.78-16.74 68.33-26.82 89.41-5.04 10.55-10.32 18.7-15.77 24.21-5.441 5.51-11.016 8.34-16.67 8.34-5.654 0-11.229-2.83-16.674-8.34-5.446-5.51-10.724-13.66-15.766-24.21-10.084-21.08-19.178-51.63-26.82-89.41-15.284-75.56-24.74-179.97-24.74-295.32V1020.77c0-115.338 9.456-219.747 24.74-295.307 7.642-37.785 16.736-68.33 26.82-89.416 5.042-10.545 10.32-18.698 15.766-24.208 5.445-5.509 11.02-8.339 16.674-8.339s11.229 2.83 16.67 8.339c5.45 5.51 10.73 13.663 15.77 24.208 10.08 21.086 19.18 51.631 26.82 89.416 15.28 75.56 24.74 179.969 24.74 295.307Z"/>
    <path fill="#fff" fill-opacity=".1" d="M1385 697.399V3021.6c0 260.9-37.83 472.4-84.5 472.4s-84.5-211.5-84.5-472.4V697.399C1216 436.5 1253.83 225 1300.5 225s84.5 211.5 84.5 472.399Z"/>
    <path stroke="#000" stroke-opacity=".08" d="M1384.5 697.399V3021.6c0 130.43-9.46 248.5-24.74 333.95-7.64 42.73-16.74 77.28-26.83 101.13-5.04 11.93-10.33 21.16-15.78 27.39-5.45 6.24-11.02 9.43-16.65 9.43-5.63 0-11.2-3.19-16.65-9.43-5.45-6.23-10.74-15.46-15.78-27.39-10.09-23.85-19.19-58.4-26.83-101.13-15.28-85.45-24.74-203.52-24.74-333.95V697.399c0-130.429 9.46-248.498 24.74-333.948 7.64-42.73 16.74-77.278 26.83-101.133 5.04-11.929 10.33-21.155 15.78-27.391 5.45-6.239 11.02-9.427 16.65-9.427 5.63 0 11.2 3.188 16.65 9.427 5.45 6.236 10.74 15.462 15.78 27.391 10.09 23.855 19.19 58.403 26.83 101.133 15.28 85.45 24.74 203.519 24.74 333.948Z"/>
    <path fill="#FEF1CE" d="M1181.73-1005C967.82 193.908 891.234-862.332 569.151-204.983c-273.333-90.863-373.127-513.315-402.339-328.481-22.517 142.482-153.356-39.619-278.098-.001-88.911 22.245-203.788-107.05-183.153 65.791 20.636 172.841-12.873-127.62-75.138-65.791-62.265 61.84-45.218-114.367-65.649 0-34.606 193.593 35.743 396.368 165.399 486.269 145.698 98.88 223.947 207.12 213.714 431.615-2.558 56.109 14.611 354.623 222.925 264.388 52.613-22.782 270.261-176.469 402.339 108.767 32.886 71.023 114.323 140.911 188.737 165.676 199.558 66.318 403.582-134.308 423.842-410.553 21.98-204.399 49.24-300.246 211.27-228.853 160.31 70.64 256.25-233.665 166.55-389.776-124.5-175.945 24.06-492.37 71.23-756.4 64.49-360.898-132.24 1181.614-449.05-142.668Z"/>
    <ellipse cx="1415" cy="543" fill="#fff" fill-opacity=".2" rx="29" ry="28"/>
    <ellipse cx="1299.5" cy="709.5" fill="#fff" fill-opacity=".25" rx="54.5" ry="51.5"/>
    <ellipse cx="1453.5" cy="800" fill="#fff" fill-opacity=".25" rx="38.5" ry="39"/>
    <ellipse cx="1470.5" cy="2083.5" fill="#fff" fill-opacity=".25" rx="54.5" ry="51.5"/>
    <ellipse cx="215" cy="1528" fill="#fff" fill-opacity=".2" rx="29" ry="28"/>
    <ellipse cx="99.5" cy="1694.5" fill="#fff" fill-opacity=".25" rx="54.5" ry="51.5"/>
    <ellipse cx="253.5" cy="1785" fill="#fff" fill-opacity=".25" rx="38.5" ry="39"/>
  </g>
  <defs>
    <clipPath id="a">
      <path fill="#fff" d="M0 0h1540v3494H0z"/>
    </clipPath>
  </defs>
</svg>
