<svg xmlns="http://www.w3.org/2000/svg" width="1440" height="1147" fill="none" viewBox="0 0 1440 1147">
  <g clip-path="url(#a)">
    <path fill="#DB8402" d="M0 0h1440v1147H0z"/>
    <path fill="#fff" fill-opacity=".1" d="M288 152.919V979.08c0 92.74-38.28 167.92-85.5 167.92S117 1071.82 117 979.08V152.919C117 60.18 155.28-15 202.5-15S288 60.18 288 152.919Z"/>
    <path stroke="#000" stroke-opacity=".08" d="M287.5 152.919V979.08c0 46.31-9.558 88.21-24.988 118.51-15.444 30.33-36.689 48.91-60.012 48.91-23.324 0-44.568-18.58-60.012-48.91-15.43-30.3-24.988-72.2-24.988-118.51V152.919c0-46.307 9.558-88.206 24.988-118.51C157.932 4.08 179.176-14.5 202.5-14.5c23.323 0 44.568 18.578 60.012 48.91 15.43 30.303 24.988 72.202 24.988 118.509Z"/>
    <path fill="#fff" fill-opacity=".1" d="M637 152.919V979.08c0 92.74-38.28 167.92-85.5 167.92S466 1071.82 466 979.08V152.919C466 60.18 504.28-15 551.5-15S637 60.18 637 152.919Z"/>
    <path stroke="#000" stroke-opacity=".08" d="M636.5 152.919V979.08c0 46.31-9.558 88.21-24.988 118.51-15.444 30.33-36.689 48.91-60.012 48.91-23.324 0-44.568-18.58-60.012-48.91-15.43-30.3-24.988-72.2-24.988-118.51V152.919c0-46.307 9.558-88.206 24.988-118.51C506.932 4.08 528.176-14.5 551.5-14.5c23.323 0 44.568 18.578 60.012 48.91 15.43 30.303 24.988 72.202 24.988 118.509Z"/>
    <path fill="#fff" fill-opacity=".1" d="M1326 163.185v817.629c0 91.786-38.28 166.186-85.5 166.186s-85.5-74.4-85.5-166.186V163.185C1155 71.404 1193.28-3 1240.5-3s85.5 74.404 85.5 166.185Z"/>
    <path stroke="#000" stroke-opacity=".08" d="M1325.5 163.185v817.629c0 45.826-9.56 87.296-24.99 117.286-15.44 30.01-36.68 48.4-60.01 48.4s-44.57-18.39-60.01-48.4c-15.43-29.99-24.99-71.46-24.99-117.286V163.185c0-45.828 9.56-87.293 24.99-117.282C1195.93 15.888 1217.17-2.5 1240.5-2.5s44.57 18.388 60.01 48.403c15.43 29.99 24.99 71.454 24.99 117.282Z"/>
    <path fill="#fff" fill-opacity=".1" d="M981 140.942v836.114C981 1070.91 942.72 1147 895.5 1147S810 1070.91 810 977.056V140.942C810 47.086 848.28-29 895.5-29S981 47.086 981 140.942Z"/>
    <path stroke="#000" stroke-opacity=".08" d="M980.5 140.942v836.114c0 46.864-9.559 89.274-24.989 119.944-15.445 30.7-36.691 49.5-60.011 49.5s-44.566-18.8-60.011-49.5c-15.43-30.67-24.989-73.08-24.989-119.944V140.942c0-46.867 9.559-89.272 24.989-119.942C850.934-9.7 872.18-28.5 895.5-28.5S940.066-9.7 955.511 21c15.43 30.67 24.989 73.075 24.989 119.942Z"/>
    <path fill="#FEF1CE" d="M1188.05-706c-184.09 836.333-249.994 99.522-527.167 558.074-235.221-63.384-321.101-358.077-346.239-229.141-19.378 99.393-131.973-27.637-239.322-.001C-1.19-361.55-100.05-451.743-82.293-331.173c17.759 120.57-11.078-89.025-64.661-45.895-53.583 43.139-38.913-79.779-56.495.001C-233.23-242.021-172.69-100.57-61.112-37.857-134 143 136.806 113.897 128 270.5c-2.201 39.14 7.376 240.106 186.644 177.161 45.277-15.893 232.577-123.102 346.239 75.873 28.301 49.544 98.382 98.296 162.42 115.572 171.733 46.262 347.307-93.69 364.747-286.393 18.91-142.584 42.37-209.445 181.8-159.643 137.97 49.277 220.53-163 143.33-271.9-107.14-122.735 20.71-343.466 61.3-527.648 55.5-251.754-113.8 824.269-386.43-99.522Z"/>
  </g>
  <defs>
    <clipPath id="a">
      <path fill="#fff" d="M0 0h1440v1147H0z"/>
    </clipPath>
  </defs>
</svg>
