<svg xmlns="http://www.w3.org/2000/svg" width="213" height="30" fill="none" viewBox="0 0 213 30">
  <path fill="#fff" d="M10.072 17.686c0 .199.094.334.282.404.28-.317.68-.592 1.195-.826a3.993 3.993 0 0 1 1.74-.37c1.23 0 2.25.364 3.059 1.09l.123.106c.152-.082.228-.229.228-.44 0-.363-.287-.709-.861-1.037-.668-.363-1.523-.545-2.566-.545-.282 0-.54.024-.774.07v-4.587c0-.504-.176-.756-.527-.756-.34 0-.51.258-.51.773v4.817c-.926.375-1.389.808-1.389 1.3Zm1.442 8.332c-2.028 0-3.868-.381-5.52-1.143-1.652-.773-2.97-1.963-3.955-3.568C.937 19.49.387 17.229.387 14.522s.562-4.987 1.687-6.838c1.008-1.664 2.373-2.9 4.096-3.71 1.734-.808 3.598-1.212 5.59-1.212 3.633 0 6.48 1.066 8.543 3.199 2.074 2.121 3.111 4.898 3.111 8.332 0 2.098-.445 3.938-1.336 5.52h2.549c.422 1.265.633 2.46.633 3.585 0 1.711-.475 3.088-1.424 4.131-.95 1.043-2.273 1.565-3.973 1.565-1.699 0-3.111-.563-4.236-1.688-1.113-1.113-2.022-2.877-2.725-5.29h-.087c-.375 0-.563.187-.563.562 0 .703.393 1.781 1.178 3.234-.61.07-1.248.106-1.916.106Zm28.74-23.01c1.406 0 2.625.38 3.656 1.142 1.031.762 1.547 1.846 1.547 3.252v9.774c0 2.976-.908 5.273-2.725 6.89-1.816 1.606-4.33 2.409-7.54 2.409-3.2 0-5.69-.791-7.471-2.373-1.817-1.582-2.725-3.891-2.725-6.926V4.643C26.38 3.54 27.98 2.99 29.795 2.99c1.523 0 2.73.405 3.621 1.213.89.797 1.336 2.01 1.336 3.639V18.09c.129.094.275.14.44.14.175 0 .298-.04.368-.123.083-.093.124-.263.124-.51V7.825c0-.738-.036-1.324-.106-1.758a4.68 4.68 0 0 0-.422-1.3c1.407-1.172 3.106-1.758 5.098-1.758ZM56.97 14.45c.094.094.24.14.44.14.198 0 .368-.04.509-.122-.305-1.781-.51-2.836-.615-3.164-.13-.34-.323-.51-.58-.51-.118 0-.258.035-.422.105l.668 3.551Zm-3.48 5.274c-.118.164-.176.316-.176.457 0 .34.316.627.949.861.644.223 1.423.363 2.338.422.152 1.687.316 2.648.492 2.883-.223.433-.838.873-1.846 1.318-1.008.434-2.145.65-3.41.65-1.676 0-3.111-.357-4.307-1.072-1.195-.726-1.793-1.658-1.793-2.795 0-.305.03-.574.088-.808L49.57 4.906c.938-.597 2.057-1.066 3.358-1.406a16 16 0 0 1 4.06-.51c2.016 0 3.739.34 5.168 1.02 1.63.773 2.62 1.892 2.971 3.357l4.008 16.576c-1.219 1.582-3.205 2.373-5.96 2.373-1.335 0-2.466-.24-3.392-.72-.926-.48-1.465-1.166-1.617-2.057l-.387-2.145a5.797 5.797 0 0 0 2.04-.404c.656-.258.984-.527.984-.808a.55.55 0 0 0-.229-.457c-.445.316-.99.556-1.634.72a7.299 7.299 0 0 1-1.793.246c-1.582 0-2.801-.322-3.657-.966Zm20.267 6.293c-1.301 0-2.309-.346-3.024-1.038-.703-.69-1.054-1.734-1.054-3.128V4.66c.62-.527 1.377-.931 2.267-1.213a8.994 8.994 0 0 1 2.795-.44c1.418 0 2.62.352 3.604 1.055 1.066.797 1.6 1.899 1.6 3.305v9.615a5.376 5.376 0 0 0-1.934.563c-.633.305-.95.621-.95.95 0 .198.112.368.335.509 1.16-.973 2.882-1.46 5.167-1.46h4.167c.773 1.36 1.16 2.749 1.16 4.167 0 .703-.123 1.482-.37 2.338-.246.855-.574 1.512-.984 1.969h-12.78Zm34.049-11.567c.093.094.24.14.439.14a.998.998 0 0 0 .51-.122c-.305-1.781-.51-2.836-.615-3.164-.129-.34-.323-.51-.58-.51-.118 0-.258.035-.422.105l.668 3.551Zm-3.481 5.274c-.117.164-.176.316-.176.457 0 .34.317.627.95.861.644.223 1.423.363 2.338.422.152 1.687.316 2.648.492 2.883-.223.433-.838.873-1.846 1.318-1.008.434-2.145.65-3.41.65-1.676 0-3.112-.357-4.307-1.072-1.195-.726-1.793-1.658-1.793-2.795 0-.305.03-.574.088-.808l3.744-16.735c.938-.597 2.057-1.066 3.358-1.406 1.3-.34 2.654-.51 4.06-.51 2.016 0 3.738.34 5.168 1.02 1.629.773 2.619 1.892 2.971 3.357l4.008 16.576c-1.219 1.582-3.205 2.373-5.959 2.373-1.336 0-2.467-.24-3.393-.72-.926-.48-1.465-1.166-1.617-2.057l-.387-2.145a5.796 5.796 0 0 0 2.039-.404c.657-.258.985-.527.985-.808a.552.552 0 0 0-.229-.457c-.445.316-.99.556-1.635.72a7.294 7.294 0 0 1-1.793.246c-1.582 0-2.8-.322-3.656-.966Zm34.278-.598c.046.035.181.053.404.053.222 0 .392-.076.51-.229.117-.152.175-.422.175-.808v-.334c0-.434-.052-.745-.158-.932-.094-.188-.258-.281-.492-.281-.223 0-.375.023-.457.07a1.7 1.7 0 0 1 .018.299v2.162Zm0-6.627c.046.035.181.053.404.053a.577.577 0 0 0 .51-.264c.117-.176.175-.463.175-.861v-.106c0-.422-.052-.72-.158-.896-.094-.188-.258-.281-.492-.281-.223 0-.375.023-.457.07.012.058.018.158.018.299V12.5Zm-9.545-6.768c0-.27.222-.574.668-.914.937-.714 2.589-1.271 4.957-1.67 1.23-.199 2.584-.298 4.06-.298 3.516 0 6.176.68 7.981 2.039 1.582 1.195 2.373 2.765 2.373 4.71 0 .704-.123 1.395-.369 2.075-.247.668-.598 1.172-1.055 1.511-.621-.316-1.219-.474-1.793-.474-.27 0-.475.053-.615.158-.141.106-.211.299-.211.58 1.722.07 3.064.692 4.025 1.864.856 1.066 1.283 2.39 1.283 3.972 0 2.45-1.025 4.23-3.076 5.344-1.922 1.043-4.816 1.564-8.683 1.564-2.708 0-4.694-.082-5.959-.246-1.266-.175-2.18-.58-2.743-1.213-.562-.632-.843-1.593-.843-2.882V5.732Zm33.908 8.14c0-1.173-.053-1.976-.158-2.41-.106-.444-.299-.667-.58-.667a.723.723 0 0 0-.475.176c.023.21.058.492.105.844.047.351.071 1.101.071 2.25v1.142c0 .797-.018 1.377-.053 1.74-.035.364-.065.674-.088.932l-.035.422a.723.723 0 0 0 .475.176c.281 0 .474-.217.58-.65.105-.446.158-1.255.158-2.427V13.87Zm-.703 12.69c-2.086 0-4.002-.427-5.748-1.283-1.735-.867-3.135-2.185-4.202-3.955-1.066-1.781-1.599-4.002-1.599-6.662 0-3.855 1.16-6.867 3.48-9.035 2.063-1.91 4.717-2.865 7.963-2.865 3.528 0 6.317 1.095 8.367 3.287 2.063 2.18 3.094 5.05 3.094 8.613 0 3.961-1.101 6.984-3.305 9.07-2.003 1.887-4.687 2.83-8.05 2.83Zm22.359-12.11c.094.093.24.14.439.14.2 0 .37-.041.51-.123-.304-1.781-.51-2.836-.615-3.164-.129-.34-.322-.51-.58-.51-.117 0-.258.035-.422.105l.668 3.551Zm-3.48 5.273c-.118.164-.176.316-.176.457 0 .34.316.627.949.861.645.223 1.424.363 2.338.422.152 1.687.316 2.648.492 2.883-.223.433-.838.873-1.846 1.318-1.007.434-2.144.65-3.41.65-1.676 0-3.111-.357-4.306-1.072-1.196-.726-1.793-1.658-1.793-2.795 0-.305.029-.574.088-.808l3.744-16.735c.937-.597 2.056-1.066 3.357-1.406a16 16 0 0 1 4.061-.51c2.015 0 3.738.34 5.168 1.02 1.629.773 2.619 1.892 2.97 3.357l4.008 16.576c-1.219 1.582-3.205 2.373-5.959 2.373-1.336 0-2.467-.24-3.392-.72-.926-.48-1.465-1.166-1.618-2.057l-.386-2.145a5.8 5.8 0 0 0 2.039-.404c.656-.258.984-.527.984-.808a.55.55 0 0 0-.228-.457c-.446.316-.991.556-1.635.72a7.3 7.3 0 0 1-1.793.246c-1.582 0-2.801-.322-3.656-.966Zm22.816-10.758c0-.574-.229-.862-.686-.862-.48 0-.72.252-.72.756 0 .164.017.3.052.405.047.105.077.181.088.228-.129.106-.463.27-1.002.492-2.156.88-3.545 1.84-4.166 2.883-.996-.304-1.851-.926-2.566-1.863-.715-.95-1.072-2.033-1.072-3.252 0-2.145.884-3.92 2.654-5.326 1.77-1.407 3.973-2.11 6.609-2.11 3.246 0 5.743.827 7.489 2.479 1.57 1.5 2.355 3.44 2.355 5.818 0 1.43-.31 2.707-.932 3.832-.621 1.114-1.376 2.051-2.267 2.813-.879.75-1.77 1.342-2.672 1.775a3.81 3.81 0 0 0-1.072-.738c-.387-.188-.697-.281-.932-.281-.223 0-.381.04-.474.123-.094.07-.141.216-.141.44 1.078.316 1.945.901 2.601 1.757.657.855.985 1.846.985 2.97 0 1.325-.498 2.467-1.494 3.428-1.02.961-2.221 1.442-3.604 1.442s-2.572-.48-3.568-1.442c-.996-.96-1.494-2.103-1.494-3.427 0-1.125.316-2.116.949-2.971-.75-.773-1.125-1.67-1.125-2.69 0-1.23.334-2.214 1.002-2.953.574-.609 1.687-1.283 3.34-2.021.679-.281 1.16-.55 1.441-.809.281-.27.422-.568.422-.896Z"/>
</svg>
