<svg xmlns="http://www.w3.org/2000/svg" width="213" height="30" fill="none" viewBox="0 0 213 30">
  <path fill="#000" d="M10.072 17.737c0 .2.094.334.282.405.28-.317.68-.592 1.195-.827.516-.246 1.096-.369 1.74-.369 1.23 0 2.25.364 3.059 1.09l.123.106c.152-.082.228-.229.228-.44 0-.363-.287-.709-.861-1.037-.668-.363-1.523-.545-2.566-.545-.282 0-.54.024-.774.07v-4.588c0-.503-.176-.755-.527-.755-.34 0-.51.258-.51.773v4.816c-.926.375-1.389.81-1.389 1.301Zm1.442 8.332c-2.028 0-3.868-.38-5.52-1.142-1.652-.774-2.97-1.963-3.955-3.569C.937 19.542.387 17.28.387 14.573s.562-4.986 1.687-6.838c1.008-1.664 2.373-2.9 4.096-3.709 1.734-.808 3.598-1.213 5.59-1.213 3.633 0 6.48 1.067 8.543 3.2 2.074 2.12 3.111 4.898 3.111 8.332 0 2.097-.445 3.937-1.336 5.52h2.549c.422 1.265.633 2.46.633 3.585 0 1.711-.475 3.088-1.424 4.131-.95 1.043-2.273 1.564-3.973 1.564-1.699 0-3.111-.562-4.236-1.687-1.113-1.113-2.022-2.877-2.725-5.291h-.087c-.375 0-.563.188-.563.563 0 .703.393 1.78 1.178 3.234-.61.07-1.248.105-1.916.105Zm28.74-23.01c1.406 0 2.625.381 3.656 1.143 1.031.762 1.547 1.846 1.547 3.252v9.773c0 2.977-.908 5.274-2.725 6.891-1.816 1.606-4.33 2.408-7.54 2.408-3.2 0-5.69-.79-7.471-2.373-1.817-1.582-2.725-3.89-2.725-6.925V4.693c1.383-1.101 2.983-1.652 4.799-1.652 1.523 0 2.73.404 3.621 1.213.89.797 1.336 2.01 1.336 3.639v10.248c.129.093.275.14.44.14.175 0 .298-.04.368-.123.083-.094.124-.264.124-.51V7.876c0-.738-.036-1.324-.106-1.758a4.68 4.68 0 0 0-.422-1.3c1.407-1.172 3.106-1.758 5.098-1.758ZM56.97 14.504c.094.094.24.14.44.14.198 0 .368-.04.509-.123-.305-1.78-.51-2.835-.615-3.164-.13-.34-.323-.51-.58-.51-.118 0-.258.036-.422.106l.668 3.55Zm-3.48 5.273c-.118.164-.176.317-.176.457 0 .34.316.627.949.862.644.222 1.423.363 2.338.422.152 1.687.316 2.648.492 2.882-.223.434-.838.873-1.846 1.319-1.008.433-2.145.65-3.41.65-1.676 0-3.111-.357-4.307-1.072-1.195-.727-1.793-1.658-1.793-2.795 0-.305.03-.574.088-.809L49.57 4.958c.938-.598 2.057-1.066 3.358-1.406 1.3-.34 2.654-.51 4.06-.51 2.016 0 3.739.34 5.168 1.02 1.63.773 2.62 1.892 2.971 3.357l4.008 16.576c-1.219 1.582-3.205 2.373-5.96 2.373-1.335 0-2.466-.24-3.392-.72-.926-.481-1.465-1.167-1.617-2.057l-.387-2.145a5.797 5.797 0 0 0 2.04-.404c.656-.258.984-.527.984-.809a.55.55 0 0 0-.229-.457c-.445.317-.99.557-1.634.721a7.304 7.304 0 0 1-1.793.246c-1.582 0-2.801-.322-3.657-.967Zm20.267 6.293c-1.301 0-2.309-.345-3.024-1.037-.703-.691-1.054-1.734-1.054-3.129V4.712c.62-.527 1.377-.932 2.267-1.213a8.994 8.994 0 0 1 2.795-.44c1.418 0 2.62.352 3.604 1.055 1.066.797 1.6 1.899 1.6 3.305v9.615a5.356 5.356 0 0 0-1.934.563c-.633.304-.95.62-.95.949 0 .2.112.369.335.51 1.16-.973 2.882-1.46 5.167-1.46h4.167c.773 1.36 1.16 2.749 1.16 4.167 0 .703-.123 1.482-.37 2.338-.246.855-.574 1.511-.984 1.968h-12.78Zm34.049-11.566c.093.094.24.14.439.14a.998.998 0 0 0 .51-.123c-.305-1.78-.51-2.835-.615-3.164-.129-.34-.323-.51-.58-.51-.118 0-.258.036-.422.106l.668 3.55Zm-3.481 5.273c-.117.164-.176.317-.176.457 0 .34.317.627.95.862.644.222 1.423.363 2.338.422.152 1.687.316 2.648.492 2.882-.223.434-.838.873-1.846 1.319-1.008.433-2.145.65-3.41.65-1.676 0-3.112-.357-4.307-1.072-1.195-.727-1.793-1.658-1.793-2.795 0-.305.03-.574.088-.809l3.744-16.734c.938-.598 2.057-1.066 3.358-1.406 1.3-.34 2.654-.51 4.06-.51 2.016 0 3.738.34 5.168 1.02 1.629.773 2.619 1.892 2.971 3.357l4.008 16.576c-1.219 1.582-3.205 2.373-5.959 2.373-1.336 0-2.467-.24-3.393-.72-.926-.481-1.465-1.167-1.617-2.057l-.387-2.145a5.796 5.796 0 0 0 2.039-.404c.657-.258.985-.527.985-.809a.552.552 0 0 0-.229-.457c-.445.317-.99.557-1.635.721a7.299 7.299 0 0 1-1.793.246c-1.582 0-2.8-.322-3.656-.967Zm34.278-.597c.046.035.181.052.404.052.222 0 .392-.076.51-.228.117-.152.175-.422.175-.809v-.334c0-.433-.052-.744-.158-.931-.094-.188-.258-.281-.492-.281-.223 0-.375.023-.457.07.012.058.018.158.018.299v2.162Zm0-6.627c.046.035.181.053.404.053a.577.577 0 0 0 .51-.264c.117-.176.175-.463.175-.861v-.106c0-.422-.052-.72-.158-.897-.094-.187-.258-.28-.492-.28-.223 0-.375.023-.457.07.012.058.018.158.018.298v1.987Zm-9.545-6.768c0-.27.222-.574.668-.914.937-.715 2.589-1.271 4.957-1.67 1.23-.199 2.584-.299 4.06-.299 3.516 0 6.176.68 7.981 2.04 1.582 1.195 2.373 2.765 2.373 4.71 0 .704-.123 1.395-.369 2.075-.247.668-.598 1.171-1.055 1.511-.621-.316-1.219-.474-1.793-.474-.27 0-.475.052-.615.158-.141.105-.211.299-.211.58 1.722.07 3.064.691 4.025 1.863.856 1.067 1.283 2.39 1.283 3.973 0 2.45-1.025 4.23-3.076 5.344-1.922 1.043-4.816 1.564-8.683 1.564-2.708 0-4.694-.082-5.959-.246-1.266-.176-2.18-.58-2.743-1.213-.562-.633-.843-1.594-.843-2.883V5.784Zm33.908 8.139c0-1.172-.053-1.975-.158-2.408-.106-.446-.299-.668-.58-.668a.723.723 0 0 0-.475.176c.023.21.058.492.105.843.047.352.071 1.102.071 2.25v1.143c0 .797-.018 1.377-.053 1.74s-.065.674-.088.932l-.035.421a.723.723 0 0 0 .475.176c.281 0 .474-.216.58-.65.105-.445.158-1.254.158-2.426v-1.53Zm-.703 12.691c-2.086 0-4.002-.428-5.748-1.283-1.735-.867-3.135-2.186-4.202-3.955-1.066-1.781-1.599-4.002-1.599-6.662 0-3.856 1.16-6.867 3.48-9.035 2.063-1.91 4.717-2.866 7.963-2.866 3.528 0 6.317 1.096 8.367 3.288 2.063 2.18 3.094 5.05 3.094 8.613 0 3.96-1.101 6.984-3.305 9.07-2.003 1.887-4.687 2.83-8.05 2.83Zm22.359-12.111c.094.094.24.14.439.14.2 0 .37-.04.51-.123-.304-1.78-.51-2.835-.615-3.164-.129-.34-.322-.51-.58-.51-.117 0-.258.036-.422.106l.668 3.55Zm-3.48 5.273c-.118.164-.176.317-.176.457 0 .34.316.627.949.862.645.222 1.424.363 2.338.422.152 1.687.316 2.648.492 2.882-.223.434-.838.873-1.846 1.319-1.007.433-2.144.65-3.41.65-1.676 0-3.111-.357-4.306-1.072-1.196-.727-1.793-1.658-1.793-2.795 0-.305.029-.574.088-.809l3.744-16.734c.937-.598 2.056-1.066 3.357-1.406 1.301-.34 2.654-.51 4.061-.51 2.015 0 3.738.34 5.168 1.02 1.629.773 2.619 1.892 2.97 3.357l4.008 16.576c-1.219 1.582-3.205 2.373-5.959 2.373-1.336 0-2.467-.24-3.392-.72-.926-.481-1.465-1.167-1.618-2.057l-.386-2.145a5.8 5.8 0 0 0 2.039-.404c.656-.258.984-.527.984-.809a.55.55 0 0 0-.228-.457c-.446.317-.991.557-1.635.721a7.305 7.305 0 0 1-1.793.246c-1.582 0-2.801-.322-3.656-.967ZM203.959 9.02c0-.575-.229-.862-.686-.862-.48 0-.72.252-.72.756 0 .164.017.299.052.404.047.106.077.182.088.229-.129.105-.463.27-1.002.492-2.156.879-3.545 1.84-4.166 2.883-.996-.305-1.851-.926-2.566-1.863-.715-.95-1.072-2.034-1.072-3.252 0-2.145.884-3.92 2.654-5.327 1.77-1.406 3.973-2.109 6.609-2.109 3.246 0 5.743.826 7.489 2.479 1.57 1.5 2.355 3.44 2.355 5.818 0 1.43-.31 2.707-.932 3.832-.621 1.113-1.376 2.05-2.267 2.813-.879.75-1.77 1.341-2.672 1.775a3.81 3.81 0 0 0-1.072-.738c-.387-.188-.697-.282-.932-.282-.223 0-.381.041-.474.123-.094.07-.141.217-.141.44 1.078.316 1.945.902 2.601 1.758.657.855.985 1.845.985 2.97 0 1.325-.498 2.467-1.494 3.428-1.02.961-2.221 1.441-3.604 1.441s-2.572-.48-3.568-1.44c-.996-.962-1.494-2.104-1.494-3.429 0-1.125.316-2.115.949-2.97-.75-.774-1.125-1.67-1.125-2.69 0-1.23.334-2.215 1.002-2.953.574-.61 1.687-1.283 3.34-2.021.679-.282 1.16-.551 1.441-.809.281-.27.422-.568.422-.896Z"/>
</svg>
