<svg xmlns="http://www.w3.org/2000/svg" width="1440" height="1307" fill="none" viewBox="0 0 1440 1307">
  <g clip-path="url(#a)">
    <path fill="#560B06" d="M0 0h1440v1307H0z"/>
    <path fill="#8A98FD" d="M1213.22 206.753C982.305 214.941 918.959 75.568 724.415 42.938c-207.18-34.765-300.69 51.73-322.831 122.45-17.068 54.516-52.943 78.18-147.495 93.338-67.393 8.511-127.108 32.621-111.467 98.752 15.641 66.132-16.063 105.619-63.258 129.275-47.195 23.661-91.227 57.25-106.713 101.008C-53.58 661.832-.257 739.417 98.019 773.814c110.436 37.833 169.747 79.248 161.99 165.143-1.938 21.468 11.075 135.683 168.973 101.163 39.879-8.72 204.851-67.524 304.963 41.61 24.927 27.18 86.654 53.92 143.058 63.39 151.257 25.38 305.907-51.39 321.267-157.082 16.65-78.206 37.32-114.879 160.13-87.563 121.52 27.028 194.23-89.403 126.24-149.134-94.36-67.319 18.24-188.388 54-289.409 48.87-138.085-123.86-270.218-325.42-255.179Z"/>
    <path fill="#BD5A0D" fill-rule="evenodd" d="M888.293 94.249C839.094 59.793 791.101 26.18 731.87 37.095c-57.944 10.678-84.034 54.074-110.756 98.518-22.16 36.849-44.749 74.418-86.281 94.659-35.629 17.366-82.209 14.565-128.098 11.805-51.618-3.104-102.366-6.156-135.688 19.604-34.634 26.774-28.926 65.776-23.069 105.803 4.412 30.145 8.908 60.872-3.679 87.389-14.284 30.096-47.19 55.757-79.408 80.88-45.442 35.433-89.517 69.802-78.051 114.049 12.722 49.094 68.07 56.751 128.762 65.145 51.317 7.099 106.453 14.724 142.875 48.374 31.329 28.944 35.278 61.676 39.555 97.124 4.618 38.275 9.618 79.712 49.883 122.96 59.6 64.015 180.244 89.895 283.955 88.545 189.467-2.46 337.02-101.091 477.6-236.531 140.58-135.44 164.67-256.729 117.6-399.071-57.76-174.667-128.32-211.419-345.601-288.379-33.323-11.803-63.472-32.915-93.176-53.72Zm-398.697 17.969c0 39.348-31.95 71.246-71.368 71.246-39.414 0-71.366-31.898-71.366-71.246 0-39.349 31.952-71.246 71.366-71.246 39.418 0 71.368 31.898 71.368 71.246Z" clip-rule="evenodd"/>
  </g>
  <defs>
    <clipPath id="a">
      <path fill="#fff" d="M0 0h1440v1307H0z"/>
    </clipPath>
  </defs>
</svg>
