<svg xmlns="http://www.w3.org/2000/svg" width="175" height="193" fill="none" viewBox="0 0 175 193">
  <path fill="#fff" d="M87.362 96.5c27.536 0 49.853-21.6 49.853-48.25S114.898 0 87.362 0 37.509 21.6 37.509 48.25 59.826 96.5 87.362 96.5Zm34.897 12.062h-6.504a69.775 69.775 0 0 1-28.393 6.032c-10.126 0-19.707-2.187-28.393-6.032h-6.504C23.566 108.562.12 131.255.12 159.225v15.681C.12 184.896 8.493 193 18.814 193H155.91c10.321 0 18.694-8.104 18.694-18.094v-15.681c0-27.97-23.446-50.663-52.345-50.663Z"/>
</svg>
